{
.appVersion = "1346";
copyright = "Copyright 2020 The Prodigy Sans Project Authors (https://github.com/weiweihuanghuang/Prodigy-Sans)";
customParameters = (
{
name = license;
value = "This Font Software is licensed under the SIL Open Font License, Version 1.1. This license is available with a FAQ at: http://scripts.sil.org/OFL";
},
{
name = licenseURL;
value = "http://scripts.sil.org/OFL";
},
{
name = "EditView Line Height";
value = 1400;
},
{
name = Axes;
value = (
{
Name = weight;
Tag = wght;
}
);
},
{
name = "Use Typo Metrics";
value = 1;
},
{
name = fsType;
value = (
);
},
{
name = "Disable Last Change";
value = 1;
},
{
name = "Use Line Breaks";
value = 1;
},
{
name = "Variable Font Origin";
value = "4A17B37A-CBFD-40E5-9E02-2080A0E1F76C";
},
{
name = vendorID;
value = WEI;
}
);
date = "2020-10-09 02:08:25 +0000";
designer = "Wei Huang";
designerURL = "http://weiweihuanghuang.github.io/";
familyName = "Prodigy Sans";
featurePrefixes = (
{
automatic = 1;
code = "languagesystem DFLT dflt;

languagesystem latn dflt;
languagesystem latn ROM;
languagesystem latn MOL;
";
name = Languagesystems;
}
);
features = (
{
automatic = 1;
code = "feature locl;
feature subs;
feature sinf;
feature sups;
feature numr;
feature dnom;
feature frac;
feature ordn;
feature lnum;
feature pnum;
feature tnum;
feature onum;
feature calt;
";
name = aalt;
},
{
automatic = 1;
code = "lookup ccmp_Other_1 {
	@CombiningTopAccents = [acutecomb brevecomb caroncomb circumflexcomb dieresiscomb dotaccentcomb gravecomb hungarumlautcomb macroncomb ringcomb tildecomb];
	@CombiningNonTopAccents = [cedillacomb ogonekcomb];
	sub [i j]' @CombiningTopAccents by [idotless jdotless];
	sub [i j]' @CombiningNonTopAccents @CombiningTopAccents by [idotless jdotless];
} ccmp_Other_1;
";
name = ccmp;
},
{
automatic = 1;
code = "lookup locl_latn_0 {
	script latn;
	language ROM;
	language MOL;
	sub Scedilla by Scommaaccent;
	sub scedilla by scommaaccent;
	sub Tcedilla by Tcommaaccent;
	sub tcedilla by tcommaaccent;

glyphs = (
{
color = 5;
glyphname = A;
layers = (
{
anchors = (
{
name = bottom;
position = "{329, 0}";
},
{
name = ogonek;
position = "{653, 0}";
},
{
name = top;
position = "{329, 704}";
}
);
color = 9;
layerId = "4A17B37A-CBFD-40E5-9E02-2080A0E1F76C";
paths = (
{
closed = 1;
nodes = (
"653 0 LINE",
"379 704 LINE",
"281 704 LINE",
"6 0 LINE",
"92 0 LINE",
"169 198 LINE",
"486 198 LINE",
"563 0 LINE"
);
},
{
closed = 1;
nodes = (
"338 647 LINE",
"314 647 LINE",
"457 275 LINE",
"195 275 LINE"
);
}
);
width = 659;
},
{
anchors = (
{
name = bottom;
position = "{305, 0}";
},
{
name = ogonek;
position = "{605, 0}";
},
{
name = top;
position = "{305, 704}";
}
);
color = 9;
layerId = "1C7CD022-87C7-4E11-B656-E47B18819458";
paths = (
{
closed = 1;
nodes = (
"605 0 LINE",
"315 704 LINE",
"296 704 LINE",
"6 0 LINE",
"22 0 LINE",
"125 250 LINE",
"485 250 LINE",
"587 0 LINE"
);
},
{
closed = 1;
nodes = (
"308 693 LINE",
"302 693 LINE",
"478 264 LINE",
"131 264 LINE"
);
}
);
width = 611;
},
{
anchors = (
{
name = bottom;
position = "{393, 0}";
},
{
name = ogonek;
position = "{786, 0}";
},
{
name = top;
position = "{393, 704}";
}
);
layerId = "4605B8F7-B96C-4225-97D4-41F6E85C553E";
paths = (
{
closed = 1;
nodes = (
"786 0 LINE",
"532 704 LINE",
"251 704 LINE",
"0 0 LINE",
"224 0 LINE",
"266 126 LINE",
"503 126 LINE",
"546 0 LINE"
);
},
{
closed = 1;
nodes = (
"424 610 LINE",
"363 611 LINE",
"453 295 LINE",
"318 295 LINE"
);
}
);
width = 786;
},
{
anchors = (
{
name = bottom;
position = "{368, 0}";
},
{
name = ogonek;
position = "{730, 0}";
},
{
name = top;
position = "{368, 704}";
}
);
guideLines = (
{
angle = 70.0462;
position = "{171, 0}";
}
);
layerId = "17687776-AAFA-4856-A5EB-4A2EB08551C8";
paths = (
{
closed = 1;
nodes = (
"730 0 LINE",
"466 704 LINE",
"271 704 LINE",
"9 0 LINE",
"171 0 LINE",
"228 157 LINE",
"504 157 LINE",
"561 0 LINE"
);
},
{
closed = 1;
nodes = (
"399 629 LINE",
"339 629 LINE",
"460 289 LINE",
"274 289 LINE"
);
}
);
width = 739;
}
);
leftKerningGroup = A;
rightKerningGroup = A;
rightMetricsKey = "=|";
unicode = 0041;
},
{
color = 5;
glyphname = AE;
layers = (
{
anchors = (
{
name = bottom;
position = "{517, 0}";
},
{
name = ogonek;
position = "{956, 0}";
},
{
name = top;
position = "{517, 704}";
}
);
color = 9;
layerId = "4A17B37A-CBFD-40E5-9E02-2080A0E1F76C";
paths = (
{
closed = 1;
nodes = (
"91 0 LINE",
"474 630 LINE",
"476 630 LINE",
"476 307 LINE",
"232 307 LINE",
"188 230 LINE",
"476 230 LINE",
"476 0 LINE",
"956 0 LINE",
"956 77 LINE",
"559 77 LINE",
"559 319 LINE",
"850 319 LINE",
"850 394 LINE",
"559 394 LINE",
"559 627 LINE",
"939 627 LINE",
"939 704 LINE",
"426 704 LINE",
"-7 0 LINE"
);
}
);
width = 990;
},
{
anchors = (
{
name = bottom;
position = "{480, 0}";
},
{
name = ogonek;
position = "{917, 0}";
},
{
name = top;
position = "{480, 704}";
}
);
color = 9;
layerId = "1C7CD022-87C7-4E11-B656-E47B18819458";
paths = (
{
closed = 1;
nodes = (
"15 0 LINE",
"466 690 LINE",
"471 690 LINE",
"471 285 LINE",
"194 285 LINE",
"184 271 LINE",
"471 271 LINE",
"471 0 LINE",
"917 0 LINE",
"917 14 LINE",
"488 14 LINE",
"488 350 LINE",
"818 350 LINE",
"818 365 LINE",
"488 365 LINE",
"488 690 LINE",
"900 690 LINE",
"900 704 LINE",
"457 704 LINE",
"-5 0 LINE"
);
}
);
width = 932;
},
{
anchors = (
{
name = bottom;
position = "{631, 0}";
},
{
name = ogonek;
position = "{1090, 0}";
},
{
name = top;
position = "{631, 704}";
}
);
layerId = "4605B8F7-B96C-4225-97D4-41F6E85C553E";
paths = (
{
closed = 1;
nodes = (
"229 0 LINE",
"507 524 LINE",
"523 524 LINE",
"523 346 LINE",
"278 346 LINE",
"241 172 LINE",
"523 172 LINE",
"523 0 LINE",
"1090 0 LINE",
"1090 180 LINE",
"728 180 LINE",
"728 264 LINE",
"1009 264 LINE",
"1009 439 LINE",
"728 439 LINE",
"728 524 LINE",
"1077 524 LINE",
"1077 704 LINE",
"392 704 LINE",
"0 0 LINE"
);
}
);
width = 1114;
},
{
anchors = (
{
name = bottom;
position = "{589, 0}";
},
{
name = ogonek;
position = "{1028, 0}";
},
{
name = top;
position = "{589, 704}";
}
);
layerId = "17687776-AAFA-4856-A5EB-4A2EB08551C8";
paths = (
{
closed = 1;
nodes = (
"185 0 LINE",
"504 572 LINE",
"512 572 LINE",
"512 329 LINE",
"293 329 LINE",
"228 205 LINE",
"512 205 LINE",
"512 0 LINE",
"1028 0 LINE",
"1028 135 LINE",
"669 135 LINE",
"669 289 LINE",
"934 289 LINE",
"934 418 LINE",
"669 418 LINE",
"669 569 LINE",
"1012 569 LINE",
"1012 704 LINE",
"414 704 LINE",
"9 0 LINE"
);
}
);
width = 1060;
}
);
leftKerningGroup = AE;
rightKerningGroup = E;
rightMetricsKey = E;
unicode = 00C6;
},
{
color = 5;
glyphname = B;
layers = (
{
anchors = (
{
name = bottom;
position = "{302, 0}";
},
{
name = ogonek;
position = "{340, 0}";
},
{
name = top;
position = "{302, 704}";
}
);
color = 9;
layerId = "4A17B37A-CBFD-40E5-9E02-2080A0E1F76C";
paths = (
{
closed = 1;
nodes = (
"349 0 LINE SMOOTH",
"515 0 OFFCURVE",
"598 77 OFFCURVE",
"598 197 CURVE SMOOTH",
"598 274 OFFCURVE",
"544 341 OFFCURVE",
"460 358 CURVE",
"460 359 LINE",
"536 373 OFFCURVE",
"580 438 OFFCURVE",
"580 511 CURVE SMOOTH",
"580 631 OFFCURVE",
"505 704 OFFCURVE",
"341 704 CURVE SMOOTH",
"88 704 LINE",
"88 0 LINE"
);
},
{
closed = 1;
nodes = (
"171 316 LINE",
"358 316 LINE SMOOTH",
"460 316 OFFCURVE",
"512 273 OFFCURVE",
"512 198 CURVE SMOOTH",
"512 121 OFFCURVE",
"459 76 OFFCURVE",
"347 76 CURVE SMOOTH",
"171 76 LINE"
);
},
{
closed = 1;
nodes = (
"171 628 LINE",
"342 628 LINE SMOOTH",
"442 628 OFFCURVE",
"493 588 OFFCURVE",
"493 510 CURVE SMOOTH",
"493 432 OFFCURVE",
"443 393 OFFCURVE",
"342 393 CURVE SMOOTH",
"171 393 LINE"
);
}
);
width = 636;
},
{
anchors = (
{
name = bottom;
position = "{296, 0}";
},
{
name = ogonek;
position = "{331, 0}";
},
{
name = top;
position = "{296, 704}";
}
);
color = 9;
layerId = "1C7CD022-87C7-4E11-B656-E47B18819458";
paths = (
{
closed = 1;
nodes = (
"331 0 LINE SMOOTH",
"487 0 OFFCURVE",
"568 62 OFFCURVE",
"568 180 CURVE SMOOTH",
"568 281 OFFCURVE",
"508 341 OFFCURVE",
"407 355 CURVE",
"407 356 LINE",
"501 376 OFFCURVE",
"547 434 OFFCURVE",
"547 526 CURVE SMOOTH",
"547 643 OFFCURVE",
"473 704 OFFCURVE",
"331 704 CURVE SMOOTH",
"84 704 LINE",
"84 0 LINE"
);
},
{
closed = 1;
nodes = (
"101 348 LINE",
"331 348 LINE SMOOTH",
"475 348 OFFCURVE",
"550 292 OFFCURVE",
"550 181 CURVE SMOOTH",
"550 71 OFFCURVE",
"475 14 OFFCURVE",
"331 14 CURVE SMOOTH",
"101 14 LINE"
);
},
{
closed = 1;
nodes = (
"101 690 LINE",
"331 690 LINE SMOOTH",
"462 690 OFFCURVE",
"530 633 OFFCURVE",
"530 525 CURVE SMOOTH",
"530 417 OFFCURVE",
"462 363 OFFCURVE",
"331 363 CURVE SMOOTH",
"101 363 LINE"
);
}
);
width = 615;
},
{
anchors = (
{
name = bottom;
position = "{338, 0}";
},
{
name = ogonek;
position = "{433, 0}";
},
{
name = top;
position = "{338, 704}";
}
);
guideLines = (
{
angle = 90;
position = "{307, -170}";
showMeasurement = 1;
}
);
layerId = "4605B8F7-B96C-4225-97D4-41F6E85C553E";
paths = (
{
closed = 1;
nodes = (
"470 0 LINE SMOOTH",
"641 0 OFFCURVE",
"724 72 OFFCURVE",
"724 194 CURVE SMOOTH",
"724 282 OFFCURVE",
"670 340 OFFCURVE",
"564 355 CURVE",
"564 356 LINE",
"661 370 OFFCURVE",
"706 438 OFFCURVE",
"706 514 CURVE SMOOTH",
"706 639 OFFCURVE",
"620 704 OFFCURVE",
"445 704 CURVE SMOOTH",
"50 704 LINE",
"50 0 LINE"
);
},
{
closed = 1;
nodes = (
"273 274 LINE",
"411 274 LINE SMOOTH",
"460 274 OFFCURVE",
"486 256 OFFCURVE",
"486 219 CURVE SMOOTH",
"486 182 OFFCURVE",
"461 162 OFFCURVE",
"411 162 CURVE SMOOTH",
"273 162 LINE"
);
},
{
closed = 1;
nodes = (
"273 544 LINE",
"397 544 LINE SMOOTH",
"445 544 OFFCURVE",
"469 525 OFFCURVE",
"469 489 CURVE SMOOTH",
"469 452 OFFCURVE",
"444 434 OFFCURVE",
"397 434 CURVE SMOOTH",
"273 434 LINE"
);
}
);
width = 738;
},
{
anchors = (
{
name = bottom;
position = "{329, 0}";
},
{
name = ogonek;
position = "{396, 0}";
},
{
name = top;
position = "{329, 704}";
}
);
layerId = "17687776-AAFA-4856-A5EB-4A2EB08551C8";
paths = (
{
closed = 1;
nodes = (
"412 0 LINE SMOOTH",
"580 0 OFFCURVE",
"670 69 OFFCURVE",
"670 192 CURVE SMOOTH",
"670 276 OFFCURVE",
"624 339 OFFCURVE",
"533 356 CURVE",
"533 357 LINE",
"607 371 OFFCURVE",
"653 437 OFFCURVE",
"653 513 CURVE SMOOTH",
"653 636 OFFCURVE",
"571 704 OFFCURVE",
"400 704 CURVE SMOOTH",
"77 704 LINE",
"77 0 LINE"
);
},
{
closed = 1;
nodes = (
"235 288 LINE",
"401 288 LINE SMOOTH",
"467 288 OFFCURVE",
"504 266 OFFCURVE",
"504 211 CURVE SMOOTH",
"504 155 OFFCURVE",
"467 131 OFFCURVE",
"401 131 CURVE SMOOTH",
"235 131 LINE"
);
},
{
closed = 1;
nodes = (
"235 573 LINE",
"383 573 LINE SMOOTH",
"449 573 OFFCURVE",
"487 551 OFFCURVE",
"487 497 CURVE SMOOTH",
"487 441 OFFCURVE",
"448 419 OFFCURVE",
"383 419 CURVE SMOOTH",
"235 419 LINE"
);
}
);
width = 708;
}
);
leftKerningGroup = I;
leftMetricsKey = H;
unicode = 0042;
},
{
color = 5;
glyphname = C;
layers = (
{
anchors = (
{
name = bottom;
position = "{370, 0}";
},
{
name = ogonek;
position = "{459, 0}";
},
{
name = top;
position = "{371, 704}";
}
);
color = 9;
layerId = "4A17B37A-CBFD-40E5-9E02-2080A0E1F76C";
paths = (
{
closed = 1;
nodes = (
"579 217 LINE",
"547 118 OFFCURVE",
"473 67 OFFCURVE",
"376 67 CURVE SMOOTH",
"228 67 OFFCURVE",
"134 174 OFFCURVE",
"134 352 CURVE SMOOTH",
"134 535 OFFCURVE",
"233 637 OFFCURVE",
"378 637 CURVE SMOOTH",
"477 637 OFFCURVE",
"537 590 OFFCURVE",
"570 508 CURVE",
"652 546 LINE",
"607 652 OFFCURVE",
"511 715 OFFCURVE",
"372 715 CURVE SMOOTH",
"177 715 OFFCURVE",
"48 575 OFFCURVE",
"48 352 CURVE SMOOTH",
"48 129 OFFCURVE",
"176 -11 OFFCURVE",
"376 -11 CURVE SMOOTH",
"512 -11 OFFCURVE",
"619 62 OFFCURVE",
"664 186 CURVE"
);
}
);
width = 685;
},
{
anchors = (
{
name = bottom;
position = "{343, 0}";
},
{
name = ogonek;
position = "{444, 0}";
},
{
name = top;
position = "{343, 704}";
}
);
color = 9;
layerId = "1C7CD022-87C7-4E11-B656-E47B18819458";
paths = (
{
closed = 1;
nodes = (
"616 182 LINE",
"583 69 OFFCURVE",
"488 4 OFFCURVE",
"353 4 CURVE SMOOTH",
"178 4 OFFCURVE",
"58 139 OFFCURVE",
"58 352 CURVE SMOOTH",
"58 565 OFFCURVE",
"176 700 OFFCURVE",
"353 700 CURVE SMOOTH",
"491 700 OFFCURVE",
"575 641 OFFCURVE",
"611 522 CURVE",
"626 529 LINE",
"592 653 OFFCURVE",
"502 715 OFFCURVE",
"353 715 CURVE SMOOTH",
"165 715 OFFCURVE",
"41 575 OFFCURVE",
"41 352 CURVE SMOOTH",
"41 129 OFFCURVE",
"166 -11 OFFCURVE",
"353 -11 CURVE SMOOTH",
"495 -11 OFFCURVE",
"596 58 OFFCURVE",
"632 176 CURVE"
);
}
);
width = 668;
},
{
anchors = (
{
name = bottom;
position = "{368, 0}";
},
{
name = ogonek;
position = "{489, 0}";
},
{
name = top;
position = "{375, 704}";
}
);
layerId = "4605B8F7-B96C-4225-97D4-41F6E85C553E";
paths = (
{
closed = 1;
nodes = (
"494 288 LINE",
"483 226 OFFCURVE",
"449 195 OFFCURVE",
"391 195 CURVE SMOOTH",
"306 195 OFFCURVE",
"266 244 OFFCURVE",
"266 349 CURVE SMOOTH",
"266 454 OFFCURVE",
"301 507 OFFCURVE",
"385 507 CURVE SMOOTH",
"433 507 OFFCURVE",
"480 483 OFFCURVE",
"492 413 CURVE",
"715 490 LINE",
"672 649 OFFCURVE",
"533 715 OFFCURVE",
"384 715 CURVE SMOOTH",
"173 715 OFFCURVE",
"29 581 OFFCURVE",
"29 352 CURVE SMOOTH",
"29 123 OFFCURVE",
"170 -11 OFFCURVE",
"384 -11 CURVE SMOOTH",
"547 -11 OFFCURVE",
"683 62 OFFCURVE",
"725 238 CURVE"
);
}
);
width = 724;
},
{
anchors = (
{
name = bottom;
position = "{379, 0}";
},
{
name = ogonek;
position = "{485, 0}";
},
{
name = top;
position = "{384, 704}";
}
);
layerId = "17687776-AAFA-4856-A5EB-4A2EB08551C8";
paths = (
{
closed = 1;
nodes = (
"547 261 LINE",
"525 180 OFFCURVE",
"472 136 OFFCURVE",
"395 136 CURVE SMOOTH",
"278 136 OFFCURVE",
"214 211 OFFCURVE",
"214 352 CURVE SMOOTH",
"214 493 OFFCURVE",
"282 568 OFFCURVE",
"394 568 CURVE SMOOTH",
"462 568 OFFCURVE",
"522 538 OFFCURVE",
"550 449 CURVE",
"706 511 LINE",
"658 646 OFFCURVE",
"545 715 OFFCURVE",
"393 715 CURVE SMOOTH",
"184 715 OFFCURVE",
"47 579 OFFCURVE",
"47 352 CURVE SMOOTH",
"47 125 OFFCURVE",
"181 -11 OFFCURVE",
"391 -11 CURVE SMOOTH",
"536 -11 OFFCURVE",
"665 57 OFFCURVE",
"711 213 CURVE"
);
}
);
width = 737;
}
);
leftKerningGroup = O;
leftMetricsKey = O;
rightKerningGroup = C;
unicode = 0043;
},
{
color = 5;
glyphname = D;
layers = (
{
anchors = (
{
name = bottom;
position = "{342, 0}";
},
{
name = center;
position = "{168, 352}";
},
{
name = ogonek;
position = "{326, 0}";
},
{
name = top;
position = "{360, 704}";
}
);
color = 9;
layerId = "4A17B37A-CBFD-40E5-9E02-2080A0E1F76C";
paths = (
{
closed = 1;
nodes = (
"88 704 LINE",
"88 0 LINE",
"317 0 LINE SMOOTH",
"537 0 OFFCURVE",
"671 126 OFFCURVE",
"671 353 CURVE SMOOTH",
"671 579 OFFCURVE",
"538 704 OFFCURVE",
"317 704 CURVE SMOOTH"
);
},
{
closed = 1;
nodes = (
"171 77 LINE",
"171 627 LINE",
"323 627 LINE SMOOTH",
"488 627 OFFCURVE",
"583 525 OFFCURVE",
"583 353 CURVE SMOOTH",
"583 180 OFFCURVE",
"488 77 OFFCURVE",
"323 77 CURVE SMOOTH"
);
}
);
width = 719;
},
{
anchors = (
{
name = bottom;
position = "{308, 0}";
},
{
name = center;
position = "{134, 352}";
},
{
name = ogonek;
position = "{300, 0}";
},
{
name = top;
position = "{308, 704}";
}
);
color = 9;
layerId = "1C7CD022-87C7-4E11-B656-E47B18819458";
paths = (
{
closed = 1;
nodes = (
"84 704 LINE",
"84 0 LINE",
"300 0 LINE SMOOTH",
"529 0 OFFCURVE",
"648 124 OFFCURVE",
"648 363 CURVE SMOOTH",
"648 586 OFFCURVE",
"529 704 OFFCURVE",
"300 704 CURVE SMOOTH"
);
},
{
closed = 1;
nodes = (
"101 14 LINE",
"101 690 LINE",
"300 690 LINE SMOOTH",
"517 690 OFFCURVE",
"630 577 OFFCURVE",
"630 363 CURVE SMOOTH",
"630 134 OFFCURVE",
"517 14 OFFCURVE",
"300 14 CURVE SMOOTH"
);
}
);
width = 689;
},
{
anchors = (
{
name = bottom;
position = "{345, 0}";
},
{
name = center;
position = "{162, 352}";
},
{
name = ogonek;
position = "{386, 0}";
},
{
name = top;
position = "{347, 704}";
}
);
layerId = "4605B8F7-B96C-4225-97D4-41F6E85C553E";
paths = (
{
closed = 1;
nodes = (
"50 704 LINE",
"50 0 LINE",
"385 0 LINE SMOOTH",
"605 0 OFFCURVE",
"721 128 OFFCURVE",
"721 352 CURVE SMOOTH",
"721 576 OFFCURVE",
"605 704 OFFCURVE",
"385 704 CURVE SMOOTH"
);
},
{
closed = 1;
nodes = (
"277 195 LINE",
"277 509 LINE",
"357 509 LINE SMOOTH",
"434 509 OFFCURVE",
"486 481 OFFCURVE",
"486 352 CURVE SMOOTH",
"486 223 OFFCURVE",
"434 195 OFFCURVE",
"357 195 CURVE SMOOTH"
);
}
);
width = 750;
},
{
anchors = (
{
name = bottom;
position = "{353, 0}";
},
{
name = center;
position = "{182, 352}";
},
{
name = ogonek;
position = "{366, 0}";
},
{
name = top;
position = "{365, 704}";
}
);
layerId = "17687776-AAFA-4856-A5EB-4A2EB08551C8";
paths = (
{
closed = 1;
nodes = (
"77 704 LINE",
"77 0 LINE",
"361 0 LINE SMOOTH",
"581 0 OFFCURVE",
"704 127 OFFCURVE",
"704 352 CURVE SMOOTH",
"704 577 OFFCURVE",
"581 704 OFFCURVE",
"361 704 CURVE SMOOTH"
);
},
{
closed = 1;
nodes = (
"239 141 LINE",
"239 563 LINE",
"348 563 LINE SMOOTH",
"474 563 OFFCURVE",
"539 493 OFFCURVE",
"539 352 CURVE SMOOTH",
"539 210 OFFCURVE",
"473 141 OFFCURVE",
"348 141 CURVE SMOOTH"
);
}
);
width = 751;
}
);
leftKerningGroup = I;
rightKerningGroup = O;
rightMetricsKey = O;
unicode = 0044;
},
{
color = 5;
glyphname = E;
layers = (
{
anchors = (
{
name = bottom;
position = "{347, 0}";
},
{
name = ogonek;
position = "{598, 0}";
},
{
name = top;
position = "{336, 704}";
}
);
color = 9;
layerId = "4A17B37A-CBFD-40E5-9E02-2080A0E1F76C";
paths = (
{
closed = 1;
nodes = (
"598 0 LINE",
"598 77 LINE",
"171 77 LINE",
"171 319 LINE",
"492 319 LINE",
"492 395 LINE",
"171 395 LINE",
"171 627 LINE",
"583 627 LINE",
"583 704 LINE",
"88 704 LINE",
"88 0 LINE"
);
}
);
width = 632;
},
{
anchors = (
{
name = bottom;
position = "{333, 0}";
},
{
name = ogonek;
position = "{569, 0}";
},
{
name = top;
position = "{318, 704}";
}
);
color = 9;
layerId = "1C7CD022-87C7-4E11-B656-E47B18819458";
paths = (
{
closed = 1;
nodes = (
"569 0 LINE",
"569 14 LINE",
"101 14 LINE",
"101 352 LINE",
"462 352 LINE",
"462 366 LINE",
"101 366 LINE",
"101 690 LINE",
"550 690 LINE",
"550 704 LINE",
"84 704 LINE",
"84 0 LINE"
);
}
);
width = 584;
},
{
anchors = (
{
name = bottom;
position = "{353, 0}";
},
{
name = ogonek;
position = "{646, 0}";
},
{
name = top;
position = "{338, 704}";
}
);
layerId = "4605B8F7-B96C-4225-97D4-41F6E85C553E";
leftMetricsKey = "=I";
paths = (
{
closed = 1;
nodes = (
"645 0 LINE",
"645 190 LINE",
"272 190 LINE",
"272 259 LINE",
"564 259 LINE",
"564 445 LINE",
"272 445 LINE",
"272 514 LINE",
"633 514 LINE",
"633 704 LINE",
"50 704 LINE",
"50 0 LINE"
);
}
);
width = 669;
},
{
anchors = (
{
name = bottom;
position = "{359, 0}";
},
{
name = ogonek;
position = "{633, 0}";
},
{
name = top;
position = "{346, 704}";
}
);
layerId = "17687776-AAFA-4856-A5EB-4A2EB08551C8";
paths = (
{
closed = 1;
nodes = (
"633 0 LINE",
"633 142 LINE",
"237 142 LINE",
"237 285 LINE",
"540 285 LINE",
"540 421 LINE",
"237 421 LINE",
"237 562 LINE",
"618 562 LINE",
"618 704 LINE",
"77 704 LINE",
"77 0 LINE"
);
}
);
width = 665;
}
);
leftKerningGroup = I;
rightKerningGroup = E;
unicode = 0045;
},
{
color = 5;
glyphname = F;
layers = (
{
anchors = (
{
name = bottom;
position = "{130, 0}";
},
{
name = ogonek;
position = "{171, 0}";
},
{
name = top;
position = "{331, 704}";
}
);
color = 9;
layerId = "4A17B37A-CBFD-40E5-9E02-2080A0E1F76C";
paths = (
{
closed = 1;
nodes = (
"581 704 LINE",
"88 704 LINE",
"88 0 LINE",
"171 0 LINE",
"171 318 LINE",
"492 318 LINE",
"492 394 LINE",
"171 394 LINE",
"171 627 LINE",
"581 627 LINE"
);
}
);
width = 607;
},
{
anchors = (
{
name = bottom;
position = "{92, 0}";
},
{
name = ogonek;
position = "{101, 0}";
},
{
name = top;
position = "{313, 704}";
}
);
color = 9;
layerId = "1C7CD022-87C7-4E11-B656-E47B18819458";
paths = (
{
closed = 1;
nodes = (
"549 704 LINE",
"84 704 LINE",
"84 0 LINE",
"101 0 LINE",
"101 352 LINE",
"462 352 LINE",
"462 366 LINE",
"101 366 LINE",
"101 690 LINE",
"549 690 LINE"
);
}
);
width = 559;
},
{
anchors = (
{
name = bottom;
position = "{168, 0}";
},
{
name = ogonek;
position = "{283, 0}";
},
{
name = top;
position = "{321, 704}";
}
);
guideLines = (
{
angle = 90;
position = "{442, 63}";
showMeasurement = 1;
}
);
layerId = "4605B8F7-B96C-4225-97D4-41F6E85C553E";
leftMetricsKey = "=I";
paths = (
{
closed = 1;
nodes = (
"624 704 LINE",
"50 704 LINE",
"50 0 LINE",
"283 0 LINE",
"283 214 LINE",
"558 214 LINE",
"558 409 LINE",
"283 409 LINE",
"283 504 LINE",
"624 504 LINE"
);
}
);
width = 644;
},
{
anchors = (
{
name = bottom;
position = "{159, 0}";
},
{
name = ogonek;
position = "{239, 0}";
},
{
name = top;
position = "{336, 704}";
}
);
layerId = "17687776-AAFA-4856-A5EB-4A2EB08551C8";
paths = (
{
closed = 1;
nodes = (
"613 704 LINE",
"77 704 LINE",
"77 0 LINE",
"239 0 LINE",
"239 261 LINE",
"535 261 LINE",
"535 404 LINE",
"239 404 LINE",
"239 560 LINE",
"613 560 LINE"
);
}
);
width = 640;
}
);
leftKerningGroup = I;
leftMetricsKey = H;
unicode = 0046;
},
{
color = 5;
glyphname = G;
layers = (
{
anchors = (
{
name = bottom;
position = "{356, 0}";
},
{
name = ogonek;
position = "{440, 0}";
},
{
name = top;
position = "{348, 704}";
}
);
color = 9;
layerId = "1C7CD022-87C7-4E11-B656-E47B18819458";
paths = (
{
closed = 1;
nodes = (
"575 -11 OFFCURVE",
"639 149 OFFCURVE",
"639 304 CURVE SMOOTH",
"639 341 LINE",
"349 341 LINE",
"349 327 LINE",
"630 327 LINE",
"623 335 LINE",
"623 310 LINE SMOOTH",
"623 176 OFFCURVE",
"583 4 OFFCURVE",
"355 4 CURVE SMOOTH",
"177 4 OFFCURVE",
"58 139 OFFCURVE",
"58 352 CURVE SMOOTH",
"58 566 OFFCURVE",
"174 700 OFFCURVE",
"364 700 CURVE SMOOTH",
"488 700 OFFCURVE",
"576 641 OFFCURVE",
"611 524 CURVE",
"627 529 LINE",
"592 653 OFFCURVE",
"495 715 OFFCURVE",
"364 715 CURVE SMOOTH",
"163 715 OFFCURVE",
"41 575 OFFCURVE",
"41 352 CURVE SMOOTH",
"41 130 OFFCURVE",
"166 -11 OFFCURVE",
"355 -11 CURVE SMOOTH"
);
}
);
width = 683;
},
{
anchors = (
{
name = bottom;
position = "{402, 0}";
},
{
name = ogonek;
position = "{457, 0}";
},
{
name = top;
position = "{372, 704}";
}
);
color = 9;
layerId = "4A17B37A-CBFD-40E5-9E02-2080A0E1F76C";
paths = (
{
closed = 1;
nodes = (
"574 -11 OFFCURVE",
"683 114 OFFCURVE",
"683 293 CURVE SMOOTH",
"683 367 LINE",
"354 367 LINE",
"354 291 LINE",
"648 291 LINE",
"604 320 LINE",
"604 274 LINE SMOOTH",
"604 182 OFFCURVE",
"548 67 OFFCURVE",
"384 67 CURVE SMOOTH",
"224 67 OFFCURVE",
"134 177 OFFCURVE",
"134 352 CURVE SMOOTH",
"134 528 OFFCURVE",
"225 637 OFFCURVE",
"390 637 CURVE SMOOTH",
"472 637 OFFCURVE",
"550 595 OFFCURVE",
"581 506 CURVE",
"665 541 LINE",
"605 671 OFFCURVE",
"510 715 OFFCURVE",
"387 715 CURVE SMOOTH",
"179 715 OFFCURVE",
"48 574 OFFCURVE",
"48 352 CURVE SMOOTH",
"48 132 OFFCURVE",
"176 -11 OFFCURVE",
"376 -11 CURVE SMOOTH"
);
}
);
width = 721;
},
{
anchors = (
{
name = bottom;
position = "{401, 0}";
},
{
name = ogonek;
position = "{427, 0}";
},
{
name = top;
position = "{384, 704}";
}
);
layerId = "4605B8F7-B96C-4225-97D4-41F6E85C553E";
paths = (
{
closed = 1;
nodes = (
"578 -11 OFFCURVE",
"729 71 OFFCURVE",
"729 322 CURVE SMOOTH",
"729 410 LINE",
"347 410 LINE",
"347 255 LINE",
"641 255 LINE",
"523 310 LINE",
"523 263 LINE SMOOTH",
"523 223 OFFCURVE",
"477 181 OFFCURVE",
"412 181 CURVE SMOOTH",
"301 181 OFFCURVE",
"263 242 OFFCURVE",
"263 362 CURVE SMOOTH",
"263 468 OFFCURVE",
"316 522 OFFCURVE",
"396 522 CURVE SMOOTH",
"463 522 OFFCURVE",
"498 491 OFFCURVE",
"516 433 CURVE",
"730 523 LINE",
"663 665 OFFCURVE",
"548 715 OFFCURVE",
"400 715 CURVE SMOOTH",
"162 715 OFFCURVE",
"29 575 OFFCURVE",
"29 347 CURVE SMOOTH",
"29 122 OFFCURVE",
"173 -11 OFFCURVE",
"386 -11 CURVE SMOOTH"
);
}
);
width = 759;
},
{
anchors = (
{
name = bottom;
position = "{413, 0}";
},
{
name = ogonek;
position = "{452, 0}";
},
{
name = top;
position = "{388, 704}";
}
);
layerId = "17687776-AAFA-4856-A5EB-4A2EB08551C8";
paths = (
{
closed = 1;
nodes = (
"580 -11 OFFCURVE",
"715 88 OFFCURVE",
"715 299 CURVE SMOOTH",
"715 401 LINE",
"370 401 LINE",
"370 274 LINE",
"651 274 LINE",
"560 311 LINE",
"560 258 LINE SMOOTH",
"560 198 OFFCURVE",
"514 133 OFFCURVE",
"406 133 CURVE SMOOTH",
"281 133 OFFCURVE",
"213 207 OFFCURVE",
"213 355 CURVE SMOOTH",
"213 498 OFFCURVE",
"283 572 OFFCURVE",
"396 572 CURVE SMOOTH",
"471 572 OFFCURVE",
"529 538 OFFCURVE",
"556 460 CURVE",
"713 525 LINE",
"660 660 OFFCURVE",
"538 715 OFFCURVE",
"398 715 CURVE SMOOTH",
"174 715 OFFCURVE",
"47 580 OFFCURVE",
"47 351 CURVE SMOOTH",
"47 119 OFFCURVE",
"192 -11 OFFCURVE",
"392 -11 CURVE SMOOTH"
);
}
);
width = 754;
}
);
leftKerningGroup = O;
leftMetricsKey = O;
rightKerningGroup = G;
unicode = 0047;
userData = {
com.typemytype.robofont.layerData = {
background = {
anchors = (
);
components = (
);
contours = (
{
points = (
{
smooth = 0;
x = 152;
y = 670;
},
{
smooth = 0;
x = 36;
y = 539;
},
{
segmentType = curve;
smooth = 1;
x = 36;
y = 330;
},
{
smooth = 0;
x = 36;
y = 121;
},
{
smooth = 0;
x = 152;
y = "-10";
},
{
segmentType = curve;
smooth = 1;
x = 337;
y = "-10";
},
{
smooth = 0;
x = 522;
y = "-10";
},
{
smooth = 0;
x = 638;
y = 121;
},
{
segmentType = curve;
smooth = 1;
x = 638;
y = 330;
},
{
smooth = 0;
x = 638;
y = 539;
},
{
smooth = 0;
x = 522;
y = 670;
},
{
segmentType = curve;
smooth = 1;
x = 337;
y = 670;
}
);
},
{
points = (
{
smooth = 0;
x = 512;
y = 656;
},
{
smooth = 0;
x = 622;
y = 530;
},
{
segmentType = curve;
smooth = 1;
x = 622;
y = 330;
},
{
smooth = 0;
x = 622;
y = 130;
},
{
smooth = 0;
x = 512;
y = 4;
},
{
segmentType = curve;
smooth = 1;
x = 337;
y = 4;
},
{
smooth = 0;
x = 162;
y = 4;
},
{
smooth = 0;
x = 52;
y = 130;
},
{
segmentType = curve;
smooth = 1;
x = 52;
y = 330;
},
{
smooth = 0;
x = 52;
y = 530;
},
{
smooth = 0;
x = 162;
y = 656;
},
{
segmentType = curve;
smooth = 1;
x = 337;
y = 656;
}
);
}
);
lib = {
};
name = G.alt;
unicodes = (
);
width = 684;
};
};
};
},
{
color = 5;
glyphname = H;
layers = (
{
anchors = (
{
name = bottom;
position = "{365, 0}";
},
{
name = ogonek;
position = "{641, 0}";
},
{
name = top;
position = "{365, 704}";
}
);
color = 9;
guideLines = (
{
position = "{-23, 100}";
showMeasurement = 1;
}
);
layerId = "4A17B37A-CBFD-40E5-9E02-2080A0E1F76C";
paths = (
{
closed = 1;
nodes = (
"558 704 LINE",
"558 0 LINE",
"641 0 LINE",
"641 704 LINE"
);
},
{
closed = 1;
nodes = (
"88 704 LINE",
"88 0 LINE",
"171 0 LINE",
"171 704 LINE"
);
},
{
closed = 1;
nodes = (
"132 395 LINE",
"132 319 LINE",
"597 319 LINE",
"597 395 LINE"
);
}
);
width = 729;
},
{
anchors = (
{
name = bottom;
position = "{350, 0}";
},
{
name = ogonek;
position = "{615, 0}";
},
{
name = top;
position = "{350, 704}";
}
);
color = 9;
guideLines = (
{
position = "{78, 100}";
showMeasurement = 1;
}
);
layerId = "1C7CD022-87C7-4E11-B656-E47B18819458";
paths = (
{
closed = 1;
nodes = (
"598 704 LINE",
"598 0 LINE",
"615 0 LINE",
"615 704 LINE"
);
},
{
closed = 1;
nodes = (
"84 704 LINE",
"84 0 LINE",
"101 0 LINE",
"101 704 LINE"
);
},
{
closed = 1;
nodes = (
"92 366 LINE",
"92 352 LINE",
"608 352 LINE",
"608 366 LINE"
);
}
);
width = 699;
},
{
anchors = (
{
name = bottom;
position = "{390, 0}";
},
{
name = ogonek;
position = "{737, 0}";
},
{
name = top;
position = "{390, 704}";
}
);
guideLines = (
{
position = "{0, 100}";
showMeasurement = 1;
}
);
layerId = "4605B8F7-B96C-4225-97D4-41F6E85C553E";
paths = (
{
closed = 1;
nodes = (
"493 704 LINE",
"493 0 LINE",
"726 0 LINE",
"726 704 LINE"
);
},
{
closed = 1;
nodes = (
"50 704 LINE",
"50 0 LINE",
"283 0 LINE",
"283 704 LINE"
);
},
{
closed = 1;
nodes = (
"163 456 LINE",
"163 252 LINE",
"622 252 LINE",
"622 456 LINE"
);
}
);
width = 776;
},
{
anchors = (
{
name = bottom;
position = "{387, 0}";
},
{
name = ogonek;
position = "{699, 0}";
},
{
name = top;
position = "{387, 704}";
}
);
layerId = "17687776-AAFA-4856-A5EB-4A2EB08551C8";
paths = (
{
closed = 1;
nodes = (
"533 704 LINE",
"533 0 LINE",
"695 0 LINE",
"695 704 LINE"
);
},
{
closed = 1;
nodes = (
"77 704 LINE",
"77 0 LINE",
"239 0 LINE",
"239 704 LINE"
);
},
{
closed = 1;
nodes = (
"157 427 LINE",
"157 283 LINE",
"618 283 LINE",
"618 427 LINE"
);
}
);
width = 771;
}
);
leftKerningGroup = I;
rightKerningGroup = I;
unicode = 0048;
},
{
color = 5;
glyphname = I;
layers = (
{
anchors = (
{
name = bottom;
position = "{130, 0}";
},
{
name = ogonek;
position = "{171, 0}";
},
{
name = top;
position = "{130, 704}";
}
);
color = 9;
guideLines = (
{
position = "{-23, 200}";
showMeasurement = 1;
}
);
layerId = "4A17B37A-CBFD-40E5-9E02-2080A0E1F76C";
paths = (
{
closed = 1;
nodes = (
"88 704 LINE",
"88 0 LINE",
"171 0 LINE",
"171 704 LINE"
);
}
);
width = 259;
},
{
anchors = (
{
name = bottom;
position = "{92, 0}";
},
{
name = ogonek;
position = "{101, 0}";
},
{
name = top;
position = "{92, 704}";
}
);
color = 9;
guideLines = (
{
position = "{78, 199}";
showMeasurement = 1;
}
);
layerId = "1C7CD022-87C7-4E11-B656-E47B18819458";
paths = (
{
closed = 1;
nodes = (
"84 704 LINE",
"84 0 LINE",
"101 0 LINE",
"101 704 LINE"
);
}
);
width = 185;
},
{
anchors = (
{
name = bottom;
position = "{168, 0}";
},
{
name = ogonek;
position = "{283, 0}";
},
{
name = top;
position = "{167, 704}";
}
);
guideLines = (
{
position = "{0, 200}";
showMeasurement = 1;
}
);
layerId = "4605B8F7-B96C-4225-97D4-41F6E85C553E";
paths = (
{
closed = 1;
nodes = (
"50 704 LINE",
"50 0 LINE",
"283 0 LINE",
"283 704 LINE"
);
}
);
width = 333;
},
{
anchors = (
{
name = bottom;
position = "{159, 0}";
},
{
name = ogonek;
position = "{239, 0}";
},
{
name = top;
position = "{158, 704}";
}
);
layerId = "17687776-AAFA-4856-A5EB-4A2EB08551C8";
paths = (
{
closed = 1;
nodes = (
"77 704 LINE",
"77 0 LINE",
"239 0 LINE",
"239 704 LINE"
);
}
);
width = 315;
}
);
leftKerningGroup = I;
leftMetricsKey = H;
rightKerningGroup = I;
rightMetricsKey = H;
unicode = 0049;
},
{
color = 5;
glyphname = J;
layers = (
{
anchors = (
{
name = bottom;
position = "{249, 0}";
},
{
name = ogonek;
position = "{308, 0}";
},
{
name = top;
position = "{430, 704}";
}
);
color = 9;
layerId = "4A17B37A-CBFD-40E5-9E02-2080A0E1F76C";
paths = (
{
closed = 1;
nodes = (
"390 704 LINE",
"390 260 LINE SMOOTH",
"390 166 OFFCURVE",
"372 67 OFFCURVE",
"232 67 CURVE SMOOTH",
"126 67 OFFCURVE",
"89 133 OFFCURVE",
"106 249 CURVE",
"27 232 LINE",
"0 87 OFFCURVE",
"76 -11 OFFCURVE",
"235 -11 CURVE SMOOTH",
"383 -11 OFFCURVE",
"472 83 OFFCURVE",
"472 241 CURVE SMOOTH",
"472 704 LINE"
);
}
);
width = 547;
},
{
anchors = (
{
name = bottom;
position = "{246, 0}";
},
{
name = ogonek;
position = "{305, 0}";
},
{
name = top;
position = "{437, 704}";
}
);
color = 9;
layerId = "1C7CD022-87C7-4E11-B656-E47B18819458";
paths = (
{
closed = 1;
nodes = (
"429 704 LINE",
"429 223 LINE SMOOTH",
"429 90 OFFCURVE",
"365 4 OFFCURVE",
"239 4 CURVE SMOOTH",
"111 4 OFFCURVE",
"45 81 OFFCURVE",
"64 222 CURVE",
"47 213 LINE",
"28 79 OFFCURVE",
"98 -11 OFFCURVE",
"239 -11 CURVE SMOOTH",
"376 -11 OFFCURVE",
"446 80 OFFCURVE",
"446 223 CURVE SMOOTH",
"446 704 LINE"
);
}
);
width = 514;
},
{
anchors = (
{
name = bottom;
position = "{318, 0}";
},
{
name = ogonek;
position = "{401, 0}";
},
{
name = top;
position = "{508, 704}";
}
);
layerId = "4605B8F7-B96C-4225-97D4-41F6E85C553E";
paths = (
{
closed = 1;
nodes = (
"392 704 LINE",
"392 328 LINE SMOOTH",
"392 254 OFFCURVE",
"382 195 OFFCURVE",
"312 195 CURVE SMOOTH",
"249 195 OFFCURVE",
"234 255 OFFCURVE",
"241 333 CURVE",
"12 296 LINE",
"-5 135 OFFCURVE",
"68 -11 OFFCURVE",
"301 -11 CURVE SMOOTH",
"509 -11 OFFCURVE",
"625 97 OFFCURVE",
"625 303 CURVE SMOOTH",
"625 704 LINE"
);
}
);
width = 667;
},
{
anchors = (
{
name = bottom;
position = "{294, 0}";
},
{
name = ogonek;
position = "{365, 0}";
},
{
name = top;
position = "{481, 704}";
}
);
layerId = "17687776-AAFA-4856-A5EB-4A2EB08551C8";
paths = (
{
closed = 1;
nodes = (
"399 704 LINE",
"399 285 LINE SMOOTH",
"399 198 OFFCURVE",
"382 136 OFFCURVE",
"299 136 CURVE SMOOTH",
"207 136 OFFCURVE",
"186 189 OFFCURVE",
"193 307 CURVE",
"37 276 LINE",
"13 114 OFFCURVE",
"94 -11 OFFCURVE",
"287 -11 CURVE SMOOTH",
"465 -11 OFFCURVE",
"560 86 OFFCURVE",
"560 265 CURVE SMOOTH",
"560 704 LINE"
);
}
);
width = 625;
}
);
leftKerningGroup = J;
rightKerningGroup = U;
rightMetricsKey = U;
unicode = 004A;
},
{
color = 5;
glyphname = K;
layers = (
{
anchors = (
{
name = bottom;
position = "{369, 0}";
},
{
name = ogonek;
position = "{640, 0}";
},
{
name = top;
position = "{349, 704}";
}
);
color = 9;
layerId = "4A17B37A-CBFD-40E5-9E02-2080A0E1F76C";
paths = (
{
closed = 1;
nodes = (
"516 704 LINE",
"131 288 LINE",
"131 180 LINE",
"326 389 LINE",
"335 396 LINE",
"619 704 LINE"
);
},
{
closed = 1;
nodes = (
"88 704 LINE",
"88 0 LINE",
"171 0 LINE",
"171 704 LINE"
);
},
{
closed = 1;
nodes = (
"275 393 LINE",
"539 0 LINE",
"640 0 LINE",
"339 444 LINE"
);
}
);
width = 633;
},
{
anchors = (
{
name = bottom;
position = "{319, 0}";
},
{
name = ogonek;
position = "{559, 0}";
},
{
name = top;
position = "{319, 704}";
}
);
color = 9;
layerId = "1C7CD022-87C7-4E11-B656-E47B18819458";
paths = (
{
closed = 1;
nodes = (
"527 704 LINE",
"91 262 LINE",
"91 241 LINE",
"264 415 LINE",
"267 417 LINE",
"548 704 LINE"
);
},
{
closed = 1;
nodes = (
"84 704 LINE",
"84 0 LINE",
"101 0 LINE",
"101 704 LINE"
);
},
{
closed = 1;
nodes = (
"256 416 LINE",
"539 0 LINE",
"559 0 LINE",
"267 431 LINE"
);
}
);
width = 568;
},
{
anchors = (
{
name = bottom;
position = "{372, 0}";
},
{
name = ogonek;
position = "{756, 0}";
},
{
name = top;
position = "{373, 704}";
}
);
layerId = "4605B8F7-B96C-4225-97D4-41F6E85C553E";
paths = (
{
closed = 1;
nodes = (
"479 704 LINE",
"171 313 LINE",
"219 98 LINE",
"380 302 LINE",
"393 275 LINE",
"735 704 LINE"
);
},
{
closed = 1;
nodes = (
"50 704 LINE",
"50 0 LINE",
"272 0 LINE",
"272 704 LINE"
);
},
{
closed = 1;
nodes = (
"299 337 LINE",
"490 0 LINE",
"756 0 LINE",
"477 461 LINE"
);
}
);
width = 746;
},
{
anchors = (
{
name = bottom;
position = "{381, 0}";
},
{
name = ogonek;
position = "{708, 0}";
},
{
name = top;
position = "{370, 704}";
}
);
layerId = "17687776-AAFA-4856-A5EB-4A2EB08551C8";
paths = (
{
closed = 1;
nodes = (
"512 704 LINE",
"169 288 LINE",
"190 115 LINE",
"365 321 LINE",
"373 315 LINE",
"697 704 LINE"
);
},
{
closed = 1;
nodes = (
"77 704 LINE",
"77 0 LINE",
"237 0 LINE",
"237 704 LINE"
);
},
{
closed = 1;
nodes = (
"299 368 LINE",
"516 0 LINE",
"708 0 LINE",
"417 466 LINE"
);
}
);
width = 708;
}
);
leftKerningGroup = I;
leftMetricsKey = H;
rightKerningGroup = K;
unicode = 004B;
},
{
color = 5;
glyphname = L;
layers = (
{
anchors = (
{
name = bottom;
position = "{357, 0}";
},
{
name = center;
position = "{397, 378}";
},
{
name = ogonek;
position = "{576, 0}";
},
{
name = top;
position = "{130, 704}";
},
{
name = topright;
position = "{318, 704}";
}
);
color = 9;
layerId = "4A17B37A-CBFD-40E5-9E02-2080A0E1F76C";
paths = (
{
closed = 1;
nodes = (
"171 704 LINE",
"88 704 LINE",
"88 0 LINE",
"576 0 LINE",
"576 77 LINE",
"171 77 LINE"
);
}
);
width = 596;
},
{
anchors = (
{
name = bottom;
position = "{331, 0}";
},
{
name = center;
position = "{360, 366}";
},
{
name = ogonek;
position = "{544, 0}";
},
{
name = top;
position = "{92, 704}";
},
{
name = topright;
position = "{321, 704}";
}
);
color = 9;
layerId = "1C7CD022-87C7-4E11-B656-E47B18819458";
paths = (
{
closed = 1;
nodes = (
"101 704 LINE",
"84 704 LINE",
"84 0 LINE",
"544 0 LINE",
"544 14 LINE",
"101 14 LINE"
);
}
);
width = 548;
},
{
anchors = (
{
name = bottom;
position = "{336, 0}";
},
{
name = center;
position = "{396, 409}";
},
{
name = ogonek;
position = "{611, 0}";
},
{
name = top;
position = "{167, 704}";
},
{
name = topright;
position = "{371, 704}";
}
);
layerId = "4605B8F7-B96C-4225-97D4-41F6E85C553E";
paths = (
{
closed = 1;
nodes = (
"283 704 LINE",
"50 704 LINE",
"50 0 LINE",
"611 0 LINE",
"611 206 LINE",
"283 206 LINE"
);
}
);
width = 634;
},
{
anchors = (
{
name = bottom;
position = "{356, 0}";
},
{
name = center;
position = "{406, 399}";
},
{
name = ogonek;
position = "{602, 0}";
},
{
name = top;
position = "{158, 704}";
},
{
name = topright;
position = "{354, 704}";
}
);
layerId = "17687776-AAFA-4856-A5EB-4A2EB08551C8";
paths = (
{
closed = 1;
nodes = (
"239 704 LINE",
"77 704 LINE",
"77 0 LINE",
"602 0 LINE",
"602 145 LINE",
"239 145 LINE"
);
}
);
width = 629;
}
);
leftKerningGroup = I;
leftMetricsKey = H;
rightKerningGroup = L;
unicode = 004C;
},
{
color = 5;
glyphname = Lslash;
layers = (
{
components = (
{
name = L;
transform = "{1, 0, 0, 1, 30, 0}";
}
);
layerId = "4A17B37A-CBFD-40E5-9E02-2080A0E1F76C";
paths = (
{
closed = 1;
nodes = (
"3 266 LINE",
"3 186 LINE",
"395 418 LINE",
"395 498 LINE"
);
}
);
width = 626;
},
{
color = 0;
components = (
{
alignment = -1;
name = L;
transform = "{1, 0, 0, 1, 11, 0}";
}
);
layerId = "1C7CD022-87C7-4E11-B656-E47B18819458";
paths = (
{
closed = 1;
nodes = (
"-6 232 LINE",
"-6 212 LINE",
"319 419 LINE",
"319 439 LINE"
);
}
);
width = 559;
},
{
components = (
{
alignment = -1;
name = L;
transform = "{1, 0, 0, 1, 90, 0}";
}
);
layerId = "4605B8F7-B96C-4225-97D4-41F6E85C553E";
paths = (
{
closed = 1;
nodes = (
"26 331 LINE",
"26 140 LINE",
"539 429 LINE",
"539 620 LINE"
);
}
);
width = 724;
},
{
components = (
{
alignment = -1;
name = L;
transform = "{1, 0, 0, 1, 62, 0}";
}
);
layerId = "17687776-AAFA-4856-A5EB-4A2EB08551C8";
paths = (
{
closed = 1;
nodes = (
"24 300 LINE",
"24 162 LINE",
"481 424 LINE",
"481 563 LINE"
);
}
);
width = 691;
}
);
leftKerningGroup = I;
rightKerningGroup = L;
rightMetricsKey = L;
unicode = 0141;
},
{
color = 5;
glyphname = M;
layers = (
{
anchors = (
{
name = bottom;
position = "{429, 0}";
},
{
name = ogonek;
position = "{769, 0}";
},
{
name = top;
position = "{429, 704}";
}
);
color = 9;
layerId = "4A17B37A-CBFD-40E5-9E02-2080A0E1F76C";
paths = (
{
closed = 1;
nodes = (
"169 0 LINE",
"169 593 LINE",
"386 0 LINE",
"474 0 LINE",
"686 600 LINE",
"686 0 LINE",
"769 0 LINE",
"769 704 LINE",
"639 704 LINE",
"434 110 LINE",
"220 704 LINE",
"88 704 LINE",
"88 0 LINE"
);
}
);
width = 857;
},
{
anchors = (
{
name = bottom;
position = "{398, 0}";
},
{
name = ogonek;
position = "{711, 0}";
},
{
name = top;
position = "{398, 704}";
}
);
color = 9;
layerId = "1C7CD022-87C7-4E11-B656-E47B18819458";
paths = (
{
closed = 1;
nodes = (
"101 0 LINE",
"101 684 LINE",
"387 0 LINE",
"409 0 LINE",
"695 686 LINE",
"695 0 LINE",
"711 0 LINE",
"711 704 LINE",
"684 704 LINE",
"399 14 LINE",
"111 704 LINE",
"84 704 LINE",
"84 0 LINE"
);
}
);
width = 795;
},
{
anchors = (
{
name = bottom;
position = "{493, 0}";
},
{
name = ogonek;
position = "{939, 0}";
},
{
name = top;
position = "{503, 715}";
}
);
layerId = "4605B8F7-B96C-4225-97D4-41F6E85C553E";
leftMetricsKey = "=I";
rightMetricsKey = "=I";
paths = (
{
closed = 1;
nodes = (
"260 0 LINE",
"260 476 LINE",
"391 0 LINE",
"596 0 LINE",
"727 476 LINE",
"727 0 LINE",
"949 0 LINE",
"949 704 LINE",
"609 704 LINE",
"501 275 LINE",
"402 704 LINE",
"50 704 LINE",
"50 0 LINE"
);
}
);
width = 999;
},
{
anchors = (
{
name = bottom;
position = "{470, 0}";
},
{
name = ogonek;
position = "{863, 0}";
},
{
name = top;
position = "{473, 706}";
}
);
layerId = "17687776-AAFA-4856-A5EB-4A2EB08551C8";
paths = (
{
closed = 1;
nodes = (
"227 0 LINE",
"227 538 LINE",
"388 0 LINE",
"541 0 LINE",
"704 532 LINE",
"704 0 LINE",
"865 0 LINE",
"865 704 LINE",
"624 704 LINE",
"469 186 LINE",
"322 704 LINE",
"77 704 LINE",
"77 0 LINE"
);
}
);
width = 941;
}
);
leftKerningGroup = I;
leftMetricsKey = H;
rightKerningGroup = I;
rightMetricsKey = H;
unicode = 004D;
},
{
color = 5;
glyphname = N;
layers = (
{
anchors = (
{
name = bottom;
position = "{394, 0}";
},
{
name = ogonek;
position = "{641, 0}";
},
{
name = top;
position = "{369, 704}";
}
);
color = 9;
layerId = "4A17B37A-CBFD-40E5-9E02-2080A0E1F76C";
paths = (
{
closed = 1;
nodes = (
"169 0 LINE",
"169 608 LINE",
"521 0 LINE",
"641 0 LINE",
"641 704 LINE",
"560 704 LINE",
"560 96 LINE",
"209 704 LINE",
"88 704 LINE",
"88 0 LINE"
);
}
);
width = 729;
},
{
anchors = (
{
name = bottom;
position = "{349, 0}";
},
{
name = ogonek;
position = "{613, 0}";
},
{
name = top;
position = "{355, 704}";
}
);
color = 9;
layerId = "1C7CD022-87C7-4E11-B656-E47B18819458";
paths = (
{
closed = 1;
nodes = (
"101 0 LINE",
"101 683 LINE",
"592 0 LINE",
"613 0 LINE",
"613 704 LINE",
"597 704 LINE",
"597 21 LINE",
"106 704 LINE",
"84 704 LINE",
"84 0 LINE"
);
}
);
width = 697;
},
{
anchors = (
{
name = bottom;
position = "{395, 0}";
},
{
name = ogonek;
position = "{743, 0}";
},
{
name = top;
position = "{407, 704}";
}
);
layerId = "4605B8F7-B96C-4225-97D4-41F6E85C553E";
paths = (
{
closed = 1;
nodes = (
"258 0 LINE",
"258 443 LINE",
"476 0 LINE",
"743 0 LINE",
"743 704 LINE",
"535 704 LINE",
"535 309 LINE",
"343 704 LINE",
"50 704 LINE",
"50 0 LINE"
);
}
);
width = 793;
},
{
anchors = (
{
name = bottom;
position = "{403, 0}";
},
{
name = ogonek;
position = "{697, 0}";
},
{
name = top;
position = "{391, 704}";
}
);
layerId = "17687776-AAFA-4856-A5EB-4A2EB08551C8";
paths = (
{
closed = 1;
nodes = (
"223 0 LINE",
"223 509 LINE",
"515 0 LINE",
"697 0 LINE",
"697 704 LINE",
"551 704 LINE",
"551 224 LINE",
"279 704 LINE",
"77 704 LINE",
"77 0 LINE"
);
}
);
width = 773;
},
{
anchors = (
{
name = bottom;
position = "{398, 0}";
},
{
name = ogonek;
position = "{725, 0}";
},
{
name = top;
position = "{401, 704}";
}
);
associatedMasterId = "17687776-AAFA-4856-A5EB-4A2EB08551C8";
background = {
paths = (
{
closed = 1;
nodes = (
"255 0 LINE",
"255 479 LINE",
"482 0 LINE",
"741 0 LINE",
"741 730 LINE",
"547 730 LINE",
"547 260 LINE",
"325 730 LINE",
"61 730 LINE",
"61 0 LINE"
);
}
);
};
layerId = "1032CDD4-4065-4905-8123-41BED33E282D";
name = "{202}";
paths = (
{
closed = 1;
nodes = (
"249 0 LINE",
"249 455 LINE",
"484 0 LINE",
"725 0 LINE",
"725 704 LINE",
"537 704 LINE",
"537 278 LINE",
"322 704 LINE",
"61 704 LINE",
"61 0 LINE"
);
}
);
width = 785;
}
);
leftKerningGroup = I;
leftMetricsKey = H;
rightKerningGroup = I;
rightMetricsKey = H;
unicode = 004E;
},
{
color = 5;
glyphname = O;
layers = (
{
anchors = (
{
name = bottom;
position = "{376, 0}";
},
{
name = center;
position = "{376, 352}";
},
{
name = ogonek;
position = "{484, 6}";
},
{
name = top;
position = "{376, 704}";
},
{
name = topleft;
position = "{-2, 704}";
},
{
name = topright;
position = "{560, 704}";
}
);
color = 9;
layerId = "4A17B37A-CBFD-40E5-9E02-2080A0E1F76C";
paths = (
{
closed = 1;
nodes = (
"174 715 OFFCURVE",
"48 574 OFFCURVE",
"48 352 CURVE SMOOTH",
"48 130 OFFCURVE",
"174 -11 OFFCURVE",
"376 -11 CURVE SMOOTH",
"575 -11 OFFCURVE",
"700 129 OFFCURVE",
"700 352 CURVE SMOOTH",
"700 575 OFFCURVE",
"575 715 OFFCURVE",
"376 715 CURVE SMOOTH"
);
},
{
closed = 1;
nodes = (
"521 637 OFFCURVE",
"614 530 OFFCURVE",
"614 352 CURVE SMOOTH",
"614 174 OFFCURVE",
"521 67 OFFCURVE",
"376 67 CURVE SMOOTH",
"227 67 OFFCURVE",
"134 174 OFFCURVE",
"134 352 CURVE SMOOTH",
"134 530 OFFCURVE",
"227 637 OFFCURVE",
"376 637 CURVE SMOOTH"
);
}
);
width = 748;
},
{
anchors = (
{
name = bottom;
position = "{362, 0}";
},
{
name = center;
position = "{362, 352}";
},
{
name = ogonek;
position = "{443, 0}";
},
{
name = top;
position = "{362, 704}";
},
{
name = topleft;
position = "{2, 704}";
},
{
name = topright;
position = "{544, 704}";
}
);
color = 9;
layerId = "1C7CD022-87C7-4E11-B656-E47B18819458";
paths = (
{
closed = 1;
nodes = (
"164 715 OFFCURVE",
"41 575 OFFCURVE",
"41 352 CURVE SMOOTH",
"41 129 OFFCURVE",
"164 -11 OFFCURVE",
"362 -11 CURVE SMOOTH",
"560 -11 OFFCURVE",
"683 129 OFFCURVE",
"683 352 CURVE SMOOTH",
"683 575 OFFCURVE",
"560 715 OFFCURVE",
"362 715 CURVE SMOOTH"
);
},
{
closed = 1;
nodes = (
"548 700 OFFCURVE",
"666 565 OFFCURVE",
"666 352 CURVE SMOOTH",
"666 139 OFFCURVE",
"548 4 OFFCURVE",
"362 4 CURVE SMOOTH",
"175 4 OFFCURVE",
"58 139 OFFCURVE",
"58 352 CURVE SMOOTH",
"58 565 OFFCURVE",
"175 700 OFFCURVE",
"362 700 CURVE SMOOTH"
);
}
);
width = 724;
},
{
anchors = (
{
name = bottom;
position = "{384, 0}";
},
{
name = center;
position = "{384, 352}";
},
{
name = ogonek;
position = "{519, 10}";
},
{
name = top;
position = "{384, 704}";
},
{
name = topleft;
position = "{16, 704}";
},
{
name = topright;
position = "{598, 704}";
}
);
layerId = "4605B8F7-B96C-4225-97D4-41F6E85C553E";
paths = (
{
closed = 1;
nodes = (
"175 715 OFFCURVE",
"29 583 OFFCURVE",
"29 352 CURVE SMOOTH",
"29 121 OFFCURVE",
"175 -11 OFFCURVE",
"384 -11 CURVE SMOOTH",
"594 -11 OFFCURVE",
"738 121 OFFCURVE",
"738 352 CURVE SMOOTH",
"738 583 OFFCURVE",
"594 715 OFFCURVE",
"384 715 CURVE SMOOTH"
);
},
{
closed = 1;
nodes = (
"462 509 OFFCURVE",
"500 459 OFFCURVE",
"500 352 CURVE SMOOTH",
"500 245 OFFCURVE",
"462 195 OFFCURVE",
"384 195 CURVE SMOOTH",
"307 195 OFFCURVE",
"266 246 OFFCURVE",
"266 352 CURVE SMOOTH",
"266 458 OFFCURVE",
"307 509 OFFCURVE",
"384 509 CURVE SMOOTH"
);
}
);
width = 767;
},
{
anchors = (
{
name = bottom;
position = "{389, 0}";
},
{
name = center;
position = "{389, 352}";
},
{
name = ogonek;
position = "{513, 9}";
},
{
name = top;
position = "{389, 704}";
},
{
name = topleft;
position = "{16, 704}";
},
{
name = topright;
position = "{589, 704}";
}
);
layerId = "17687776-AAFA-4856-A5EB-4A2EB08551C8";
paths = (
{
closed = 1;
nodes = (
"180 715 OFFCURVE",
"47 580 OFFCURVE",
"47 352 CURVE SMOOTH",
"47 125 OFFCURVE",
"180 -11 OFFCURVE",
"389 -11 CURVE SMOOTH",
"598 -11 OFFCURVE",
"729 125 OFFCURVE",
"729 352 CURVE SMOOTH",
"729 580 OFFCURVE",
"598 715 OFFCURVE",
"389 715 CURVE SMOOTH"
);
},
{
closed = 1;
nodes = (
"500 568 OFFCURVE",
"564 493 OFFCURVE",
"564 352 CURVE SMOOTH",
"564 210 OFFCURVE",
"500 136 OFFCURVE",
"389 136 CURVE SMOOTH",
"277 136 OFFCURVE",
"214 211 OFFCURVE",
"214 352 CURVE SMOOTH",
"214 492 OFFCURVE",
"277 568 OFFCURVE",
"389 568 CURVE SMOOTH"
);
}
);
width = 776;
}
);
leftKerningGroup = O;
rightKerningGroup = O;
unicode = 004F;
},
{
color = 5;
glyphname = Oslash;
layers = (
{
color = 0;
components = (
{
name = O;
}
);
layerId = "1C7CD022-87C7-4E11-B656-E47B18819458";
paths = (
{
closed = 1;
nodes = (
"94 -10 LINE",
"650 714 LINE",
"631 714 LINE",
"75 -10 LINE"
);
}
);
width = 724;
},
{
components = (
{
name = O;
}
);
layerId = "4A17B37A-CBFD-40E5-9E02-2080A0E1F76C";
paths = (
{
closed = 1;
nodes = (
"153 -8 LINE",
"677 712 LINE",
"596 712 LINE",
"72 -8 LINE"
);
}
);
width = 748;
},
{
components = (
{
name = O;
}
);
layerId = "4605B8F7-B96C-4225-97D4-41F6E85C553E";
paths = (
{
closed = 1;
nodes = (
"161 -6 LINE",
"735 710 LINE",
"606 710 LINE",
"32 -6 LINE"
);
}
);
width = 767;
},
{
components = (
{
alignment = -1;
name = O;
}
);
layerId = "17687776-AAFA-4856-A5EB-4A2EB08551C8";
paths = (
{
closed = 1;
nodes = (
"171 -7 LINE",
"713 711 LINE",
"607 711 LINE",
"64 -7 LINE"
);
}
);
width = 776;
}
);
leftKerningGroup = O;
leftMetricsKey = O;
widthMetricsKey = O;
rightKerningGroup = O;
unicode = 00D8;
},
{
color = 5;
glyphname = OE;
layers = (
{
anchors = (
{
name = bottom;
position = "{609, 0}";
},
{
name = ogonek;
position = "{1081, 0}";
},
{
name = top;
position = "{609, 704}";
}
);
color = 9;
layerId = "4A17B37A-CBFD-40E5-9E02-2080A0E1F76C";
paths = (
{
closed = 1;
nodes = (
"677 319 LINE",
"976 319 LINE",
"976 395 LINE",
"677 395 LINE",
"677 627 LINE",
"1065 627 LINE",
"1065 704 LINE",
"602 704 LINE",
"602 594 LINE",
"552 672 OFFCURVE",
"472 715 OFFCURVE",
"375 715 CURVE SMOOTH",
"169 715 OFFCURVE",
"48 574 OFFCURVE",
"48 352 CURVE SMOOTH",
"48 129 OFFCURVE",
"172 -11 OFFCURVE",
"370 -11 CURVE SMOOTH",
"471 -11 OFFCURVE",
"552 34 OFFCURVE",
"602 113 CURVE",
"602 0 LINE",
"1081 0 LINE",
"1081 77 LINE",
"677 77 LINE"
);
},
{
closed = 1;
nodes = (
"223 67 OFFCURVE",
"134 174 OFFCURVE",
"134 352 CURVE SMOOTH",
"134 530 OFFCURVE",
"223 637 OFFCURVE",
"375 637 CURVE SMOOTH",
"510 637 OFFCURVE",
"600 532 OFFCURVE",
"600 352 CURVE SMOOTH",
"600 172 OFFCURVE",
"510 67 OFFCURVE",
"375 67 CURVE SMOOTH"
);
}
);
width = 1115;
},
{
anchors = (
{
name = bottom;
position = "{591, 0}";
},
{
name = ogonek;
position = "{1069, 0}";
},
{
name = top;
position = "{591, 704}";
}
);
color = 9;
layerId = "1C7CD022-87C7-4E11-B656-E47B18819458";
paths = (
{
closed = 1;
nodes = (
"629 352 LINE",
"975 352 LINE",
"975 366 LINE",
"629 366 LINE",
"629 690 LINE",
"1051 690 LINE",
"1051 704 LINE",
"613 704 LINE",
"613 504 LINE",
"581 645 OFFCURVE",
"489 715 OFFCURVE",
"341 715 CURVE SMOOTH",
"160 715 OFFCURVE",
"41 575 OFFCURVE",
"41 352 CURVE SMOOTH",
"41 129 OFFCURVE",
"160 -11 OFFCURVE",
"341 -11 CURVE SMOOTH",
"489 -11 OFFCURVE",
"581 59 OFFCURVE",
"613 200 CURVE",
"613 0 LINE",
"1069 0 LINE",
"1069 14 LINE",
"629 14 LINE"
);
},
{
closed = 1;
nodes = (
"170 4 OFFCURVE",
"58 139 OFFCURVE",
"58 352 CURVE SMOOTH",
"58 565 OFFCURVE",
"170 700 OFFCURVE",
"341 700 CURVE SMOOTH",
"527 700 OFFCURVE",
"613 586 OFFCURVE",
"613 352 CURVE SMOOTH",
"613 118 OFFCURVE",
"527 4 OFFCURVE",
"341 4 CURVE SMOOTH"
);
}
);
width = 1084;
},
{
anchors = (
{
name = bottom;
position = "{601, 0}";
},
{
name = ogonek;
position = "{1098, 0}";
},
{
name = top;
position = "{601, 704}";
}
);
layerId = "4605B8F7-B96C-4225-97D4-41F6E85C553E";
paths = (
{
closed = 1;
nodes = (
"748 265 LINE",
"1019 265 LINE",
"1019 437 LINE",
"748 437 LINE",
"748 520 LINE",
"1086 520 LINE",
"1086 704 LINE",
"578 704 LINE",
"578 628 LINE",
"537 680 OFFCURVE",
"470 715 OFFCURVE",
"364 715 CURVE SMOOTH",
"181 715 OFFCURVE",
"29 581 OFFCURVE",
"29 352 CURVE SMOOTH",
"29 123 OFFCURVE",
"179 -11 OFFCURVE",
"363 -11 CURVE SMOOTH",
"464 -11 OFFCURVE",
"536 22 OFFCURVE",
"578 76 CURVE",
"578 0 LINE",
"1098 0 LINE",
"1098 184 LINE",
"748 184 LINE"
);
},
{
closed = 1;
nodes = (
"309 195 OFFCURVE",
"266 247 OFFCURVE",
"266 352 CURVE SMOOTH",
"266 457 OFFCURVE",
"309 509 OFFCURVE",
"379 509 CURVE SMOOTH",
"457 509 OFFCURVE",
"495 457 OFFCURVE",
"495 352 CURVE SMOOTH",
"495 247 OFFCURVE",
"457 195 OFFCURVE",
"379 195 CURVE SMOOTH"
);
}
);
width = 1122;
},
{
anchors = (
{
name = bottom;
position = "{614, 0}";
},
{
name = ogonek;
position = "{1091, 0}";
},
{
name = top;
position = "{614, 704}";
}
);
layerId = "17687776-AAFA-4856-A5EB-4A2EB08551C8";
paths = (
{
closed = 1;
nodes = (
"719 287 LINE",
"998 287 LINE",
"998 420 LINE",
"719 420 LINE",
"719 563 LINE",
"1076 563 LINE",
"1076 704 LINE",
"598 704 LINE",
"598 620 LINE",
"548 679 OFFCURVE",
"474 715 OFFCURVE",
"379 715 CURVE SMOOTH",
"178 715 OFFCURVE",
"47 579 OFFCURVE",
"47 352 CURVE SMOOTH",
"47 125 OFFCURVE",
"179 -11 OFFCURVE",
"376 -11 CURVE SMOOTH",
"470 -11 OFFCURVE",
"547 23 OFFCURVE",
"598 87 CURVE",
"598 0 LINE",
"1091 0 LINE",
"1091 141 LINE",
"719 141 LINE"
);
},
{
closed = 1;
nodes = (
"274 136 OFFCURVE",
"213 211 OFFCURVE",
"213 352 CURVE SMOOTH",
"213 493 OFFCURVE",
"274 569 OFFCURVE",
"386 569 CURVE SMOOTH",
"491 569 OFFCURVE",
"554 493 OFFCURVE",
"554 352 CURVE SMOOTH",
"554 211 OFFCURVE",
"491 136 OFFCURVE",
"386 136 CURVE SMOOTH"
);
}
);
width = 1123;
}
);
leftKerningGroup = O;
leftMetricsKey = O;
rightKerningGroup = E;
rightMetricsKey = E;
unicode = 0152;
},
{
color = 5;
glyphname = P;
layers = (
{
anchors = (
{
name = bottom;
position = "{130, 0}";
},
{
name = ogonek;
position = "{171, 0}";
},
{
name = top;
position = "{308, 704}";
}
);
color = 9;
layerId = "4A17B37A-CBFD-40E5-9E02-2080A0E1F76C";
paths = (
{
closed = 1;
nodes = (
"88 704 LINE",
"88 0 LINE",
"171 0 LINE",
"171 276 LINE",
"361 276 LINE SMOOTH",
"505 276 OFFCURVE",
"592 359 OFFCURVE",
"592 490 CURVE SMOOTH",
"592 621 OFFCURVE",
"505 704 OFFCURVE",
"361 704 CURVE SMOOTH"
);
},
{
closed = 1;
nodes = (
"171 354 LINE",
"171 627 LINE",
"350 627 LINE SMOOTH",
"449 627 OFFCURVE",
"505 589 OFFCURVE",
"505 490 CURVE SMOOTH",
"505 391 OFFCURVE",
"449 354 OFFCURVE",
"350 354 CURVE SMOOTH"
);
}
);
width = 617;
},
{
anchors = (
{
name = bottom;
position = "{92, 0}";
},
{
name = ogonek;
position = "{101, 0}";
},
{
name = top;
position = "{271, 704}";
}
);
color = 9;
layerId = "1C7CD022-87C7-4E11-B656-E47B18819458";
paths = (
{
closed = 1;
nodes = (
"84 704 LINE",
"84 0 LINE",
"101 0 LINE",
"101 307 LINE",
"311 307 LINE SMOOTH",
"462 307 OFFCURVE",
"551 380 OFFCURVE",
"551 504 CURVE SMOOTH",
"551 630 OFFCURVE",
"462 704 OFFCURVE",
"311 704 CURVE SMOOTH"
);
},
{
closed = 1;
nodes = (
"101 321 LINE",
"101 690 LINE",
"311 690 LINE SMOOTH",
"451 690 OFFCURVE",
"534 620 OFFCURVE",
"534 504 CURVE SMOOTH",
"534 390 OFFCURVE",
"451 321 OFFCURVE",
"311 321 CURVE SMOOTH"
);
}
);
width = 579;
},
{
anchors = (
{
name = bottom;
position = "{168, 0}";
},
{
name = ogonek;
position = "{283, 0}";
},
{
name = top;
position = "{348, 704}";
}
);
guideLines = (
{
angle = 90;
position = "{325, 102}";
showMeasurement = 1;
}
);
layerId = "4605B8F7-B96C-4225-97D4-41F6E85C553E";
paths = (
{
closed = 1;
nodes = (
"50 704 LINE",
"50 0 LINE",
"277 0 LINE",
"277 178 LINE",
"417 178 LINE SMOOTH",
"595 178 OFFCURVE",
"700 273 OFFCURVE",
"700 441 CURVE SMOOTH",
"700 608 OFFCURVE",
"595 704 OFFCURVE",
"417 704 CURVE SMOOTH"
);
},
{
closed = 1;
nodes = (
"277 367 LINE",
"277 514 LINE",
"381 514 LINE SMOOTH",
"438 514 OFFCURVE",
"467 489 OFFCURVE",
"467 441 CURVE SMOOTH",
"467 392 OFFCURVE",
"438 367 OFFCURVE",
"381 367 CURVE SMOOTH"
);
}
);
width = 713;
},
{
anchors = (
{
name = bottom;
position = "{159, 0}";
},
{
name = ogonek;
position = "{239, 0}";
},
{
name = top;
position = "{339, 704}";
}
);
layerId = "17687776-AAFA-4856-A5EB-4A2EB08551C8";
paths = (
{
closed = 1;
nodes = (
"77 704 LINE",
"77 0 LINE",
"239 0 LINE",
"239 227 LINE",
"393 227 LINE SMOOTH",
"554 227 OFFCURVE",
"648 314 OFFCURVE",
"648 466 CURVE SMOOTH",
"648 616 OFFCURVE",
"555 704 OFFCURVE",
"393 704 CURVE SMOOTH"
);
},
{
closed = 1;
nodes = (
"239 369 LINE",
"239 562 LINE",
"366 562 LINE SMOOTH",
"441 562 OFFCURVE",
"484 535 OFFCURVE",
"484 466 CURVE SMOOTH",
"484 396 OFFCURVE",
"442 369 OFFCURVE",
"366 369 CURVE SMOOTH"
);
}
);
width = 681;
}
);
leftKerningGroup = I;
leftMetricsKey = H;
unicode = 0050;
},
{
color = 5;
glyphname = Thorn;
layers = (
{
anchors = (
{
name = bottom;
position = "{130, 0}";
},
{
name = ogonek;
position = "{171, 0}";
},
{
name = top;
position = "{130, 704}";
}
);
color = 9;
layerId = "4A17B37A-CBFD-40E5-9E02-2080A0E1F76C";
paths = (
{
closed = 1;
nodes = (
"130 579 LINE",
"130 500 LINE",
"331 500 LINE SMOOTH",
"443 500 OFFCURVE",
"498 454 OFFCURVE",
"498 360 CURVE SMOOTH",
"498 255 OFFCURVE",
"431 220 OFFCURVE",
"331 220 CURVE SMOOTH",
"130 220 LINE",
"130 142 LINE",
"323 142 LINE SMOOTH",
"496 142 OFFCURVE",
"585 220 OFFCURVE",
"585 360 CURVE SMOOTH",
"585 501 OFFCURVE",
"496 579 OFFCURVE",
"323 579 CURVE SMOOTH"
);
},
{
closed = 1;
nodes = (
"88 704 LINE",
"88 0 LINE",
"171 0 LINE",
"171 704 LINE"
);
}
);
width = 619;
},
{
anchors = (
{
name = bottom;
position = "{92, 0}";
},
{
name = ogonek;
position = "{101, 0}";
},
{
name = top;
position = "{92, 704}";
}
);
color = 9;
layerId = "1C7CD022-87C7-4E11-B656-E47B18819458";
paths = (
{
closed = 1;
nodes = (
"93 560 LINE",
"93 546 LINE",
"301 546 LINE SMOOTH",
"449 546 OFFCURVE",
"523 483 OFFCURVE",
"523 363 CURVE SMOOTH",
"523 242 OFFCURVE",
"449 179 OFFCURVE",
"301 179 CURVE SMOOTH",
"93 179 LINE",
"93 165 LINE",
"292 165 LINE SMOOTH",
"457 165 OFFCURVE",
"541 232 OFFCURVE",
"541 363 CURVE SMOOTH",
"541 493 OFFCURVE",
"457 560 OFFCURVE",
"292 560 CURVE SMOOTH"
);
},
{
closed = 1;
nodes = (
"84 704 LINE",
"84 0 LINE",
"101 0 LINE",
"101 704 LINE"
);
}
);
width = 566;
},
{
anchors = (
{
name = bottom;
position = "{168, 0}";
},
{
name = ogonek;
position = "{277, 0}";
},
{
name = top;
position = "{168, 704}";
}
);
layerId = "4605B8F7-B96C-4225-97D4-41F6E85C553E";
leftMetricsKey = "=I";
paths = (
{
closed = 1;
nodes = (
"167 614 LINE",
"167 424 LINE",
"399 424 LINE SMOOTH",
"444 424 OFFCURVE",
"470 404 OFFCURVE",
"470 362 CURVE SMOOTH",
"470 312 OFFCURVE",
"442 295 OFFCURVE",
"399 295 CURVE SMOOTH",
"167 295 LINE",
"167 105 LINE",
"434 105 LINE SMOOTH",
"606 105 OFFCURVE",
"702 192 OFFCURVE",
"702 360 CURVE SMOOTH",
"702 528 OFFCURVE",
"606 614 OFFCURVE",
"434 614 CURVE SMOOTH"
);
},
{
closed = 1;
nodes = (
"50 704 LINE",
"50 0 LINE",
"277 0 LINE",
"277 704 LINE"
);
}
);
width = 725;
},
{
anchors = (
{
name = bottom;
position = "{159, 0}";
},
{
name = ogonek;
position = "{239, 0}";
},
{
name = top;
position = "{159, 704}";
}
);
layerId = "17687776-AAFA-4856-A5EB-4A2EB08551C8";
paths = (
{
closed = 1;
nodes = (
"158 597 LINE",
"158 459 LINE",
"369 459 LINE SMOOTH",
"450 459 OFFCURVE",
"491 427 OFFCURVE",
"491 361 CURVE SMOOTH",
"491 292 OFFCURVE",
"450 261 OFFCURVE",
"369 261 CURVE SMOOTH",
"158 261 LINE",
"158 122 LINE",
"382 122 LINE SMOOTH",
"558 122 OFFCURVE",
"654 204 OFFCURVE",
"654 360 CURVE SMOOTH",
"654 516 OFFCURVE",
"558 597 OFFCURVE",
"382 597 CURVE SMOOTH"
);
},
{
closed = 1;
nodes = (
"77 704 LINE",
"77 0 LINE",
"239 0 LINE",
"239 704 LINE"
);
}
);
width = 693;
}
);
leftKerningGroup = I;
leftMetricsKey = H;
unicode = 00DE;
},
{
color = 5;
glyphname = Q;
layers = (
{
components = (
{
name = O;
}
);
layerId = "4A17B37A-CBFD-40E5-9E02-2080A0E1F76C";
paths = (
{
closed = 1;
nodes = (
"616 -216 OFFCURVE",
"671 -194 OFFCURVE",
"708 -165 CURVE",
"674 -97 LINE",
"648 -115 OFFCURVE",
"613 -138 OFFCURVE",
"550 -138 CURVE SMOOTH",
"479 -138 OFFCURVE",
"406 -108 OFFCURVE",
"406 17 CURVE SMOOTH",
"406 52 LINE",
"328 54 LINE",
"328 14 LINE SMOOTH",
"328 -158 OFFCURVE",
"434 -216 OFFCURVE",
"550 -216 CURVE SMOOTH"
);
}
);
width = 748;
},
{
color = 0;
components = (
{
alignment = -1;
name = O;
}
);
layerId = "1C7CD022-87C7-4E11-B656-E47B18819458";
paths = (
{
closed = 1;
nodes = (
"626 -216 OFFCURVE",
"668 -200 OFFCURVE",
"702 -174 CURVE",
"693 -158 LINE",
"659 -187 OFFCURVE",
"614 -200 OFFCURVE",
"567 -200 CURVE SMOOTH",
"449 -200 OFFCURVE",
"374 -126 OFFCURVE",
"374 -4 CURVE SMOOTH",
"374 2 LINE",
"358 2 LINE",
"358 -5 LINE SMOOTH",
"358 -144 OFFCURVE",
"441 -216 OFFCURVE",
"567 -216 CURVE SMOOTH"
);
}
);
width = 724;
},
{
components = (
{
alignment = -1;
name = O;
}
);
layerId = "4605B8F7-B96C-4225-97D4-41F6E85C553E";
paths = (
{
closed = 1;
nodes = (
"629 -231 OFFCURVE",
"694 -211 OFFCURVE",
"752 -185 CURVE",
"702 -12 LINE",
"666 -31 OFFCURVE",
"610 -49 OFFCURVE",
"555 -49 CURVE SMOOTH",
"499 -49 OFFCURVE",
"464 -33 OFFCURVE",
"464 27 CURVE SMOOTH",
"464 98 LINE",
"278 70 LINE",
"278 -10 LINE SMOOTH",
"278 -162 OFFCURVE",
"396 -231 OFFCURVE",
"552 -231 CURVE SMOOTH"
);
}
);
width = 767;
},
{
components = (
{
alignment = -1;
name = O;
}
);
layerId = "17687776-AAFA-4856-A5EB-4A2EB08551C8";
paths = (
{
closed = 1;
nodes = (
"634 -225 OFFCURVE",
"698 -200 OFFCURVE",
"736 -173 CURVE",
"690 -46 LINE",
"661 -65 OFFCURVE",
"622 -88 OFFCURVE",
"565 -88 CURVE SMOOTH",
"495 -88 OFFCURVE",
"446 -65 OFFCURVE",
"446 24 CURVE SMOOTH",
"446 97 LINE",
"301 76 LINE",
"301 10 LINE SMOOTH",
"301 -136 OFFCURVE",
"401 -225 OFFCURVE",
"554 -225 CURVE SMOOTH"
);
}
);
width = 776;
}
);
leftKerningGroup = O;
leftMetricsKey = O;
widthMetricsKey = O;
rightKerningGroup = O;
unicode = 0051;
},
{
color = 5;
glyphname = R;
layers = (
{
anchors = (
{
name = bottom;
position = "{363, 0}";
},
{
name = ogonek;
position = "{635, 0}";
},
{
name = top;
position = "{316, 704}";
}
);
color = 9;
layerId = "4A17B37A-CBFD-40E5-9E02-2080A0E1F76C";
paths = (
{
closed = 1;
nodes = (
"171 0 LINE",
"171 292 LINE",
"348 292 LINE",
"384 298 LINE",
"508 298 OFFCURVE",
"595 371 OFFCURVE",
"595 499 CURVE SMOOTH",
"595 624 OFFCURVE",
"516 704 OFFCURVE",
"376 704 CURVE SMOOTH",
"88 704 LINE",
"88 0 LINE"
);
},
{
closed = 1;
nodes = (
"635 0 LINE",
"405 353 LINE",
"334 310 LINE",
"537 0 LINE"
);
},
{
closed = 1;
nodes = (
"171 627 LINE",
"365 627 LINE SMOOTH",
"453 627 OFFCURVE",
"508 594 OFFCURVE",
"508 499 CURVE SMOOTH",
"508 402 OFFCURVE",
"453 369 OFFCURVE",
"365 369 CURVE SMOOTH",
"171 369 LINE"
);
}
);
width = 641;
},
{
anchors = (
{
name = bottom;
position = "{348, 0}";
},
{
name = ogonek;
position = "{593, 0}";
},
{
name = top;
position = "{291, 704}";
}
);
color = 9;
layerId = "1C7CD022-87C7-4E11-B656-E47B18819458";
paths = (
{
closed = 1;
nodes = (
"101 0 LINE",
"101 320 LINE",
"336 320 LINE",
"339 320 LINE SMOOTH",
"477 320 OFFCURVE",
"562 393 OFFCURVE",
"562 512 CURVE SMOOTH",
"562 632 OFFCURVE",
"477 704 OFFCURVE",
"339 704 CURVE SMOOTH",
"84 704 LINE",
"84 0 LINE"
);
},
{
closed = 1;
nodes = (
"593 0 LINE",
"372 335 LINE",
"358 324 LINE",
"573 0 LINE"
);
},
{
closed = 1;
nodes = (
"101 690 LINE",
"339 690 LINE SMOOTH",
"468 690 OFFCURVE",
"544 623 OFFCURVE",
"544 512 CURVE SMOOTH",
"544 401 OFFCURVE",
"468 335 OFFCURVE",
"339 335 CURVE SMOOTH",
"101 335 LINE"
);
}
);
width = 615;
},
{
anchors = (
{
name = bottom;
position = "{377, 0}";
},
{
name = ogonek;
position = "{729, 0}";
},
{
name = top;
position = "{345, 704}";
}
);
guideLines = (
{
angle = 90;
position = "{286, 105}";
showMeasurement = 1;
}
);
layerId = "4605B8F7-B96C-4225-97D4-41F6E85C553E";
paths = (
{
closed = 1;
nodes = (
"277 0 LINE",
"277 211 LINE",
"401 211 LINE",
"424 224 LINE",
"602 224 OFFCURVE",
"702 317 OFFCURVE",
"702 473 CURVE SMOOTH",
"702 613 OFFCURVE",
"598 704 OFFCURVE",
"421 704 CURVE SMOOTH",
"50 704 LINE",
"50 0 LINE"
);
},
{
closed = 1;
nodes = (
"729 0 LINE",
"520 346 LINE",
"304 309 LINE",
"481 0 LINE"
);
},
{
closed = 1;
nodes = (
"277 523 LINE",
"382 523 LINE SMOOTH",
"428 523 OFFCURVE",
"469 511 OFFCURVE",
"469 455 CURVE SMOOTH",
"469 396 OFFCURVE",
"425 387 OFFCURVE",
"382 387 CURVE SMOOTH",
"277 387 LINE"
);
}
);
width = 726;
},
{
anchors = (
{
name = bottom;
position = "{379, 0}";
},
{
name = ogonek;
position = "{690, 0}";
},
{
name = top;
position = "{341, 704}";
}
);
layerId = "17687776-AAFA-4856-A5EB-4A2EB08551C8";
paths = (
{
closed = 1;
nodes = (
"237 0 LINE",
"237 242 LINE",
"384 242 LINE",
"405 251 LINE",
"550 251 OFFCURVE",
"658 328 OFFCURVE",
"658 478 CURVE SMOOTH",
"658 616 OFFCURVE",
"566 704 OFFCURVE",
"404 704 CURVE SMOOTH",
"77 704 LINE",
"77 0 LINE"
);
},
{
closed = 1;
nodes = (
"690 0 LINE",
"472 349 LINE",
"324 309 LINE",
"502 0 LINE"
);
},
{
closed = 1;
nodes = (
"237 563 LINE",
"376 563 LINE SMOOTH",
"442 563 OFFCURVE",
"494 543 OFFCURVE",
"494 472 CURVE SMOOTH",
"494 406 OFFCURVE",
"449 381 OFFCURVE",
"376 381 CURVE SMOOTH",
"237 381 LINE"
);
}
);
width = 695;
}
);
leftKerningGroup = I;
leftMetricsKey = H;
rightKerningGroup = R;
unicode = 0052;
},
{
color = 5;
glyphname = S;
layers = (
{
anchors = (
{
name = bottom;
position = "{316, 0}";
},
{
name = ogonek;
position = "{412, 0}";
},
{
name = top;
position = "{322, 704}";
}
);
color = 9;
layerId = "4A17B37A-CBFD-40E5-9E02-2080A0E1F76C";
paths = (
{
closed = 1;
nodes = (
"155 715 OFFCURVE",
"55 624 OFFCURVE",
"55 512 CURVE SMOOTH",
"55 422 OFFCURVE",
"108 349 OFFCURVE",
"237 323 CURVE SMOOTH",
"398 290 LINE SMOOTH",
"482 273 OFFCURVE",
"508 233 OFFCURVE",
"508 185 CURVE SMOOTH",
"508 109 OFFCURVE",
"455 67 OFFCURVE",
"346 67 CURVE SMOOTH",
"247 67 OFFCURVE",
"158 111 OFFCURVE",
"105 210 CURVE",
"29 147 LINE",
"107 32 OFFCURVE",
"211 -11 OFFCURVE",
"342 -11 CURVE SMOOTH",
"504 -11 OFFCURVE",
"595 71 OFFCURVE",
"595 193 CURVE SMOOTH",
"595 294 OFFCURVE",
"532 349 OFFCURVE",
"413 373 CURVE SMOOTH",
"264 403 LINE SMOOTH",
"178 420 OFFCURVE",
"142 461 OFFCURVE",
"142 521 CURVE SMOOTH",
"142 587 OFFCURVE",
"196 637 OFFCURVE",
"309 637 CURVE SMOOTH",
"405 637 OFFCURVE",
"467 603 OFFCURVE",
"521 517 CURVE",
"594 573 LINE",
"530 667 OFFCURVE",
"439 715 OFFCURVE",
"317 715 CURVE SMOOTH"
);
}
);
width = 634;
},
{
anchors = (
{
name = bottom;
position = "{315, 0}";
},
{
name = ogonek;
position = "{406, 0}";
},
{
name = top;
position = "{296, 704}";
}
);
color = 9;
layerId = "1C7CD022-87C7-4E11-B656-E47B18819458";
paths = (
{
closed = 1;
nodes = (
"152 715 OFFCURVE",
"59 636 OFFCURVE",
"59 532 CURVE SMOOTH",
"59 427 OFFCURVE",
"135 370 OFFCURVE",
"248 350 CURVE SMOOTH",
"396 324 LINE SMOOTH",
"498 306 OFFCURVE",
"558 260 OFFCURVE",
"558 176 CURVE SMOOTH",
"558 62 OFFCURVE",
"461 4 OFFCURVE",
"328 4 CURVE SMOOTH",
"170 4 OFFCURVE",
"58 83 OFFCURVE",
"39 207 CURVE",
"23 200 LINE",
"47 70 OFFCURVE",
"162 -11 OFFCURVE",
"328 -11 CURVE SMOOTH",
"479 -11 OFFCURVE",
"575 62 OFFCURVE",
"575 176 CURVE SMOOTH",
"575 272 OFFCURVE",
"510 318 OFFCURVE",
"403 338 CURVE SMOOTH",
"254 366 LINE SMOOTH",
"131 389 OFFCURVE",
"77 448 OFFCURVE",
"77 532 CURVE SMOOTH",
"77 635 OFFCURVE",
"166 700 OFFCURVE",
"301 700 CURVE SMOOTH",
"426 700 OFFCURVE",
"509 651 OFFCURVE",
"537 541 CURVE",
"551 552 LINE",
"518 664 OFFCURVE",
"432 715 OFFCURVE",
"301 715 CURVE SMOOTH"
);
}
);
width = 601;
},
{
anchors = (
{
name = bottom;
position = "{342, 0}";
},
{
name = ogonek;
position = "{440, 0}";
},
{
name = top;
position = "{343, 704}";
}
);
layerId = "4605B8F7-B96C-4225-97D4-41F6E85C553E";
paths = (
{
closed = 1;
nodes = (
"130 715 OFFCURVE",
"26 626 OFFCURVE",
"26 489 CURVE SMOOTH",
"26 347 OFFCURVE",
"134 291 OFFCURVE",
"250 269 CURVE SMOOTH",
"362 248 LINE SMOOTH",
"404 240 OFFCURVE",
"422 231 OFFCURVE",
"422 210 CURVE SMOOTH",
"422 190 OFFCURVE",
"406 175 OFFCURVE",
"346 175 CURVE SMOOTH",
"269 175 OFFCURVE",
"160 219 OFFCURVE",
"97 269 CURVE",
"-10 103 LINE",
"75 34 OFFCURVE",
"211 -11 OFFCURVE",
"344 -11 CURVE SMOOTH",
"527 -11 OFFCURVE",
"655 66 OFFCURVE",
"655 236 CURVE SMOOTH",
"655 367 OFFCURVE",
"579 418 OFFCURVE",
"441 441 CURVE SMOOTH",
"331 459 LINE SMOOTH",
"273 469 OFFCURVE",
"259 477 OFFCURVE",
"259 498 CURVE SMOOTH",
"259 515 OFFCURVE",
"271 529 OFFCURVE",
"335 529 CURVE SMOOTH",
"417 529 OFFCURVE",
"500 498 OFFCURVE",
"575 450 CURVE",
"672 621 LINE",
"587 678 OFFCURVE",
"458 715 OFFCURVE",
"350 715 CURVE SMOOTH"
);
}
);
width = 678;
},
{
anchors = (
{
name = bottom;
position = "{339, 0}";
},
{
name = ogonek;
position = "{436, 0}";
},
{
name = top;
position = "{342, 704}";
}
);
layerId = "17687776-AAFA-4856-A5EB-4A2EB08551C8";
paths = (
{
closed = 1;
nodes = (
"154 715 OFFCURVE",
"43 627 OFFCURVE",
"43 494 CURVE SMOOTH",
"43 372 OFFCURVE",
"130 322 OFFCURVE",
"244 299 CURVE SMOOTH",
"389 270 LINE SMOOTH",
"445 259 OFFCURVE",
"472 238 OFFCURVE",
"472 198 CURVE SMOOTH",
"472 151 OFFCURVE",
"430 128 OFFCURVE",
"356 128 CURVE SMOOTH",
"272 128 OFFCURVE",
"184 166 OFFCURVE",
"111 235 CURVE",
"19 104 LINE",
"89 42 OFFCURVE",
"205 -11 OFFCURVE",
"347 -11 CURVE SMOOTH",
"519 -11 OFFCURVE",
"637 69 OFFCURVE",
"637 219 CURVE SMOOTH",
"637 330 OFFCURVE",
"566 389 OFFCURVE",
"439 414 CURVE SMOOTH",
"304 441 LINE SMOOTH",
"239 454 OFFCURVE",
"208 469 OFFCURVE",
"208 511 CURVE SMOOTH",
"208 554 OFFCURVE",
"256 576 OFFCURVE",
"331 576 CURVE SMOOTH",
"412 576 OFFCURVE",
"478 552 OFFCURVE",
"556 493 CURVE",
"643 616 LINE",
"561 681 OFFCURVE",
"471 715 OFFCURVE",
"342 715 CURVE SMOOTH"
);
}
);
width = 673;
}
);
leftKerningGroup = S;
rightKerningGroup = S;
unicode = 0053;
},
{
color = 5;
glyphname = T;
layers = (
{
anchors = (
{
name = bottom;
position = "{304, 0}";
},
{
name = center;
position = "{304, 344}";
},
{
name = ogonek;
position = "{345, 0}";
},
{
name = top;
position = "{304, 704}";
}
);
color = 9;
layerId = "4A17B37A-CBFD-40E5-9E02-2080A0E1F76C";
paths = (
{
closed = 1;
nodes = (
"16 704 LINE",
"16 628 LINE",
"263 628 LINE",
"263 0 LINE",
"345 0 LINE",
"345 628 LINE",
"593 628 LINE",
"593 704 LINE"
);
}
);
width = 609;
},
{
anchors = (
{
name = bottom;
position = "{283, 0}";
},
{
name = center;
position = "{283, 364}";
},
{
name = ogonek;
position = "{292, 0}";
},
{
name = top;
position = "{283, 704}";
}
);
color = 9;
layerId = "1C7CD022-87C7-4E11-B656-E47B18819458";
paths = (
{
closed = 1;
nodes = (
"6 704 LINE",
"6 690 LINE",
"276 690 LINE",
"276 0 LINE",
"292 0 LINE",
"292 690 LINE",
"562 690 LINE",
"562 704 LINE"
);
}
);
width = 568;
},
{
anchors = (
{
name = bottom;
position = "{359, 0}";
},
{
name = center;
position = "{359, 315}";
},
{
name = ogonek;
position = "{477, 0}";
},
{
name = top;
position = "{359, 704}";
}
);
layerId = "4605B8F7-B96C-4225-97D4-41F6E85C553E";
paths = (
{
closed = 1;
nodes = (
"20 704 LINE",
"20 498 LINE",
"244 498 LINE",
"244 0 LINE",
"477 0 LINE",
"477 498 LINE",
"698 498 LINE",
"698 704 LINE"
);
}
);
width = 718;
},
{
anchors = (
{
name = bottom;
position = "{341, 0}";
},
{
name = center;
position = "{341, 324}";
},
{
name = ogonek;
position = "{421, 0}";
},
{
name = top;
position = "{341, 704}";
}
);
layerId = "17687776-AAFA-4856-A5EB-4A2EB08551C8";
paths = (
{
closed = 1;
nodes = (
"25 704 LINE",
"25 559 LINE",
"259 559 LINE",
"259 0 LINE",
"421 0 LINE",
"421 559 LINE",
"654 559 LINE",
"654 704 LINE"
);
}
);
width = 679;
}
);
leftKerningGroup = T;
rightKerningGroup = T;
unicode = 0054;
},
{
color = 5;
glyphname = Tcedilla;
layers = (
{
anchors = (
{
name = bottom;
position = "{285, -215}";
}
);
components = (
{
name = T;
}
);
layerId = "4A17B37A-CBFD-40E5-9E02-2080A0E1F76C";
paths = (
{
closed = 1;
nodes = (
"326 -28 OFFCURVE",
"340 -46 OFFCURVE",
"340 -81 CURVE SMOOTH",
"340 -127 OFFCURVE",
"313 -151 OFFCURVE",
"276 -151 CURVE SMOOTH",
"246 -151 OFFCURVE",
"227 -140 OFFCURVE",
"209 -128 CURVE",
"190 -186 LINE",
"213 -203 OFFCURVE",
"243 -215 OFFCURVE",
"285 -215 CURVE SMOOTH",
"355 -215 OFFCURVE",
"406 -163 OFFCURVE",
"406 -99 CURVE SMOOTH",
"406 -41 OFFCURVE",
"375 4 OFFCURVE",
"297 29 CURVE",
"259 0 LINE"
);
}
);
width = 609;
},
{
anchors = (
{
name = bottom;
position = "{319, -202}";
}
);
color = 0;
components = (
{
name = T;
}
);
layerId = "1C7CD022-87C7-4E11-B656-E47B18819458";
paths = (
{
closed = 1;
nodes = (
"338 -40 OFFCURVE",
"360 -73 OFFCURVE",
"360 -115 CURVE SMOOTH",
"360 -161 OFFCURVE",
"330 -189 OFFCURVE",
"287 -189 CURVE SMOOTH",
"253 -189 OFFCURVE",
"227 -178 OFFCURVE",
"201 -148 CURVE",
"193 -160 LINE",
"218 -190 OFFCURVE",
"247 -202 OFFCURVE",
"287 -202 CURVE SMOOTH",
"339 -202 OFFCURVE",
"375 -168 OFFCURVE",
"375 -114 CURVE SMOOTH",
"375 -67 OFFCURVE",
"351 -31 OFFCURVE",
"279 6 CURVE",
"266 0 LINE"
);
}
);
width = 568;
},
{
anchors = (
{
name = bottom;
position = "{348, -215}";
}
);
components = (
{
name = T;
}
);
layerId = "4605B8F7-B96C-4225-97D4-41F6E85C553E";
paths = (
{
closed = 1;
nodes = (
"353 0 OFFCURVE",
"383 -24 OFFCURVE",
"383 -57 CURVE SMOOTH",
"383 -87 OFFCURVE",
"362 -99 OFFCURVE",
"330 -99 CURVE SMOOTH",
"304 -99 OFFCURVE",
"288 -93 OFFCURVE",
"274 -85 CURVE",
"241 -186 LINE",
"265 -201 OFFCURVE",
"291 -215 OFFCURVE",
"348 -215 CURVE SMOOTH",
"446 -215 OFFCURVE",
"502 -167 OFFCURVE",
"502 -82 CURVE SMOOTH",
"502 -2 OFFCURVE",
"442 37 OFFCURVE",
"320 43 CURVE",
"253 0 LINE"
);
}
);
width = 718;
},
{
anchors = (
{
name = bottom;
position = "{327, -215}";
}
);
components = (
{
alignment = -1;
name = T;
}
);
layerId = "17687776-AAFA-4856-A5EB-4A2EB08551C8";
paths = (
{
closed = 1;
nodes = (
"348 -11 OFFCURVE",
"372 -34 OFFCURVE",
"372 -64 CURVE SMOOTH",
"372 -98 OFFCURVE",
"348 -118 OFFCURVE",
"313 -118 CURVE SMOOTH",
"286 -118 OFFCURVE",
"269 -111 OFFCURVE",
"252 -101 CURVE",
"226 -186 LINE",
"249 -202 OFFCURVE",
"277 -215 OFFCURVE",
"327 -215 CURVE SMOOTH",
"413 -215 OFFCURVE",
"466 -166 OFFCURVE",
"466 -89 CURVE SMOOTH",
"466 -17 OFFCURVE",
"419 25 OFFCURVE",
"318 38 CURVE",
"260 0 LINE"
);
}
);
width = 679;
}
);
leftKerningGroup = T;
leftMetricsKey = T;
rightKerningGroup = T;
rightMetricsKey = T;
unicode = 0162;
},
{
color = 5;
glyphname = U;
layers = (
{
anchors = (
{
name = bottom;
position = "{351, 0}";
},
{
name = ogonek;
position = "{482, 12}";
},
{
name = top;
position = "{351, 677}";
},
{
name = top_ring;
position = "{351, 649}";
},
{
name = topright;
position = "{644, 704}";
}
);
color = 9;
layerId = "4A17B37A-CBFD-40E5-9E02-2080A0E1F76C";
paths = (
{
closed = 1;
nodes = (
"545 704 LINE",
"545 281 LINE SMOOTH",
"545 164 OFFCURVE",
"506 67 OFFCURVE",
"351 67 CURVE SMOOTH",
"197 67 OFFCURVE",
"158 164 OFFCURVE",
"158 281 CURVE SMOOTH",
"158 704 LINE",
"75 704 LINE",
"75 262 LINE SMOOTH",
"75 82 OFFCURVE",
"175 -11 OFFCURVE",
"351 -11 CURVE SMOOTH",
"529 -11 OFFCURVE",
"627 82 OFFCURVE",
"627 262 CURVE SMOOTH",
"627 704 LINE"
);
}
);
width = 702;
},
{
anchors = (
{
name = bottom;
position = "{333, 0}";
},
{
name = ogonek;
position = "{435, 9}";
},
{
name = top;
position = "{333, 662}";
},
{
name = top_ring;
position = "{333, 637}";
},
{
name = topright;
position = "{647, 704}";
}
);
color = 9;
layerId = "1C7CD022-87C7-4E11-B656-E47B18819458";
paths = (
{
closed = 1;
nodes = (
"582 704 LINE",
"582 251 LINE SMOOTH",
"582 94 OFFCURVE",
"489 4 OFFCURVE",
"333 4 CURVE SMOOTH",
"178 4 OFFCURVE",
"85 94 OFFCURVE",
"85 251 CURVE SMOOTH",
"85 704 LINE",
"68 704 LINE",
"68 251 LINE SMOOTH",
"68 83 OFFCURVE",
"167 -11 OFFCURVE",
"333 -11 CURVE SMOOTH",
"500 -11 OFFCURVE",
"599 83 OFFCURVE",
"599 251 CURVE SMOOTH",
"599 704 LINE"
);
}
);
width = 667;
},
{
anchors = (
{
name = bottom;
position = "{375, 0}";
},
{
name = ogonek;
position = "{521, 9}";
},
{
name = top;
position = "{375, 699}";
},
{
name = top_ring;
position = "{375, 688}";
},
{
name = topright;
position = "{711, 704}";
}
);
layerId = "4605B8F7-B96C-4225-97D4-41F6E85C553E";
paths = (
{
closed = 1;
nodes = (
"477 704 LINE",
"477 309 LINE SMOOTH",
"477 234 OFFCURVE",
"450 195 OFFCURVE",
"375 195 CURVE SMOOTH",
"304 195 OFFCURVE",
"275 233 OFFCURVE",
"275 309 CURVE SMOOTH",
"275 704 LINE",
"42 704 LINE",
"42 314 LINE SMOOTH",
"42 93 OFFCURVE",
"152 -11 OFFCURVE",
"375 -11 CURVE SMOOTH",
"597 -11 OFFCURVE",
"709 93 OFFCURVE",
"709 314 CURVE SMOOTH",
"709 704 LINE"
);
}
);
width = 751;
},
{
anchors = (
{
name = bottom;
position = "{371, 0}";
},
{
name = ogonek;
position = "{509, 10}";
},
{
name = top;
position = "{371, 692}";
},
{
name = top_ring;
position = "{371, 676}";
},
{
name = topright;
position = "{684, 704}";
}
);
layerId = "17687776-AAFA-4856-A5EB-4A2EB08551C8";
paths = (
{
closed = 1;
nodes = (
"516 704 LINE",
"516 288 LINE SMOOTH",
"516 196 OFFCURVE",
"480 136 OFFCURVE",
"371 136 CURVE SMOOTH",
"266 136 OFFCURVE",
"226 193 OFFCURVE",
"226 288 CURVE SMOOTH",
"226 704 LINE",
"65 704 LINE",
"65 290 LINE SMOOTH",
"65 89 OFFCURVE",
"171 -11 OFFCURVE",
"371 -11 CURVE SMOOTH",
"571 -11 OFFCURVE",
"677 89 OFFCURVE",
"677 290 CURVE SMOOTH",
"677 704 LINE"
);
}
);
width = 742;
}
);
leftKerningGroup = U;
rightKerningGroup = U;
rightMetricsKey = "=|";
unicode = 0055;
},
{
color = 5;
glyphname = V;
layers = (
{
anchors = (
{
name = bottom;
position = "{322, 0}";
},
{
name = ogonek;
position = "{375, 0}";
},
{
name = top;
position = "{322, 704}";
}
);
color = 9;
guideLines = (
{
angle = 180;
position = "{307, 230}";
}
);
layerId = "4A17B37A-CBFD-40E5-9E02-2080A0E1F76C";
paths = (
{
closed = 1;
nodes = (
"375 0 LINE",
"642 704 LINE",
"556 704 LINE",
"314 55 LINE",
"335 55 LINE",
"95 704 LINE",
"5 704 LINE",
"272 0 LINE"
);
}
);
width = 647;
},
{
anchors = (
{
name = bottom;
position = "{301, 0}";
},
{
name = ogonek;
position = "{310, 0}";
},
{
name = top;
position = "{301, 704}";
}
);
color = 9;
layerId = "1C7CD022-87C7-4E11-B656-E47B18819458";
paths = (
{
closed = 1;
nodes = (
"310 0 LINE",
"593 704 LINE",
"577 704 LINE",
"298 13 LINE",
"304 13 LINE",
"26 704 LINE",
"8 704 LINE",
"291 0 LINE"
);
}
);
width = 601;
},
{
anchors = (
{
name = bottom;
position = "{391, 0}";
},
{
name = ogonek;
position = "{533, 0}";
},
{
name = top;
position = "{397, 704}";
}
);
layerId = "4605B8F7-B96C-4225-97D4-41F6E85C553E";
paths = (
{
closed = 1;
nodes = (
"535 0 LINE",
"783 704 LINE",
"542 704 LINE",
"357 115 LINE",
"429 116 LINE",
"256 704 LINE",
"0 704 LINE",
"249 0 LINE"
);
}
);
width = 783;
},
{
anchors = (
{
name = bottom;
position = "{364, 0}";
},
{
name = ogonek;
position = "{460, 0}";
},
{
name = top;
position = "{365, 704}";
}
);
layerId = "17687776-AAFA-4856-A5EB-4A2EB08551C8";
paths = (
{
closed = 1;
nodes = (
"459 0 LINE",
"713 704 LINE",
"544 704 LINE",
"333 100 LINE",
"392 100 LINE",
"187 704 LINE",
"9 704 LINE",
"264 0 LINE"
);
}
);
width = 722;
}
);
rightMetricsKey = "=|";
unicode = 0056;
},
{
color = 5;
glyphname = W;
layers = (
{
anchors = (
{
name = bottom;
position = "{487, 0}";
},
{
name = ogonek;
position = "{759, 0}";
},
{
name = top;
position = "{487, 704}";
}
);
color = 9;
guideLines = (
{
angle = 180;
position = "{313, 230}";
}
);
layerId = "4A17B37A-CBFD-40E5-9E02-2080A0E1F76C";
paths = (
{
closed = 1;
nodes = (
"321 0 LINE",
"496 641 LINE",
"478 641 LINE",
"657 0 LINE",
"759 0 LINE",
"962 704 LINE",
"878 704 LINE",
"701 66 LINE",
"719 66 LINE",
"541 704 LINE",
"437 704 LINE",
"261 66 LINE",
"279 66 LINE",
"99 704 LINE",
"13 704 LINE",
"218 0 LINE"
);
}
);
width = 975;
},
{
anchors = (
{
name = bottom;
position = "{474, 0}";
},
{
name = ogonek;
position = "{706, 0}";
},
{
name = top;
position = "{474, 704}";
}
);
color = 9;
layerId = "1C7CD022-87C7-4E11-B656-E47B18819458";
paths = (
{
closed = 1;
nodes = (
"265 0 LINE",
"476 691 LINE",
"472 691 LINE",
"684 0 LINE",
"706 0 LINE",
"935 704 LINE",
"918 704 LINE",
"694 12 LINE",
"698 12 LINE",
"486 704 LINE",
"463 704 LINE",
"252 12 LINE",
"256 12 LINE",
"30 704 LINE",
"13 704 LINE",
"243 0 LINE"
);
}
);
width = 948;
},
{
anchors = (
{
name = bottom;
position = "{535, 0}";
},
{
name = ogonek;
position = "{892, 0}";
},
{
name = top;
position = "{551, 704}";
}
);
layerId = "4605B8F7-B96C-4225-97D4-41F6E85C553E";
paths = (
{
closed = 1;
nodes = (
"439 0 LINE",
"559 530 LINE",
"513 529 LINE",
"635 0 LINE",
"892 0 LINE",
"1074 704 LINE",
"852 704 LINE",
"732 154 LINE",
"776 154 LINE",
"655 704 LINE",
"441 704 LINE",
"314 165 LINE",
"359 164 LINE",
"248 704 LINE",
"5 704 LINE",
"185 0 LINE"
);
}
);
width = 1079;
},
{
anchors = (
{
name = bottom;
position = "{523, 0}";
},
{
name = ogonek;
position = "{840, 0}";
},
{
name = top;
position = "{526, 704}";
}
);
layerId = "17687776-AAFA-4856-A5EB-4A2EB08551C8";
paths = (
{
closed = 1;
nodes = (
"391 0 LINE",
"544 574 LINE",
"509 574 LINE",
"656 0 LINE",
"840 0 LINE",
"1033 704 LINE",
"867 704 LINE",
"726 113 LINE",
"769 114 LINE",
"612 704 LINE",
"444 704 LINE",
"290 122 LINE",
"328 121 LINE",
"193 704 LINE",
"15 704 LINE",
"208 0 LINE"
);
}
);
width = 1048;
}
);
leftKerningGroup = W;
rightKerningGroup = W;
rightMetricsKey = "=|";
unicode = 0057;
},
{
color = 5;
glyphname = X;
layers = (
{
anchors = (
{
name = bottom;
position = "{302, 0}";
},
{
name = ogonek;
position = "{593, 0}";
},
{
name = top;
position = "{302, 704}";
}
);
color = 9;
layerId = "4A17B37A-CBFD-40E5-9E02-2080A0E1F76C";
paths = (
{
closed = 1;
nodes = (
"104 0 LINE",
"317 323 LINE",
"279 323 LINE",
"492 0 LINE",
"594 0 LINE",
"330 394 LINE",
"330 338 LINE",
"580 704 LINE",
"482 704 LINE",
"281 402 LINE",
"319 401 LINE",
"122 704 LINE",
"19 704 LINE",
"268 333 LINE",
"268 389 LINE",
"5 0 LINE"
);
}
);
width = 599;
},
{
anchors = (
{
name = bottom;
position = "{280, 0}";
},
{
name = ogonek;
position = "{543, 0}";
},
{
name = top;
position = "{280, 704}";
}
);
color = 9;
layerId = "1C7CD022-87C7-4E11-B656-E47B18819458";
paths = (
{
closed = 1;
nodes = (
"32 0 LINE",
"283 356 LINE",
"275 356 LINE",
"523 0 LINE",
"543 0 LINE",
"284 370 LINE",
"284 358 LINE",
"526 704 LINE",
"507 704 LINE",
"274 371 LINE",
"282 371 LINE",
"49 704 LINE",
"29 704 LINE",
"272 357 LINE",
"272 369 LINE",
"12 0 LINE"
);
}
);
width = 555;
},
{
anchors = (
{
name = bottom;
position = "{362, 0}";
},
{
name = ogonek;
position = "{748, 0}";
},
{
name = top;
position = "{362, 704}";
}
);
layerId = "4605B8F7-B96C-4225-97D4-41F6E85C553E";
paths = (
{
closed = 1;
nodes = (
"251 0 LINE",
"410 270 LINE",
"304 269 LINE",
"468 0 LINE",
"748 0 LINE",
"453 442 LINE",
"455 269 LINE",
"732 704 LINE",
"495 704 LINE",
"338 440 LINE",
"444 441 LINE",
"285 704 LINE",
"14 704 LINE",
"299 274 LINE",
"300 445 LINE",
"-3 0 LINE"
);
}
);
width = 745;
},
{
anchors = (
{
name = bottom;
position = "{343, 0}";
},
{
name = ogonek;
position = "{687, 0}";
},
{
name = top;
position = "{343, 704}";
}
);
layerId = "17687776-AAFA-4856-A5EB-4A2EB08551C8";
paths = (
{
closed = 1;
nodes = (
"196 0 LINE",
"383 296 LINE",
"305 302 LINE",
"493 0 LINE",
"688 0 LINE",
"406 426 LINE",
"410 308 LINE",
"670 704 LINE",
"494 704 LINE",
"319 428 LINE",
"392 424 LINE",
"216 704 LINE",
"28 704 LINE",
"293 299 LINE",
"292 416 LINE",
"8 0 LINE"
);
}
);
width = 696;
}
);
rightMetricsKey = "=|";
unicode = 0058;
},
{
color = 5;
glyphname = Y;
layers = (
{
anchors = (
{
name = bottom;
position = "{288, 0}";
},
{
name = ogonek;
position = "{330, 0}";
},
{
name = top;
position = "{288, 682}";
}
);
color = 9;
layerId = "4A17B37A-CBFD-40E5-9E02-2080A0E1F76C";
paths = (
{
closed = 1;
nodes = (
"331 0 LINE",
"331 274 LINE",
"583 704 LINE",
"493 704 LINE",
"274 324 LINE",
"308 324 LINE",
"87 704 LINE",
"-4 704 LINE",
"247 274 LINE",
"247 0 LINE"
);
}
);
width = 579;
},
{
anchors = (
{
name = bottom;
position = "{261, 0}";
},
{
name = ogonek;
position = "{270, 0}";
},
{
name = top;
position = "{261, 662}";
}
);
color = 9;
layerId = "1C7CD022-87C7-4E11-B656-E47B18819458";
paths = (
{
closed = 1;
nodes = (
"270 0 LINE",
"270 273 LINE",
"518 704 LINE",
"500 704 LINE",
"258 283 LINE",
"266 283 LINE",
"25 704 LINE",
"5 704 LINE",
"253 273 LINE",
"253 0 LINE"
);
}
);
width = 523;
},
{
anchors = (
{
name = bottom;
position = "{371, 0}";
},
{
name = ogonek;
position = "{488, 0}";
},
{
name = top;
position = "{371, 701}";
}
);
layerId = "4605B8F7-B96C-4225-97D4-41F6E85C553E";
paths = (
{
closed = 1;
nodes = (
"489 0 LINE",
"489 239 LINE",
"746 704 LINE",
"505 704 LINE",
"317 325 LINE",
"440 326 LINE",
"257 704 LINE",
"0 704 LINE",
"256 239 LINE",
"256 0 LINE"
);
}
);
width = 746;
},
{
anchors = (
{
name = bottom;
position = "{329, 0}";
},
{
name = ogonek;
position = "{410, 0}";
},
{
name = top;
position = "{329, 694}";
}
);
layerId = "17687776-AAFA-4856-A5EB-4A2EB08551C8";
paths = (
{
closed = 1;
nodes = (
"410 0 LINE",
"410 259 LINE",
"662 704 LINE",
"482 704 LINE",
"285 343 LINE",
"379 346 LINE",
"187 704 LINE",
"-2 704 LINE",
"248 259 LINE",
"248 0 LINE"
);
}
);
width = 660;
}
);
leftKerningGroup = Y;
rightKerningGroup = Y;
unicode = 0059;
},
{
color = 5;
glyphname = Z;
layers = (
{
anchors = (
{
name = bottom;
position = "{306, 0}";
},
{
name = ogonek;
position = "{592, 0}";
},
{
name = top;
position = "{306, 704}";
}
);
color = 9;
layerId = "4A17B37A-CBFD-40E5-9E02-2080A0E1F76C";
paths = (
{
closed = 1;
nodes = (
"578 631 LINE",
"578 704 LINE",
"50 704 LINE",
"50 627 LINE",
"515 627 LINE",
"502 657 LINE",
"39 73 LINE",
"39 0 LINE",
"592 0 LINE",
"592 77 LINE",
"101 77 LINE",
"115 47 LINE"
);
}
);
width = 624;
},
{
anchors = (
{
name = bottom;
position = "{297, 0}";
},
{
name = ogonek;
position = "{565, 0}";
},
{
name = top;
position = "{297, 704}";
}
);
color = 9;
layerId = "1C7CD022-87C7-4E11-B656-E47B18819458";
paths = (
{
closed = 1;
nodes = (
"544 690 LINE",
"544 704 LINE",
"41 704 LINE",
"41 690 LINE",
"533 690 LINE",
"529 695 LINE",
"33 14 LINE",
"33 0 LINE",
"565 0 LINE",
"565 14 LINE",
"45 14 LINE",
"48 9 LINE"
);
}
);
width = 575;
},
{
anchors = (
{
name = bottom;
position = "{321, 0}";
},
{
name = ogonek;
position = "{653, 0}";
},
{
name = top;
position = "{343, 704}";
}
);
layerId = "4605B8F7-B96C-4225-97D4-41F6E85C553E";
paths = (
{
closed = 1;
nodes = (
"641 534 LINE",
"641 704 LINE",
"30 704 LINE",
"30 526 LINE",
"472 526 LINE",
"432 601 LINE",
"25 170 LINE",
"25 0 LINE",
"653 0 LINE",
"653 178 LINE",
"204 178 LINE",
"244 103 LINE"
);
}
);
width = 668;
},
{
anchors = (
{
name = bottom;
position = "{321, 0}";
},
{
name = ogonek;
position = "{632, 0}";
},
{
name = top;
position = "{333, 704}";
}
);
layerId = "17687776-AAFA-4856-A5EB-4A2EB08551C8";
paths = (
{
closed = 1;
nodes = (
"619 573 LINE",
"619 704 LINE",
"48 704 LINE",
"48 566 LINE",
"506 566 LINE",
"477 626 LINE",
"40 132 LINE",
"40 0 LINE",
"632 0 LINE",
"632 138 LINE",
"149 138 LINE",
"176 78 LINE"
);
}
);
width = 665;
}
);
leftKerningGroup = Z;
rightKerningGroup = Z;
unicode = 005A;
},
{
export = 0;
glyphname = Eng;
layers = (
{
layerId = "1C7CD022-87C7-4E11-B656-E47B18819458";
paths = (
{
closed = 1;
nodes = (
"528 -215 OFFCURVE",
"580 -156 OFFCURVE",
"580 -64 CURVE SMOOTH",
"580 660 LINE",
"564 660 LINE",
"564 27 LINE",
"564 27 LINE",
"545 55 LINE",
"106 660 LINE",
"84 660 LINE",
"84 0 LINE",
"100 0 LINE",
"100 587 LINE",
"99 644 LINE",
"99 644 LINE",
"125 605 LINE",
"564 0 LINE",
"564 -64 LINE SMOOTH",
"564 -147 OFFCURVE",
"518 -201 OFFCURVE",
"448 -201 CURVE SMOOTH",
"424 -201 OFFCURVE",
"398 -194 OFFCURVE",
"382 -179 CURVE",
"377 -193 LINE",
"393 -207 OFFCURVE",
"420 -215 OFFCURVE",
"448 -215 CURVE SMOOTH"
);
}
);
width = 664;
},
{
layerId = "4A17B37A-CBFD-40E5-9E02-2080A0E1F76C";
paths = (
{
closed = 1;
nodes = (
"522 -215 OFFCURVE",
"606 -176 OFFCURVE",
"606 -51 CURVE SMOOTH",
"606 660 LINE",
"530 660 LINE",
"531 140 LINE",
"530 140 LINE",
"487 220 LINE",
"187 660 LINE",
"88 660 LINE",
"88 0 LINE",
"164 0 LINE",
"164 466 LINE",
"160 572 LINE",
"161 572 LINE",
"231 442 LINE",
"530 3 LINE",
"530 -43 LINE SMOOTH",
"530 -113 OFFCURVE",
"496 -137 OFFCURVE",
"453 -137 CURVE SMOOTH",
"418 -137 OFFCURVE",
"390 -123 OFFCURVE",
"371 -106 CURVE",
"354 -182 LINE",
"377 -201 OFFCURVE",
"413 -215 OFFCURVE",
"454 -215 CURVE SMOOTH"
);
}
);
width = 694;
},
{
layerId = "4605B8F7-B96C-4225-97D4-41F6E85C553E";
paths = (
{
closed = 1;
nodes = (
"633 -215 OFFCURVE",
"696 -153 OFFCURVE",
"696 -9 CURVE SMOOTH",
"696 660 LINE",
"494 660 LINE",
"494 359 LINE",
"493 359 LINE",
"444 451 LINE",
"302 660 LINE",
"50 660 LINE",
"50 0 LINE",
"252 0 LINE",
"252 220 LINE",
"248 360 LINE",
"250 360 LINE",
"290 297 LINE",
"494 7 LINE",
"494 13 LINE",
"494 -33 OFFCURVE",
"476 -50 OFFCURVE",
"443 -50 CURVE SMOOTH",
"416 -50 OFFCURVE",
"397 -45 OFFCURVE",
"383 -38 CURVE",
"359 -193 LINE",
"397 -210 OFFCURVE",
"439 -215 OFFCURVE",
"498 -215 CURVE SMOOTH"
);
}
);
width = 746;
},
{
layerId = "17687776-AAFA-4856-A5EB-4A2EB08551C8";
paths = (
{
closed = 1;
nodes = (
"590 -215 OFFCURVE",
"664 -162 OFFCURVE",
"664 -25 CURVE SMOOTH",
"664 660 LINE",
"520 660 LINE",
"520 277 LINE",
"519 277 LINE",
"474 364 LINE",
"257 660 LINE",
"77 660 LINE",
"77 0 LINE",
"221 0 LINE",
"221 313 LINE",
"217 440 LINE",
"218 440 LINE",
"272 352 LINE",
"520 6 LINE",
"520 -8 LINE",
"520 -63 OFFCURVE",
"494 -83 OFFCURVE",
"457 -83 CURVE SMOOTH",
"427 -83 OFFCURVE",
"403 -75 OFFCURVE",
"387 -63 CURVE",
"366 -189 LINE",
"397 -207 OFFCURVE",
"436 -215 OFFCURVE",
"487 -215 CURVE SMOOTH"
);
}
);
width = 740;
}
);
leftKerningGroup = I;
leftMetricsKey = I;
rightKerningGroup = I;
rightMetricsKey = I;
unicode = 014A;
},
{
export = 0;
glyphname = Germandbls;
layers = (
{
anchors = (
{
name = bottom;
position = "{321, 0}";
},
{
name = ogonek;
position = "{440, 0}";
},
{
name = top;
position = "{321, 655}";
}
);
layerId = "1C7CD022-87C7-4E11-B656-E47B18819458";
paths = (
{
closed = 1;
nodes = (
"515 -5 OFFCURVE",
"583 76 OFFCURVE",
"583 176 CURVE SMOOTH",
"583 290 OFFCURVE",
"519 344 OFFCURVE",
"391 344 CURVE SMOOTH",
"300 344 LINE",
"305 344 LINE",
"548 645 LINE",
"548 660 LINE",
"299 660 LINE SMOOTH",
"166 660 OFFCURVE",
"87 573 OFFCURVE",
"87 443 CURVE SMOOTH",
"87 0 LINE",
"103 0 LINE",
"103 442 LINE SMOOTH",
"103 563 OFFCURVE",
"177 646 OFFCURVE",
"299 646 CURVE SMOOTH",
"530 646 LINE",
"287 344 LINE",
"287 330 LINE",
"391 330 LINE SMOOTH",
"509 330 OFFCURVE",
"567 281 OFFCURVE",
"567 176 CURVE SMOOTH",
"567 84 OFFCURVE",
"502 9 OFFCURVE",
"400 9 CURVE SMOOTH",
"327 9 OFFCURVE",
"279 39 OFFCURVE",
"255 67 CURVE",
"244 55 LINE",
"267 27 OFFCURVE",
"319 -5 OFFCURVE",
"400 -5 CURVE SMOOTH"
);
}
);
width = 616;
},
{
anchors = (
{
name = bottom;
position = "{367, 0}";
},
{
name = ogonek;
position = "{475, 0}";
},
{
name = top;
position = "{367, 660}";
}
);
layerId = "4A17B37A-CBFD-40E5-9E02-2080A0E1F76C";
paths = (
{
closed = 1;
nodes = (
"552 -5 OFFCURVE",
"638 70 OFFCURVE",
"638 193 CURVE SMOOTH",
"638 303 OFFCURVE",
"558 370 OFFCURVE",
"447 370 CURVE SMOOTH",
"407 370 LINE",
"412 370 LINE",
"595 584 LINE",
"595 660 LINE",
"317 660 LINE SMOOTH",
"190 660 OFFCURVE",
"95 573 OFFCURVE",
"95 443 CURVE SMOOTH",
"95 0 LINE",
"175 0 LINE",
"175 442 LINE SMOOTH",
"175 525 OFFCURVE",
"240 585 OFFCURVE",
"317 585 CURVE SMOOTH",
"500 585 LINE",
"326 370 LINE",
"326 302 LINE",
"427 302 LINE SMOOTH",
"505 302 OFFCURVE",
"556 263 OFFCURVE",
"556 191 CURVE SMOOTH",
"556 122 OFFCURVE",
"511 68 OFFCURVE",
"428 68 CURVE SMOOTH",
"376 68 OFFCURVE",
"329 88 OFFCURVE",
"301 118 CURVE",
"265 49 LINE",
"291 21 OFFCURVE",
"350 -5 OFFCURVE",
"433 -5 CURVE SMOOTH"
);
}
);
width = 671;
},
{
anchors = (
{
name = bottom;
position = "{362, 0}";
},
{
name = ogonek;
position = "{548, 0}";
},
{
name = top;
position = "{362, 660}";
}
);
layerId = "4605B8F7-B96C-4225-97D4-41F6E85C553E";
paths = (
{
closed = 1;
nodes = (
"622 -5 OFFCURVE",
"717 54 OFFCURVE",
"717 189 CURVE SMOOTH",
"717 312 OFFCURVE",
"625 353 OFFCURVE",
"555 353 CURVE SMOOTH",
"534 353 LINE",
"484 270 LINE",
"682 488 LINE",
"682 660 LINE",
"346 660 LINE SMOOTH",
"153 660 OFFCURVE",
"41 564 OFFCURVE",
"41 398 CURVE SMOOTH",
"41 0 LINE",
"274 0 LINE",
"274 353 LINE SMOOTH",
"274 440 OFFCURVE",
"316 484 OFFCURVE",
"396 484 CURVE SMOOTH",
"472 484 LINE",
"343 354 LINE",
"343 236 LINE",
"439 236 LINE SMOOTH",
"478 236 OFFCURVE",
"504 227 OFFCURVE",
"504 199 CURVE SMOOTH",
"504 173 OFFCURVE",
"479 160 OFFCURVE",
"443 160 CURVE SMOOTH",
"402 160 OFFCURVE",
"383 166 OFFCURVE",
"358 184 CURVE",
"304 49 LINE",
"342 13 OFFCURVE",
"393 -5 OFFCURVE",
"496 -5 CURVE SMOOTH"
);
}
);
width = 728;
},
{
anchors = (
{
name = bottom;
position = "{365, 0}";
},
{
name = ogonek;
position = "{514, 0}";
},
{
name = top;
position = "{365, 660}";
}
);
layerId = "17687776-AAFA-4856-A5EB-4A2EB08551C8";
paths = (
{
closed = 1;
nodes = (
"590 -5 OFFCURVE",
"680 60 OFFCURVE",
"680 190 CURVE SMOOTH",
"680 309 OFFCURVE",
"594 360 OFFCURVE",
"504 360 CURVE SMOOTH",
"475 360 LINE",
"451 308 LINE",
"642 525 LINE",
"642 660 LINE",
"333 660 LINE SMOOTH",
"171 660 OFFCURVE",
"66 568 OFFCURVE",
"66 416 CURVE SMOOTH",
"66 0 LINE",
"228 0 LINE",
"228 386 LINE SMOOTH",
"228 472 OFFCURVE",
"280 522 OFFCURVE",
"359 522 CURVE SMOOTH",
"485 522 LINE",
"335 360 LINE",
"335 261 LINE",
"434 261 LINE SMOOTH",
"490 261 OFFCURVE",
"529 241 OFFCURVE",
"529 196 CURVE SMOOTH",
"529 154 OFFCURVE",
"494 126 OFFCURVE",
"436 126 CURVE SMOOTH",
"390 126 OFFCURVE",
"358 136 OFFCURVE",
"332 159 CURVE",
"286 49 LINE",
"318 17 OFFCURVE",
"373 -5 OFFCURVE",
"466 -5 CURVE SMOOTH"
);
}
);
width = 701;
}
);
leftKerningGroup = Germandbls;
rightKerningGroup = Germandbls;
unicode = 1E9E;
},
{
export = 0;
glyphname = Schwa;
layers = (
{
anchors = (
{
name = bottom;
position = "{337, 0}";
},
{
name = top;
position = "{337, 660}";
}
);
layerId = "1C7CD022-87C7-4E11-B656-E47B18819458";
paths = (
{
closed = 1;
nodes = (
"507 -10 OFFCURVE",
"617 122 OFFCURVE",
"617 330 CURVE SMOOTH",
"617 538 OFFCURVE",
"508 670 OFFCURVE",
"334 670 CURVE SMOOTH",
"201 670 OFFCURVE",
"103 602 OFFCURVE",
"58 477 CURVE",
"72 471 LINE",
"115 589 OFFCURVE",
"206 656 OFFCURVE",
"334 656 CURVE SMOOTH",
"498 656 OFFCURVE",
"601 531 OFFCURVE",
"601 330 CURVE SMOOTH",
"601 130 OFFCURVE",
"498 4 OFFCURVE",
"334 4 CURVE SMOOTH",
"173 4 OFFCURVE",
"67 122 OFFCURVE",
"67 319 CURVE SMOOTH",
"67 321 OFFCURVE",
"67 323 OFFCURVE",
"67 325 CURVE",
"59 318 LINE",
"601 318 LINE",
"601 332 LINE",
"51 332 LINE",
"51 327 OFFCURVE",
"51 323 OFFCURVE",
"51 318 CURVE SMOOTH",
"51 117 OFFCURVE",
"160 -10 OFFCURVE",
"334 -10 CURVE SMOOTH"
);
}
);
width = 658;
},
{
anchors = (
{
name = bottom;
position = "{357, 0}";
},
{
name = top;
position = "{357, 660}";
}
);
layerId = "4A17B37A-CBFD-40E5-9E02-2080A0E1F76C";
paths = (
{
closed = 1;
nodes = (
"525 -10 OFFCURVE",
"645 121 OFFCURVE",
"645 330 CURVE SMOOTH",
"645 539 OFFCURVE",
"529 670 OFFCURVE",
"341 670 CURVE SMOOTH",
"212 670 OFFCURVE",
"111 601 OFFCURVE",
"67 488 CURVE",
"151 458 LINE",
"182 547 OFFCURVE",
"248 595 OFFCURVE",
"341 595 CURVE SMOOTH",
"478 595 OFFCURVE",
"561 496 OFFCURVE",
"561 330 CURVE SMOOTH",
"561 153 OFFCURVE",
"481 65 OFFCURVE",
"348 65 CURVE SMOOTH",
"236 65 OFFCURVE",
"144 142 OFFCURVE",
"144 274 CURVE SMOOTH",
"144 286 OFFCURVE",
"144 298 OFFCURVE",
"146 311 CURVE",
"102 279 LINE",
"596 279 LINE",
"596 359 LINE",
"58 359 LINE",
"56 339 OFFCURVE",
"55 321 OFFCURVE",
"55 302 CURVE SMOOTH",
"55 106 OFFCURVE",
"174 -10 OFFCURVE",
"341 -10 CURVE SMOOTH"
);
}
);
width = 693;
},
{
anchors = (
{
name = bottom;
position = "{352, 0}";
},
{
name = top;
position = "{352, 660}";
}
);
layerId = "4605B8F7-B96C-4225-97D4-41F6E85C553E";
paths = (
{
closed = 1;
nodes = (
"548 -10 OFFCURVE",
"675 113 OFFCURVE",
"675 330 CURVE SMOOTH",
"675 547 OFFCURVE",
"553 670 OFFCURVE",
"344 670 CURVE SMOOTH",
"193 670 OFFCURVE",
"68 605 OFFCURVE",
"31 446 CURVE",
"243 406 LINE",
"254 455 OFFCURVE",
"278 484 OFFCURVE",
"342 484 CURVE SMOOTH",
"409 484 OFFCURVE",
"442 443 OFFCURVE",
"442 348 CURVE SMOOTH",
"442 230 OFFCURVE",
"417 176 OFFCURVE",
"345 176 CURVE SMOOTH",
"288 176 OFFCURVE",
"252 203 OFFCURVE",
"252 282 CURVE SMOOTH",
"252 292 OFFCURVE",
"253 304 OFFCURVE",
"254 315 CURVE",
"137 240 LINE",
"544 240 LINE",
"544 359 LINE",
"30 359 LINE",
"28 339 OFFCURVE",
"26 320 OFFCURVE",
"26 301 CURVE SMOOTH",
"26 129 OFFCURVE",
"130 -10 OFFCURVE",
"339 -10 CURVE SMOOTH"
);
}
);
width = 704;
},
{
anchors = (
{
name = bottom;
position = "{355, 0}";
},
{
name = top;
position = "{355, 660}";
}
);
layerId = "17687776-AAFA-4856-A5EB-4A2EB08551C8";
paths = (
{
closed = 1;
nodes = (
"538 -10 OFFCURVE",
"661 117 OFFCURVE",
"661 330 CURVE SMOOTH",
"661 544 OFFCURVE",
"542 670 OFFCURVE",
"342 670 CURVE SMOOTH",
"202 670 OFFCURVE",
"88 604 OFFCURVE",
"48 462 CURVE",
"200 425 LINE",
"221 489 OFFCURVE",
"264 526 OFFCURVE",
"341 526 CURVE SMOOTH",
"441 526 OFFCURVE",
"497 463 OFFCURVE",
"497 341 CURVE SMOOTH",
"497 201 OFFCURVE",
"447 134 OFFCURVE",
"347 134 CURVE SMOOTH",
"264 134 OFFCURVE",
"201 180 OFFCURVE",
"201 279 CURVE SMOOTH",
"201 289 OFFCURVE",
"202 301 OFFCURVE",
"203 314 CURVE",
"120 255 LINE",
"569 255 LINE",
"569 359 LINE",
"43 359 LINE",
"41 339 OFFCURVE",
"39 320 OFFCURVE",
"39 301 CURVE SMOOTH",
"39 120 OFFCURVE",
"150 -10 OFFCURVE",
"340 -10 CURVE SMOOTH"
);
}
);
width = 708;
}
);
leftKerningGroup = O;
rightKerningGroup = O;
rightMetricsKey = O;
unicode = 018F;
},
{
export = 0;
glyphname = Adieresis.titl.rvrn;
layers = (
{
components = (
{
name = A;
}
);
layerId = "1C7CD022-87C7-4E11-B656-E47B18819458";
paths = (
{
closed = 1;
nodes = (
"201 618 OFFCURVE",
"205 619 OFFCURVE",
"208 620 CURVE",
"219 642 LINE",
"218 654 OFFCURVE",
"209 662 OFFCURVE",
"197 662 CURVE SMOOTH",
"184 662 OFFCURVE",
"175 653 OFFCURVE",
"175 640 CURVE SMOOTH",
"175 627 OFFCURVE",
"184 618 OFFCURVE",
"197 618 CURVE SMOOTH"
);
},
{
closed = 1;
nodes = (
"400 618 OFFCURVE",
"409 627 OFFCURVE",
"409 640 CURVE SMOOTH",
"409 653 OFFCURVE",
"400 662 OFFCURVE",
"387 662 CURVE SMOOTH",
"375 662 OFFCURVE",
"366 654 OFFCURVE",
"365 642 CURVE",
"376 620 LINE",
"379 619 OFFCURVE",
"383 618 OFFCURVE",
"387 618 CURVE SMOOTH"
);
}
);
width = 586;
},
{
components = (
{
name = A;
}
);
layerId = "4A17B37A-CBFD-40E5-9E02-2080A0E1F76C";
paths = (
{
closed = 1;
nodes = (
"200 553 OFFCURVE",
"207 554 OFFCURVE",
"213 556 CURVE",
"244 631 LINE",
"236 650 OFFCURVE",
"217 662 OFFCURVE",
"193 662 CURVE SMOOTH",
"161 662 OFFCURVE",
"139 640 OFFCURVE",
"139 608 CURVE SMOOTH",
"139 575 OFFCURVE",
"161 553 OFFCURVE",
"193 553 CURVE SMOOTH"
);
},
{
closed = 1;
nodes = (
"500 553 OFFCURVE",
"522 575 OFFCURVE",
"522 608 CURVE SMOOTH",
"522 640 OFFCURVE",
"500 662 OFFCURVE",
"468 662 CURVE SMOOTH",
"444 662 OFFCURVE",
"425 650 OFFCURVE",
"417 631 CURVE",
"448 556 LINE",
"454 554 OFFCURVE",
"461 553 OFFCURVE",
"468 553 CURVE SMOOTH"
);
}
);
width = 660;
},
{
components = (
{
alignment = -1;
name = A;
}
);
layerId = "4605B8F7-B96C-4225-97D4-41F6E85C553E";
paths = (
{
closed = 1;
nodes = (
"127 496 OFFCURVE",
"129 496 OFFCURVE",
"130 496 CURVE",
"177 653 LINE",
"163 659 OFFCURVE",
"145 662 OFFCURVE",
"124 662 CURVE SMOOTH",
"65 662 OFFCURVE",
"32 632 OFFCURVE",
"32 579 CURVE SMOOTH",
"32 526 OFFCURVE",
"65 496 OFFCURVE",
"124 496 CURVE SMOOTH"
);
},
{
closed = 1;
nodes = (
"623 496 OFFCURVE",
"656 526 OFFCURVE",
"656 579 CURVE SMOOTH",
"656 632 OFFCURVE",
"623 662 OFFCURVE",
"564 662 CURVE SMOOTH",
"543 662 OFFCURVE",
"525 659 OFFCURVE",
"511 653 CURVE",
"558 496 LINE",
"559 496 OFFCURVE",
"561 496 OFFCURVE",
"564 496 CURVE SMOOTH"
);
}
);
width = 689;
},
{
components = (
{
alignment = -1;
name = A;
}
);
layerId = "17687776-AAFA-4856-A5EB-4A2EB08551C8";
paths = (
{
closed = 1;
nodes = (
"161 518 OFFCURVE",
"166 518 OFFCURVE",
"169 519 CURVE",
"209 645 LINE",
"197 656 OFFCURVE",
"178 662 OFFCURVE",
"156 662 CURVE SMOOTH",
"110 662 OFFCURVE",
"82 636 OFFCURVE",
"82 590 CURVE SMOOTH",
"82 544 OFFCURVE",
"110 518 OFFCURVE",
"156 518 CURVE SMOOTH"
);
},
{
closed = 1;
nodes = (
"565 518 OFFCURVE",
"594 544 OFFCURVE",
"594 590 CURVE SMOOTH",
"594 636 OFFCURVE",
"565 662 OFFCURVE",
"519 662 CURVE SMOOTH",
"497 662 OFFCURVE",
"479 656 OFFCURVE",
"467 645 CURVE",
"506 519 LINE",
"510 518 OFFCURVE",
"515 518 OFFCURVE",
"519 518 CURVE SMOOTH"
);
}
);
width = 675;
}
);
leftKerningGroup = A;
rightKerningGroup = A;
},
{
export = 0;
glyphname = Odieresis.titl.rvrn;
layers = (
{
components = (
{
name = O;
}
);
layerId = "1C7CD022-87C7-4E11-B656-E47B18819458";
paths = (
{
closed = 1;
nodes = (
"518 639 OFFCURVE",
"519 643 OFFCURVE",
"519 648 CURVE SMOOTH",
"519 661 OFFCURVE",
"510 670 OFFCURVE",
"497 670 CURVE SMOOTH",
"486 670 OFFCURVE",
"479 664 OFFCURVE",
"476 655 CURVE",
"490 650 OFFCURVE",
"503 643 OFFCURVE",
"516 636 CURVE"
);
},
{
closed = 1;
nodes = (
"235 664 OFFCURVE",
"228 670 OFFCURVE",
"217 670 CURVE SMOOTH",
"204 670 OFFCURVE",
"195 661 OFFCURVE",
"195 648 CURVE SMOOTH",
"195 643 OFFCURVE",
"196 639 OFFCURVE",
"198 636 CURVE",
"211 643 OFFCURVE",
"224 650 OFFCURVE",
"238 655 CURVE"
);
}
);
width = 714;
},
{
components = (
{
name = O;
}
);
layerId = "4A17B37A-CBFD-40E5-9E02-2080A0E1F76C";
paths = (
{
closed = 1;
nodes = (
"651 575 OFFCURVE",
"662 593 OFFCURVE",
"662 616 CURVE SMOOTH",
"662 648 OFFCURVE",
"640 670 OFFCURVE",
"608 670 CURVE SMOOTH",
"584 670 OFFCURVE",
"565 658 OFFCURVE",
"557 639 CURVE",
"589 618 OFFCURVE",
"608 598 OFFCURVE",
"633 566 CURVE"
);
},
{
closed = 1;
nodes = (
"183 658 OFFCURVE",
"164 670 OFFCURVE",
"140 670 CURVE SMOOTH",
"108 670 OFFCURVE",
"86 648 OFFCURVE",
"86 616 CURVE SMOOTH",
"86 593 OFFCURVE",
"97 575 OFFCURVE",
"115 566 CURVE",
"138 596 OFFCURVE",
"157 617 OFFCURVE",
"191 639 CURVE"
);
}
);
width = 748;
},
{
components = (
{
alignment = -1;
name = O;
}
);
layerId = "4605B8F7-B96C-4225-97D4-41F6E85C553E";
paths = (
{
closed = 1;
nodes = (
"679 553 OFFCURVE",
"688 572 OFFCURVE",
"688 596 CURVE SMOOTH",
"688 642 OFFCURVE",
"657 670 OFFCURVE",
"603 670 CURVE SMOOTH",
"577 670 OFFCURVE",
"557 664 OFFCURVE",
"543 651 CURVE",
"588 628 OFFCURVE",
"636 587 OFFCURVE",
"663 539 CURVE"
);
},
{
closed = 1;
nodes = (
"173 664 OFFCURVE",
"152 670 OFFCURVE",
"125 670 CURVE SMOOTH",
"75 670 OFFCURVE",
"45 642 OFFCURVE",
"45 595 CURVE SMOOTH",
"45 573 OFFCURVE",
"53 555 OFFCURVE",
"68 542 CURVE",
"95 587 OFFCURVE",
"139 627 OFFCURVE",
"187 651 CURVE"
);
}
);
width = 729;
},
{
components = (
{
alignment = -1;
name = O;
}
);
layerId = "17687776-AAFA-4856-A5EB-4A2EB08551C8";
paths = (
{
closed = 1;
nodes = (
"666 561 OFFCURVE",
"676 580 OFFCURVE",
"676 604 CURVE SMOOTH",
"676 645 OFFCURVE",
"649 670 OFFCURVE",
"606 670 CURVE SMOOTH",
"581 670 OFFCURVE",
"561 661 OFFCURVE",
"549 647 CURVE",
"589 625 OFFCURVE",
"623 591 OFFCURVE",
"649 550 CURVE"
);
},
{
closed = 1;
nodes = (
"177 661 OFFCURVE",
"157 670 OFFCURVE",
"132 670 CURVE SMOOTH",
"91 670 OFFCURVE",
"64 645 OFFCURVE",
"64 603 CURVE SMOOTH",
"64 581 OFFCURVE",
"73 563 OFFCURVE",
"90 551 CURVE",
"115 591 OFFCURVE",
"148 624 OFFCURVE",
"189 647 CURVE"
);
}
);
width = 737;
}
);
leftKerningGroup = O;
rightKerningGroup = O;
},
{
export = 0;
glyphname = Udieresis.titl.rvrn;
layers = (
{
components = (
{
name = U;
}
);
layerId = "1C7CD022-87C7-4E11-B656-E47B18819458";
paths = (
{
closed = 1;
nodes = (
"345 498 OFFCURVE",
"354 507 OFFCURVE",
"354 520 CURVE SMOOTH",
"354 533 OFFCURVE",
"345 542 OFFCURVE",
"332 542 CURVE SMOOTH",
"319 542 OFFCURVE",
"310 533 OFFCURVE",
"310 520 CURVE SMOOTH",
"310 507 OFFCURVE",
"319 498 OFFCURVE",
"332 498 CURVE SMOOTH"
);
},
{
closed = 1;
nodes = (
"345 618 OFFCURVE",
"354 627 OFFCURVE",
"354 640 CURVE SMOOTH",
"354 653 OFFCURVE",
"345 662 OFFCURVE",
"332 662 CURVE SMOOTH",
"319 662 OFFCURVE",
"310 653 OFFCURVE",
"310 640 CURVE SMOOTH",
"310 627 OFFCURVE",
"319 618 OFFCURVE",
"332 618 CURVE SMOOTH"
);
}
);
width = 667;
},
{
components = (
{
name = U;
}
);
layerId = "4A17B37A-CBFD-40E5-9E02-2080A0E1F76C";
paths = (
{
closed = 1;
nodes = (
"387 403 OFFCURVE",
"409 425 OFFCURVE",
"409 458 CURVE SMOOTH",
"409 490 OFFCURVE",
"387 512 OFFCURVE",
"355 512 CURVE SMOOTH",
"322 512 OFFCURVE",
"300 490 OFFCURVE",
"300 458 CURVE SMOOTH",
"300 425 OFFCURVE",
"322 403 OFFCURVE",
"355 403 CURVE SMOOTH"
);
},
{
closed = 1;
nodes = (
"387 553 OFFCURVE",
"409 575 OFFCURVE",
"409 608 CURVE SMOOTH",
"409 640 OFFCURVE",
"387 662 OFFCURVE",
"354 662 CURVE SMOOTH",
"322 662 OFFCURVE",
"300 640 OFFCURVE",
"300 608 CURVE SMOOTH",
"300 575 OFFCURVE",
"322 553 OFFCURVE",
"354 553 CURVE SMOOTH"
);
}
);
width = 702;
},
{
components = (
{
alignment = -1;
name = U;
}
);
layerId = "4605B8F7-B96C-4225-97D4-41F6E85C553E";
paths = (
{
closed = 1;
nodes = (
"401 393 OFFCURVE",
"428 417 OFFCURVE",
"428 456 CURVE SMOOTH",
"428 497 OFFCURVE",
"401 521 OFFCURVE",
"355 521 CURVE SMOOTH",
"311 521 OFFCURVE",
"285 497 OFFCURVE",
"285 456 CURVE SMOOTH",
"285 417 OFFCURVE",
"311 393 OFFCURVE",
"355 393 CURVE SMOOTH"
);
},
{
closed = 1;
nodes = (
"400 535 OFFCURVE",
"428 557 OFFCURVE",
"428 599 CURVE SMOOTH",
"428 639 OFFCURVE",
"401 662 OFFCURVE",
"355 662 CURVE SMOOTH",
"311 662 OFFCURVE",
"285 639 OFFCURVE",
"285 599 CURVE SMOOTH",
"285 559 OFFCURVE",
"310 535 OFFCURVE",
"352 535 CURVE SMOOTH"
);
}
);
width = 751;
},
{
components = (
{
alignment = -1;
name = U;
}
);
layerId = "17687776-AAFA-4856-A5EB-4A2EB08551C8";
paths = (
{
closed = 1;
nodes = (
"395 397 OFFCURVE",
"419 421 OFFCURVE",
"419 457 CURVE SMOOTH",
"419 494 OFFCURVE",
"395 518 OFFCURVE",
"355 518 CURVE SMOOTH",
"316 518 OFFCURVE",
"292 494 OFFCURVE",
"292 457 CURVE SMOOTH",
"292 421 OFFCURVE",
"316 397 OFFCURVE",
"355 397 CURVE SMOOTH"
);
},
{
closed = 1;
nodes = (
"394 542 OFFCURVE",
"419 564 OFFCURVE",
"419 603 CURVE SMOOTH",
"419 639 OFFCURVE",
"395 662 OFFCURVE",
"354 662 CURVE SMOOTH",
"316 662 OFFCURVE",
"292 639 OFFCURVE",
"292 603 CURVE SMOOTH",
"292 565 OFFCURVE",
"315 542 OFFCURVE",
"353 542 CURVE SMOOTH"
);
}
);
width = 742;
}
);
leftKerningGroup = U;
leftMetricsKey = U;
rightKerningGroup = U;
rightMetricsKey = U;
},
{
export = 0;
glyphname = R.ss03;
layers = (
{
anchors = (
{
name = bottom;
position = "{346, 0}";
},
{
name = ogonek;
position = "{557, 0}";
},
{
name = top;
position = "{293, 660}";
}
);
layerId = "1C7CD022-87C7-4E11-B656-E47B18819458";
paths = (
{
closed = 1;
nodes = (
"115 0 LINE",
"115 300 LINE",
"351 300 LINE SMOOTH",
"459 300 OFFCURVE",
"513 245 OFFCURVE",
"515 157 CURVE SMOOTH",
"518 36 OFFCURVE",
"531 14 OFFCURVE",
"539 0 CURVE",
"557 0 LINE",
"557 2 LINE",
"548 14 OFFCURVE",
"535 22 OFFCURVE",
"531 160 CURVE SMOOTH",
"529 243 OFFCURVE",
"486 295 OFFCURVE",
"399 308 CURVE",
"399 309 LINE",
"487 322 OFFCURVE",
"547 384 OFFCURVE",
"547 480 CURVE SMOOTH",
"547 592 OFFCURVE",
"467 660 OFFCURVE",
"338 660 CURVE SMOOTH",
"99 660 LINE",
"99 0 LINE"
);
},
{
closed = 1;
nodes = (
"115 646 LINE",
"338 646 LINE SMOOTH",
"459 646 OFFCURVE",
"531 584 OFFCURVE",
"531 480 CURVE SMOOTH",
"531 376 OFFCURVE",
"459 314 OFFCURVE",
"338 314 CURVE SMOOTH",
"115 314 LINE"
);
}
);
width = 612;
},
{
anchors = (
{
name = bottom;
position = "{365, 0}";
},
{
name = ogonek;
position = "{591, 0}";
},
{
name = top;
position = "{322, 660}";
}
);
layerId = "4A17B37A-CBFD-40E5-9E02-2080A0E1F76C";
paths = (
{
closed = 1;
nodes = (
"188 0 LINE",
"188 274 LINE",
"328 274 LINE SMOOTH",
"431 274 OFFCURVE",
"477 233 OFFCURVE",
"481 156 CURVE SMOOTH",
"486 63 OFFCURVE",
"495 23 OFFCURVE",
"505 0 CURVE",
"591 0 LINE",
"591 3 LINE",
"578 24 OFFCURVE",
"567 45 OFFCURVE",
"560 164 CURVE SMOOTH",
"557 236 OFFCURVE",
"520 285 OFFCURVE",
"443 298 CURVE",
"443 300 LINE",
"533 322 OFFCURVE",
"581 381 OFFCURVE",
"581 467 CURVE SMOOTH",
"581 586 OFFCURVE",
"492 660 OFFCURVE",
"358 660 CURVE SMOOTH",
"108 660 LINE",
"108 0 LINE"
);
},
{
closed = 1;
nodes = (
"188 585 LINE",
"357 585 LINE SMOOTH",
"451 585 OFFCURVE",
"497 546 OFFCURVE",
"497 467 CURVE SMOOTH",
"497 388 OFFCURVE",
"451 349 OFFCURVE",
"357 349 CURVE SMOOTH",
"188 349 LINE"
);
}
);
width = 655;
},
{
anchors = (
{
name = bottom;
position = "{362, 0}";
},
{
name = ogonek;
position = "{685, 0}";
},
{
name = top;
position = "{334, 660}";
}
);
layerId = "4605B8F7-B96C-4225-97D4-41F6E85C553E";
paths = (
{
closed = 1;
nodes = (
"278 0 LINE",
"278 213 LINE",
"330 213 LINE SMOOTH",
"379 213 OFFCURVE",
"404 201 OFFCURVE",
"415 153 CURVE SMOOTH",
"429 90 OFFCURVE",
"425 45 OFFCURVE",
"442 0 CURVE",
"685 0 LINE",
"685 5 LINE",
"661 50 OFFCURVE",
"657 105 OFFCURVE",
"643 176 CURVE SMOOTH",
"635 216 OFFCURVE",
"616 256 OFFCURVE",
"551 275 CURVE",
"551 277 LINE",
"619 298 OFFCURVE",
"675 339 OFFCURVE",
"675 447 CURVE SMOOTH",
"675 586 OFFCURVE",
"584 660 OFFCURVE",
"408 660 CURVE SMOOTH",
"50 660 LINE",
"50 0 LINE"
);
},
{
closed = 1;
nodes = (
"278 484 LINE",
"361 484 LINE SMOOTH",
"420 484 OFFCURVE",
"442 469 OFFCURVE",
"442 429 CURVE SMOOTH",
"442 388 OFFCURVE",
"420 375 OFFCURVE",
"361 375 CURVE SMOOTH",
"278 375 LINE"
);
}
);
width = 705;
},
{
anchors = (
{
name = bottom;
position = "{364, 0}";
},
{
name = ogonek;
position = "{641, 0}";
},
{
name = top;
position = "{329, 660}";
}
);
layerId = "17687776-AAFA-4856-A5EB-4A2EB08551C8";
paths = (
{
closed = 1;
nodes = (
"236 0 LINE",
"236 236 LINE",
"329 236 LINE SMOOTH",
"404 236 OFFCURVE",
"438 213 OFFCURVE",
"446 154 CURVE SMOOTH",
"455 80 OFFCURVE",
"457 37 OFFCURVE",
"472 0 CURVE",
"641 0 LINE",
"641 4 LINE",
"623 40 OFFCURVE",
"615 82 OFFCURVE",
"605 172 CURVE SMOOTH",
"598 224 OFFCURVE",
"571 267 OFFCURVE",
"500 284 CURVE",
"500 286 LINE",
"579 307 OFFCURVE",
"631 355 OFFCURVE",
"631 455 CURVE SMOOTH",
"631 586 OFFCURVE",
"541 660 OFFCURVE",
"384 660 CURVE SMOOTH",
"77 660 LINE",
"77 0 LINE"
);
},
{
closed = 1;
nodes = (
"236 522 LINE",
"359 522 LINE SMOOTH",
"435 522 OFFCURVE",
"467 498 OFFCURVE",
"467 443 CURVE SMOOTH",
"467 388 OFFCURVE",
"435 365 OFFCURVE",
"359 365 CURVE SMOOTH",
"236 365 LINE"
);
}
);
width = 681;
}
);
leftKerningGroup = I;
rightKerningGroup = R;
userData = {
com.typemytype.robofont.layerData = {
background = {
anchors = (
);
components = (
{
baseGlyph = R;
transformation = (
1,
0,
0,
1,
"-600",
0
);
}
);
contours = (
{
points = (
{
segmentType = line;
smooth = 0;
x = 114;
y = 300;
},
{
segmentType = line;
smooth = 1;
x = 356;
y = 300;
},
{
smooth = 0;
x = 464;
y = 300;
},
{
smooth = 0;
x = 515;
y = 245;
},
{
segmentType = curve;
smooth = 1;
x = 518;
y = 157;
},
{
smooth = 0;
x = 521;
y = 25;
},
{
smooth = 0;
x = 536;
y = 6;
},
{
segmentType = curve;
smooth = 0;
x = 542;
y = 0;
},
{
segmentType = line;
smooth = 0;
x = 558;
y = 0;
},
{
segmentType = line;
smooth = 0;
x = 558;
y = 2;
},
{
smooth = 0;
x = 550;
y = 10;
},
{
smooth = 0;
x = 535;
y = 22;
},
{
segmentType = curve;
smooth = 1;
x = 531;
y = 160;
},
{
smooth = 0;
x = 529;
y = 243;
},
{
smooth = 0;
x = 483;
y = 294;
},
{
segmentType = curve;
smooth = 0;
x = 401;
y = 308;
},
{
smooth = 0;
x = 495;
y = 325;
},
{
smooth = 0;
x = 545;
y = 391;
},
{
segmentType = curve;
smooth = 1;
x = 545;
y = 484;
},
{
smooth = 0;
x = 545;
y = 598;
},
{
smooth = 0;
x = 457;
y = 660;
},
{
segmentType = curve;
smooth = 1;
x = 336;
y = 660;
},
{
segmentType = line;
smooth = 0;
x = 100;
y = 660;
},
{
segmentType = line;
smooth = 0;
x = 100;
y = 0;
},
{
segmentType = line;
smooth = 0;
x = 114;
y = 0;
}
);
},
{
points = (
{
segmentType = line;
smooth = 0;
x = 114;
y = 647;
},
{
segmentType = line;
smooth = 1;
x = 336;
y = 647;
},
{
smooth = 0;
x = 450;
y = 647;
},
{
smooth = 0;
x = 531;
y = 588;
},
{
segmentType = curve;
smooth = 1;
x = 531;
y = 484;
},
{
smooth = 0;
x = 531;
y = 375;
},
{
smooth = 0;
x = 462;
y = 313;
},
{
segmentType = curve;
smooth = 1;
x = 330;
y = 313;
},
{
segmentType = line;
smooth = 0;
x = 114;
y = 313;
}
);
}
);
lib = {
};
name = R.alt;
unicodes = (
);
width = 612;
};
};
};
},
{
export = 0;
glyphname = G.ss04;
layers = (
{
anchors = (
{
name = bottom;
position = "{336, 0}";
},
{
name = ogonek;
position = "{415, 0}";
},
{
name = top;
position = "{328, 660}";
}
);
layerId = "1C7CD022-87C7-4E11-B656-E47B18819458";
paths = (
{
closed = 1;
nodes = (
"538 -10 OFFCURVE",
"601 141 OFFCURVE",
"601 294 CURVE SMOOTH",
"601 311 LINE",
"338 311 LINE",
"338 297 LINE",
"593 297 LINE",
"586 305 LINE",
"586 300 LINE SMOOTH",
"586 174 OFFCURVE",
"546 4 OFFCURVE",
"332 4 CURVE SMOOTH",
"165 4 OFFCURVE",
"57 130 OFFCURVE",
"57 330 CURVE SMOOTH",
"57 530 OFFCURVE",
"168 656 OFFCURVE",
"334 656 CURVE SMOOTH",
"464 656 OFFCURVE",
"543 601 OFFCURVE",
"576 489 CURVE",
"590 496 LINE",
"557 612 OFFCURVE",
"473 670 OFFCURVE",
"334 670 CURVE SMOOTH",
"158 670 OFFCURVE",
"41 539 OFFCURVE",
"41 330 CURVE SMOOTH",
"41 121 OFFCURVE",
"155 -10 OFFCURVE",
"332 -10 CURVE SMOOTH"
);
}
);
width = 641;
},
{
anchors = (
{
name = bottom;
position = "{385, 0}";
},
{
name = ogonek;
position = "{434, 0}";
},
{
name = top;
position = "{353, 660}";
}
);
layerId = "4A17B37A-CBFD-40E5-9E02-2080A0E1F76C";
paths = (
{
closed = 1;
nodes = (
"540 -10 OFFCURVE",
"638 103 OFFCURVE",
"638 272 CURVE SMOOTH",
"638 333 LINE",
"342 333 LINE",
"342 258 LINE",
"604 258 LINE",
"562 299 LINE",
"562 252 LINE SMOOTH",
"562 168 OFFCURVE",
"509 65 OFFCURVE",
"360 65 CURVE SMOOTH",
"212 65 OFFCURVE",
"132 164 OFFCURVE",
"132 330 CURVE SMOOTH",
"132 496 OFFCURVE",
"222 595 OFFCURVE",
"356 595 CURVE SMOOTH",
"448 595 OFFCURVE",
"518 555 OFFCURVE",
"547 479 CURVE",
"620 519 LINE",
"569 621 OFFCURVE",
"487 670 OFFCURVE",
"356 670 CURVE SMOOTH",
"171 670 OFFCURVE",
"48 539 OFFCURVE",
"48 330 CURVE SMOOTH",
"48 121 OFFCURVE",
"166 -10 OFFCURVE",
"354 -10 CURVE SMOOTH"
);
}
);
width = 704;
},
{
anchors = (
{
name = bottom;
position = "{379, 0}";
},
{
name = ogonek;
position = "{401, 0}";
},
{
name = top;
position = "{364, 660}";
}
);
layerId = "4605B8F7-B96C-4225-97D4-41F6E85C553E";
paths = (
{
closed = 1;
nodes = (
"551 -10 OFFCURVE",
"687 62 OFFCURVE",
"687 281 CURVE SMOOTH",
"687 379 LINE",
"371 379 LINE",
"371 237 LINE",
"595 237 LINE",
"492 283 LINE",
"492 230 LINE SMOOTH",
"492 197 OFFCURVE",
"454 176 OFFCURVE",
"392 176 CURVE SMOOTH",
"303 176 OFFCURVE",
"267 210 OFFCURVE",
"267 330 CURVE SMOOTH",
"267 439 OFFCURVE",
"307 484 OFFCURVE",
"373 484 CURVE SMOOTH",
"428 484 OFFCURVE",
"453 460 OFFCURVE",
"462 403 CURVE",
"679 486 LINE",
"625 619 OFFCURVE",
"534 670 OFFCURVE",
"371 670 CURVE SMOOTH",
"156 670 OFFCURVE",
"29 545 OFFCURVE",
"29 328 CURVE SMOOTH",
"29 101 OFFCURVE",
"168 -10 OFFCURVE",
"368 -10 CURVE SMOOTH"
);
}
);
width = 722;
},
{
anchors = (
{
name = bottom;
position = "{391, 0}";
},
{
name = ogonek;
position = "{426, 0}";
},
{
name = top;
position = "{368, 660}";
}
);
layerId = "17687776-AAFA-4856-A5EB-4A2EB08551C8";
paths = (
{
closed = 1;
nodes = (
"555 -10 OFFCURVE",
"674 78 OFFCURVE",
"674 278 CURVE SMOOTH",
"674 362 LINE",
"367 362 LINE",
"367 245 LINE",
"608 245 LINE",
"534 289 LINE",
"534 238 LINE SMOOTH",
"534 186 OFFCURVE",
"489 134 OFFCURVE",
"387 134 CURVE SMOOTH",
"270 134 OFFCURVE",
"214 193 OFFCURVE",
"214 330 CURVE SMOOTH",
"214 461 OFFCURVE",
"276 526 OFFCURVE",
"375 526 CURVE SMOOTH",
"446 526 OFFCURVE",
"492 496 OFFCURVE",
"511 432 CURVE",
"661 498 LINE",
"608 620 OFFCURVE",
"522 670 OFFCURVE",
"374 670 CURVE SMOOTH",
"173 670 OFFCURVE",
"47 542 OFFCURVE",
"47 329 CURVE SMOOTH",
"47 109 OFFCURVE",
"177 -10 OFFCURVE",
"371 -10 CURVE SMOOTH"
);
}
);
width = 722;
}
);
leftKerningGroup = O;
leftMetricsKey = O;
rightKerningGroup = G;
userData = {
com.typemytype.robofont.layerData = {
background = {
anchors = (
);
components = (
);
contours = (
{
points = (
{
smooth = 0;
x = 152;
y = 670;
},
{
smooth = 0;
x = 36;
y = 539;
},
{
segmentType = curve;
smooth = 1;
x = 36;
y = 330;
},
{
smooth = 0;
x = 36;
y = 121;
},
{
smooth = 0;
x = 152;
y = "-10";
},
{
segmentType = curve;
smooth = 1;
x = 337;
y = "-10";
},
{
smooth = 0;
x = 522;
y = "-10";
},
{
smooth = 0;
x = 638;
y = 121;
},
{
segmentType = curve;
smooth = 1;
x = 638;
y = 330;
},
{
smooth = 0;
x = 638;
y = 539;
},
{
smooth = 0;
x = 522;
y = 670;
},
{
segmentType = curve;
smooth = 1;
x = 337;
y = 670;
}
);
},
{
points = (
{
smooth = 0;
x = 512;
y = 656;
},
{
smooth = 0;
x = 622;
y = 530;
},
{
segmentType = curve;
smooth = 1;
x = 622;
y = 330;
},
{
smooth = 0;
x = 622;
y = 130;
},
{
smooth = 0;
x = 512;
y = 4;
},
{
segmentType = curve;
smooth = 1;
x = 337;
y = 4;
},
{
smooth = 0;
x = 162;
y = 4;
},
{
smooth = 0;
x = 52;
y = 130;
},
{
segmentType = curve;
smooth = 1;
x = 52;
y = 330;
},
{
smooth = 0;
x = 52;
y = 530;
},
{
smooth = 0;
x = 162;
y = 656;
},
{
segmentType = curve;
smooth = 1;
x = 337;
y = 656;
}
);
}
);
lib = {
};
name = G.alt;
unicodes = (
);
width = 684;
};
};
};
},
{
export = 0;
glyphname = IJ.ss05;
layers = (
{
layerId = "1C7CD022-87C7-4E11-B656-E47B18819458";
paths = (
{
closed = 1;
nodes = (
"410 -10 OFFCURVE",
"478 75 OFFCURVE",
"478 209 CURVE SMOOTH",
"478 660 LINE",
"462 660 LINE",
"462 209 LINE SMOOTH",
"462 84 OFFCURVE",
"400 4 OFFCURVE",
"282 4 CURVE SMOOTH",
"162 4 OFFCURVE",
"111 61 OFFCURVE",
"111 163 CURVE",
"95 163 LINE",
"95 49 OFFCURVE",
"150 -10 OFFCURVE",
"282 -10 CURVE SMOOTH"
);
},
{
closed = 1;
nodes = (
"115 262 LINE",
"115 660 LINE",
"99 660 LINE",
"99 262 LINE"
);
}
);
width = 546;
},
{
layerId = "4A17B37A-CBFD-40E5-9E02-2080A0E1F76C";
paths = (
{
closed = 1;
nodes = (
"446 -10 OFFCURVE",
"532 78 OFFCURVE",
"532 226 CURVE SMOOTH",
"532 660 LINE",
"452 660 LINE",
"452 245 LINE SMOOTH",
"452 127 OFFCURVE",
"413 65 OFFCURVE",
"313 65 CURVE SMOOTH",
"226 65 OFFCURVE",
"178 106 OFFCURVE",
"189 191 CURVE",
"112 191 LINE",
"97 63 OFFCURVE",
"170 -10 OFFCURVE",
"313 -10 CURVE SMOOTH"
);
},
{
closed = 1;
nodes = (
"188 287 LINE",
"188 660 LINE",
"108 660 LINE",
"108 287 LINE"
);
}
);
width = 607;
},
{
layerId = "4605B8F7-B96C-4225-97D4-41F6E85C553E";
paths = (
{
closed = 1;
nodes = (
"531 -10 OFFCURVE",
"647 97 OFFCURVE",
"647 277 CURVE SMOOTH",
"647 660 LINE",
"414 660 LINE",
"414 267 LINE SMOOTH",
"414 200 OFFCURVE",
"394 176 OFFCURVE",
"348 176 CURVE SMOOTH",
"297 176 OFFCURVE",
"278 201 OFFCURVE",
"284 254 CURVE",
"50 254 LINE",
"29 76 OFFCURVE",
"144 -10 OFFCURVE",
"341 -10 CURVE SMOOTH"
);
},
{
closed = 1;
nodes = (
"283 293 LINE",
"283 660 LINE",
"50 660 LINE",
"50 293 LINE"
);
}
);
width = 689;
},
{
layerId = "17687776-AAFA-4856-A5EB-4A2EB08551C8";
paths = (
{
closed = 1;
nodes = (
"492 -10 OFFCURVE",
"594 90 OFFCURVE",
"594 258 CURVE SMOOTH",
"594 660 LINE",
"432 660 LINE",
"432 259 LINE SMOOTH",
"432 173 OFFCURVE",
"403 134 OFFCURVE",
"331 134 CURVE SMOOTH",
"264 134 OFFCURVE",
"232 165 OFFCURVE",
"239 230 CURVE",
"79 230 LINE",
"61 72 OFFCURVE",
"156 -10 OFFCURVE",
"328 -10 CURVE SMOOTH"
);
},
{
closed = 1;
nodes = (
"238 290 LINE",
"238 660 LINE",
"77 660 LINE",
"77 290 LINE"
);
}
);
width = 659;
}
);
leftKerningGroup = I;
rightKerningGroup = I;
rightMetricsKey = J;
},
{
export = 0;
glyphname = G.ss10;
layers = (
{
anchors = (
{
name = bottom;
position = "{417, 0}";
},
{
name = ogonek;
position = "{474, 0}";
},
{
name = top;
position = "{384, 730}";
}
);
layerId = "4A17B37A-CBFD-40E5-9E02-2080A0E1F76C";
paths = (
{
closed = 1;
nodes = (
"509 -11 OFFCURVE",
"594 43 OFFCURVE",
"632 137 CURVE",
"614 140 LINE",
"619 0 LINE",
"684 0 LINE",
"684 366 LINE",
"373 366 LINE",
"373 288 LINE",
"609 288 LINE",
"609 261 LINE SMOOTH",
"609 137 OFFCURVE",
"517 67 OFFCURVE",
"389 67 CURVE SMOOTH",
"224 67 OFFCURVE",
"135 178 OFFCURVE",
"135 365 CURVE SMOOTH",
"135 552 OFFCURVE",
"242 663 OFFCURVE",
"392 663 CURVE SMOOTH",
"497 663 OFFCURVE",
"571 618 OFFCURVE",
"603 531 CURVE",
"679 572 LINE",
"624 686 OFFCURVE",
"537 741 OFFCURVE",
"392 741 CURVE SMOOTH",
"189 741 OFFCURVE",
"48 596 OFFCURVE",
"48 365 CURVE SMOOTH",
"48 134 OFFCURVE",
"179 -11 OFFCURVE",
"386 -11 CURVE SMOOTH"
);
}
);
width = 763;
},
{
anchors = (
{
name = bottom;
position = "{367, 0}";
},
{
name = ogonek;
position = "{455, 0}";
},
{
name = top;
position = "{358, 730}";
}
);
layerId = "1C7CD022-87C7-4E11-B656-E47B18819458";
paths = (
{
closed = 1;
nodes = (
"512 -11 OFFCURVE",
"606 65 OFFCURVE",
"637 181 CURVE",
"636 184 LINE",
"636 0 LINE",
"654 0 LINE",
"654 344 LINE",
"369 344 LINE",
"369 329 LINE",
"636 329 LINE",
"636 270 LINE SMOOTH",
"636 174 OFFCURVE",
"582 4 OFFCURVE",
"372 4 CURVE SMOOTH",
"178 4 OFFCURVE",
"59 144 OFFCURVE",
"59 365 CURVE SMOOTH",
"59 586 OFFCURVE",
"181 726 OFFCURVE",
"365 726 CURVE SMOOTH",
"509 726 OFFCURVE",
"596 665 OFFCURVE",
"633 541 CURVE",
"648 549 LINE",
"612 677 OFFCURVE",
"519 741 OFFCURVE",
"365 741 CURVE SMOOTH",
"170 741 OFFCURVE",
"41 596 OFFCURVE",
"41 365 CURVE SMOOTH",
"41 134 OFFCURVE",
"167 -11 OFFCURVE",
"372 -11 CURVE SMOOTH"
);
}
);
width = 720;
},
{
anchors = (
{
name = bottom;
position = "{414, 0}";
},
{
name = ogonek;
position = "{443, 0}";
},
{
name = top;
position = "{395, 730}";
}
);
layerId = "4605B8F7-B96C-4225-97D4-41F6E85C553E";
paths = (
{
closed = 1;
nodes = (
"480 -11 OFFCURVE",
"550 48 OFFCURVE",
"577 149 CURVE",
"540 183 LINE",
"546 0 LINE",
"734 0 LINE",
"734 402 LINE",
"399 402 LINE",
"399 260 LINE",
"538 260 LINE",
"538 254 LINE SMOOTH",
"538 207 OFFCURVE",
"486 179 OFFCURVE",
"417 179 CURVE SMOOTH",
"314 179 OFFCURVE",
"267 239 OFFCURVE",
"267 365 CURVE SMOOTH",
"267 478 OFFCURVE",
"315 535 OFFCURVE",
"408 535 CURVE SMOOTH",
"462 535 OFFCURVE",
"505 510 OFFCURVE",
"521 454 CURVE",
"739 544 LINE",
"682 677 OFFCURVE",
"580 741 OFFCURVE",
"412 741 CURVE SMOOTH",
"163 741 OFFCURVE",
"29 600 OFFCURVE",
"29 363 CURVE SMOOTH",
"29 118 OFFCURVE",
"170 -11 OFFCURVE",
"361 -11 CURVE SMOOTH"
);
}
);
width = 778;
},
{
anchors = (
{
name = bottom;
position = "{426, 0}";
},
{
name = ogonek;
position = "{468, 0}";
},
{
name = top;
position = "{399, 730}";
}
);
layerId = "17687776-AAFA-4856-A5EB-4A2EB08551C8";
paths = (
{
closed = 1;
nodes = (
"507 -11 OFFCURVE",
"587 45 OFFCURVE",
"621 144 CURVE",
"593 168 LINE",
"602 0 LINE",
"720 0 LINE",
"720 392 LINE",
"396 392 LINE",
"396 268 LINE",
"580 268 LINE",
"580 256 LINE SMOOTH",
"580 173 OFFCURVE",
"509 132 OFFCURVE",
"414 132 CURVE SMOOTH",
"281 132 OFFCURVE",
"214 209 OFFCURVE",
"214 365 CURVE SMOOTH",
"214 513 OFFCURVE",
"289 594 OFFCURVE",
"409 594 CURVE SMOOTH",
"488 594 OFFCURVE",
"545 561 OFFCURVE",
"568 487 CURVE",
"718 555 LINE",
"661 683 OFFCURVE",
"568 741 OFFCURVE",
"409 741 CURVE SMOOTH",
"188 741 OFFCURVE",
"47 598 OFFCURVE",
"47 364 CURVE SMOOTH",
"47 123 OFFCURVE",
"183 -11 OFFCURVE",
"383 -11 CURVE SMOOTH"
);
}
);
width = 780;
}
);
leftKerningGroup = O;
leftMetricsKey = O;
rightKerningGroup = G;
},
{
export = 0;
glyphname = Adieresis.titl;
layers = (
{
components = (
{
name = A;
}
);
layerId = "1C7CD022-87C7-4E11-B656-E47B18819458";
paths = (
{
closed = 1;
nodes = (
"400 618 OFFCURVE",
"409 627 OFFCURVE",
"409 640 CURVE SMOOTH",
"409 653 OFFCURVE",
"400 662 OFFCURVE",
"387 662 CURVE SMOOTH",
"374 662 OFFCURVE",
"365 653 OFFCURVE",
"365 640 CURVE SMOOTH",
"365 627 OFFCURVE",
"374 618 OFFCURVE",
"387 618 CURVE SMOOTH"
);
},
{
closed = 1;
nodes = (
"210 618 OFFCURVE",
"219 627 OFFCURVE",
"219 640 CURVE SMOOTH",
"219 653 OFFCURVE",
"210 662 OFFCURVE",
"197 662 CURVE SMOOTH",
"184 662 OFFCURVE",
"175 653 OFFCURVE",
"175 640 CURVE SMOOTH",
"175 627 OFFCURVE",
"184 618 OFFCURVE",
"197 618 CURVE SMOOTH"
);
}
);
width = 586;
},
{
components = (
{
name = A;
}
);
layerId = "4A17B37A-CBFD-40E5-9E02-2080A0E1F76C";
paths = (
{
closed = 1;
nodes = (
"520 553 OFFCURVE",
"542 575 OFFCURVE",
"542 608 CURVE SMOOTH",
"542 640 OFFCURVE",
"520 662 OFFCURVE",
"488 662 CURVE SMOOTH",
"455 662 OFFCURVE",
"433 640 OFFCURVE",
"433 608 CURVE SMOOTH",
"433 575 OFFCURVE",
"455 553 OFFCURVE",
"488 553 CURVE SMOOTH"
);
},
{
closed = 1;
nodes = (
"206 553 OFFCURVE",
"228 575 OFFCURVE",
"228 608 CURVE SMOOTH",
"228 640 OFFCURVE",
"206 662 OFFCURVE",
"173 662 CURVE SMOOTH",
"141 662 OFFCURVE",
"119 640 OFFCURVE",
"119 608 CURVE SMOOTH",
"119 575 OFFCURVE",
"141 553 OFFCURVE",
"173 553 CURVE SMOOTH"
);
}
);
width = 660;
},
{
components = (
{
alignment = -1;
name = A;
}
);
layerId = "4605B8F7-B96C-4225-97D4-41F6E85C553E";
paths = (
{
closed = 1;
nodes = (
"708 472 OFFCURVE",
"746 505.992 OFFCURVE",
"746 567 CURVE SMOOTH",
"746 628 OFFCURVE",
"708 662 OFFCURVE",
"641 662 CURVE SMOOTH",
"576 662 OFFCURVE",
"539 628 OFFCURVE",
"539 567 CURVE SMOOTH",
"539 505.992 OFFCURVE",
"576 472 OFFCURVE",
"641 472 CURVE SMOOTH"
);
},
{
closed = 1;
nodes = (
"111 472 OFFCURVE",
"149 505.992 OFFCURVE",
"149 567 CURVE SMOOTH",
"149 628 OFFCURVE",
"111 662 OFFCURVE",
"44 662 CURVE SMOOTH",
"-21 662 OFFCURVE",
"-58 628 OFFCURVE",
"-58 567 CURVE SMOOTH",
"-58 505.992 OFFCURVE",
"-21 472 OFFCURVE",
"44 472 CURVE SMOOTH"
);
}
);
width = 689;
},
{
components = (
{
alignment = -1;
name = A;
}
);
layerId = "17687776-AAFA-4856-A5EB-4A2EB08551C8";
paths = (
{
closed = 1;
nodes = (
"621 503 OFFCURVE",
"651 532 OFFCURVE",
"651 583 CURVE SMOOTH",
"651 632 OFFCURVE",
"621 662 OFFCURVE",
"569 662 CURVE SMOOTH",
"519 662 OFFCURVE",
"489 632 OFFCURVE",
"489 583 CURVE SMOOTH",
"489 532 OFFCURVE",
"519 503 OFFCURVE",
"569 503 CURVE SMOOTH"
);
},
{
closed = 1;
nodes = (
"156 503 OFFCURVE",
"186 532 OFFCURVE",
"186 583 CURVE SMOOTH",
"186 632 OFFCURVE",
"156 662 OFFCURVE",
"104 662 CURVE SMOOTH",
"54 662 OFFCURVE",
"24 632 OFFCURVE",
"24 583 CURVE SMOOTH",
"24 532 OFFCURVE",
"54 503 OFFCURVE",
"104 503 CURVE SMOOTH"
);
}
);
width = 675;
}
);
leftKerningGroup = A;
rightKerningGroup = A;
},
{
export = 0;
glyphname = Odieresis.titl;
layers = (
{
components = (
{
name = O;
}
);
layerId = "1C7CD022-87C7-4E11-B656-E47B18819458";
paths = (
{
closed = 1;
nodes = (
"274 600 OFFCURVE",
"265 591 OFFCURVE",
"265 578 CURVE SMOOTH",
"265 565 OFFCURVE",
"274 556 OFFCURVE",
"287 556 CURVE SMOOTH",
"300 556 OFFCURVE",
"309 565 OFFCURVE",
"309 578 CURVE SMOOTH",
"309 591 OFFCURVE",
"300 600 OFFCURVE",
"287 600 CURVE SMOOTH"
);
},
{
closed = 1;
nodes = (
"414 600 OFFCURVE",
"405 591 OFFCURVE",
"405 578 CURVE SMOOTH",
"405 565 OFFCURVE",
"414 556 OFFCURVE",
"427 556 CURVE SMOOTH",
"440 556 OFFCURVE",
"449 565 OFFCURVE",
"449 578 CURVE SMOOTH",
"449 591 OFFCURVE",
"440 600 OFFCURVE",
"427 600 CURVE SMOOTH"
);
}
);
width = 714;
},
{
components = (
{
name = O;
}
);
layerId = "4A17B37A-CBFD-40E5-9E02-2080A0E1F76C";
paths = (
{
closed = 1;
nodes = (
"275 560 OFFCURVE",
"253 538 OFFCURVE",
"253 506 CURVE SMOOTH",
"253 473 OFFCURVE",
"275 451 OFFCURVE",
"307 451 CURVE SMOOTH",
"340 451 OFFCURVE",
"362 473 OFFCURVE",
"362 506 CURVE SMOOTH",
"362 538 OFFCURVE",
"340 560 OFFCURVE",
"307 560 CURVE SMOOTH"
);
},
{
closed = 1;
nodes = (
"408 560 OFFCURVE",
"386 538 OFFCURVE",
"386 506 CURVE SMOOTH",
"386 473 OFFCURVE",
"408 451 OFFCURVE",
"441 451 CURVE SMOOTH",
"473 451 OFFCURVE",
"495 473 OFFCURVE",
"495 506 CURVE SMOOTH",
"495 538 OFFCURVE",
"473 560 OFFCURVE",
"441 560 CURVE SMOOTH"
);
}
);
width = 748;
},
{
components = (
{
alignment = -1;
name = O;
}
);
layerId = "4605B8F7-B96C-4225-97D4-41F6E85C553E";
paths = (
{
closed = 1;
nodes = (
"251 436 OFFCURVE",
"225 412 OFFCURVE",
"225 371 CURVE SMOOTH",
"225 333 OFFCURVE",
"251 309 OFFCURVE",
"295 309 CURVE SMOOTH",
"341 309 OFFCURVE",
"368 333 OFFCURVE",
"368 371 CURVE SMOOTH",
"368 412 OFFCURVE",
"341 436 OFFCURVE",
"295 436 CURVE SMOOTH"
);
},
{
closed = 1;
nodes = (
"387 436 OFFCURVE",
"361 413 OFFCURVE",
"361 374 CURVE SMOOTH",
"361 334 OFFCURVE",
"386 310 OFFCURVE",
"428 310 CURVE SMOOTH",
"476 310 OFFCURVE",
"504 332 OFFCURVE",
"504 374 CURVE SMOOTH",
"504 413 OFFCURVE",
"477 436 OFFCURVE",
"431 436 CURVE SMOOTH"
);
}
);
width = 729;
},
{
components = (
{
alignment = -1;
name = O;
}
);
layerId = "17687776-AAFA-4856-A5EB-4A2EB08551C8";
paths = (
{
closed = 1;
nodes = (
"262 483 OFFCURVE",
"238 459 OFFCURVE",
"238 422 CURVE SMOOTH",
"238 386 OFFCURVE",
"262 362 OFFCURVE",
"300 362 CURVE SMOOTH",
"340 362 OFFCURVE",
"365 386 OFFCURVE",
"365 422 CURVE SMOOTH",
"365 459 OFFCURVE",
"340 483 OFFCURVE",
"300 483 CURVE SMOOTH"
);
},
{
closed = 1;
nodes = (
"397 483 OFFCURVE",
"372 460 OFFCURVE",
"372 424 CURVE SMOOTH",
"372 387 OFFCURVE",
"397 363 OFFCURVE",
"434 363 CURVE SMOOTH",
"474 363 OFFCURVE",
"500 385 OFFCURVE",
"500 424 CURVE SMOOTH",
"500 460 OFFCURVE",
"475 483 OFFCURVE",
"435 483 CURVE SMOOTH"
);
}
);
width = 737;
}
);
leftKerningGroup = O;
rightKerningGroup = O;
},
{
export = 0;
glyphname = Udieresis.titl;
layers = (
{
components = (
{
name = U;
}
);
layerId = "1C7CD022-87C7-4E11-B656-E47B18819458";
paths = (
{
closed = 1;
nodes = (
"269 618 OFFCURVE",
"278 627 OFFCURVE",
"278 640 CURVE SMOOTH",
"278 653 OFFCURVE",
"269 662 OFFCURVE",
"256 662 CURVE SMOOTH",
"243 662 OFFCURVE",
"234 653 OFFCURVE",
"234 640 CURVE SMOOTH",
"234 627 OFFCURVE",
"243 618 OFFCURVE",
"256 618 CURVE SMOOTH"
);
},
{
closed = 1;
nodes = (
"419 618 OFFCURVE",
"428 627 OFFCURVE",
"428 640 CURVE SMOOTH",
"428 653 OFFCURVE",
"419 662 OFFCURVE",
"406 662 CURVE SMOOTH",
"393 662 OFFCURVE",
"384 653 OFFCURVE",
"384 640 CURVE SMOOTH",
"384 627 OFFCURVE",
"393 618 OFFCURVE",
"406 618 CURVE SMOOTH"
);
}
);
width = 667;
},
{
components = (
{
name = U;
}
);
layerId = "4A17B37A-CBFD-40E5-9E02-2080A0E1F76C";
paths = (
{
closed = 1;
nodes = (
"315 553 OFFCURVE",
"337 575 OFFCURVE",
"337 608 CURVE SMOOTH",
"337 640 OFFCURVE",
"315 662 OFFCURVE",
"282 662 CURVE SMOOTH",
"250 662 OFFCURVE",
"228 640 OFFCURVE",
"228 608 CURVE SMOOTH",
"228 575 OFFCURVE",
"250 553 OFFCURVE",
"282 553 CURVE SMOOTH"
);
},
{
closed = 1;
nodes = (
"458 553 OFFCURVE",
"480 575 OFFCURVE",
"480 608 CURVE SMOOTH",
"480 640 OFFCURVE",
"458 662 OFFCURVE",
"426 662 CURVE SMOOTH",
"393 662 OFFCURVE",
"371 640 OFFCURVE",
"371 608 CURVE SMOOTH",
"371 575 OFFCURVE",
"393 553 OFFCURVE",
"426 553 CURVE SMOOTH"
);
}
);
width = 702;
},
{
components = (
{
alignment = -1;
name = U;
}
);
layerId = "4605B8F7-B96C-4225-97D4-41F6E85C553E";
paths = (
{
closed = 1;
nodes = (
"341 535 OFFCURVE",
"369 557 OFFCURVE",
"369 599 CURVE SMOOTH",
"369 639 OFFCURVE",
"342 662 OFFCURVE",
"296 662 CURVE SMOOTH",
"252 662 OFFCURVE",
"226 639 OFFCURVE",
"226 599 CURVE SMOOTH",
"226 559 OFFCURVE",
"251 535 OFFCURVE",
"293 535 CURVE SMOOTH"
);
},
{
closed = 1;
nodes = (
"472 534 OFFCURVE",
"499 558 OFFCURVE",
"499 597 CURVE SMOOTH",
"499 638 OFFCURVE",
"472 662 OFFCURVE",
"426 662 CURVE SMOOTH",
"383 662 OFFCURVE",
"356 638 OFFCURVE",
"356 597 CURVE SMOOTH",
"356 558 OFFCURVE",
"382 534 OFFCURVE",
"426 534 CURVE SMOOTH"
);
}
);
width = 751;
},
{
components = (
{
alignment = -1;
name = U;
}
);
layerId = "17687776-AAFA-4856-A5EB-4A2EB08551C8";
paths = (
{
closed = 1;
nodes = (
"329 542 OFFCURVE",
"354 564 OFFCURVE",
"354 603 CURVE SMOOTH",
"354 639 OFFCURVE",
"330 662 OFFCURVE",
"290 662 CURVE SMOOTH",
"251 662 OFFCURVE",
"227 639 OFFCURVE",
"227 603 CURVE SMOOTH",
"227 565 OFFCURVE",
"250 542 OFFCURVE",
"288 542 CURVE SMOOTH"
);
},
{
closed = 1;
nodes = (
"466 541 OFFCURVE",
"490 565 OFFCURVE",
"490 601 CURVE SMOOTH",
"490 639 OFFCURVE",
"466 662 OFFCURVE",
"426 662 CURVE SMOOTH",
"387 662 OFFCURVE",
"363 639 OFFCURVE",
"363 601 CURVE SMOOTH",
"363 565 OFFCURVE",
"387 541 OFFCURVE",
"426 541 CURVE SMOOTH"
);
}
);
width = 742;
}
);
leftKerningGroup = U;
leftMetricsKey = U;
rightKerningGroup = U;
rightMetricsKey = U;
},
{
export = 0;
glyphname = Ydieresis.titl;
layers = (
{
layerId = "1C7CD022-87C7-4E11-B656-E47B18819458";
paths = (
{
closed = 1;
nodes = (
"332 626 OFFCURVE",
"342 636 OFFCURVE",
"342 648 CURVE SMOOTH",
"342 660 OFFCURVE",
"332 670 OFFCURVE",
"320 670 CURVE SMOOTH",
"308 670 OFFCURVE",
"298 660 OFFCURVE",
"298 648 CURVE SMOOTH",
"298 636 OFFCURVE",
"308 626 OFFCURVE",
"320 626 CURVE SMOOTH"
);
},
{
closed = 1;
nodes = (
"202 626 OFFCURVE",
"212 636 OFFCURVE",
"212 648 CURVE SMOOTH",
"212 660 OFFCURVE",
"202 670 OFFCURVE",
"190 670 CURVE SMOOTH",
"178 670 OFFCURVE",
"168 660 OFFCURVE",
"168 648 CURVE SMOOTH",
"168 636 OFFCURVE",
"178 626 OFFCURVE",
"190 626 CURVE SMOOTH"
);
},
{
closed = 1;
nodes = (
"477 660 LINE",
"348 434 LINE",
"256 273 LINE",
"164 434 LINE",
"35 660 LINE",
"16 660 LINE",
"248 256 LINE",
"248 0 LINE",
"264 0 LINE",
"264 256 LINE",
"496 660 LINE"
);
}
);
width = 512;
},
{
layerId = "4A17B37A-CBFD-40E5-9E02-2080A0E1F76C";
paths = (
{
closed = 1;
nodes = (
"384 561 OFFCURVE",
"406 583 OFFCURVE",
"406 616 CURVE SMOOTH",
"406 648 OFFCURVE",
"384 670 OFFCURVE",
"352 670 CURVE SMOOTH",
"319 670 OFFCURVE",
"297 648 OFFCURVE",
"297 616 CURVE SMOOTH",
"297 583 OFFCURVE",
"319 561 OFFCURVE",
"352 561 CURVE SMOOTH"
);
},
{
closed = 1;
nodes = (
"253 561 OFFCURVE",
"275 583 OFFCURVE",
"275 616 CURVE SMOOTH",
"275 648 OFFCURVE",
"253 670 OFFCURVE",
"220 670 CURVE SMOOTH",
"188 670 OFFCURVE",
"166 648 OFFCURVE",
"166 616 CURVE SMOOTH",
"166 583 OFFCURVE",
"188 561 OFFCURVE",
"220 561 CURVE SMOOTH"
);
},
{
closed = 1;
nodes = (
"467 660 LINE",
"339 434 LINE",
"286 340 LINE",
"233 434 LINE",
"105 660 LINE",
"10 660 LINE",
"246 258 LINE",
"246 0 LINE",
"326 0 LINE",
"326 258 LINE",
"562 660 LINE"
);
}
);
width = 572;
},
{
associatedMasterId = "4A17B37A-CBFD-40E5-9E02-2080A0E1F76C";
layerId = "0E3AB2F4-ACFC-4D6F-A7CE-76F458009A27";
name = "{137}";
paths = (
{
closed = 1;
nodes = (
"443 613 OFFCURVE",
"471 639 OFFCURVE",
"471 682 CURVE SMOOTH",
"471 724 OFFCURVE",
"443 750 OFFCURVE",
"398 750 CURVE SMOOTH",
"353 750 OFFCURVE",
"325 724 OFFCURVE",
"325 682 CURVE SMOOTH",
"325 639 OFFCURVE",
"353 613 OFFCURVE",
"398 613 CURVE SMOOTH"
);
},
{
closed = 1;
nodes = (
"272 613 OFFCURVE",
"300 639 OFFCURVE",
"300 682 CURVE SMOOTH",
"300 724 OFFCURVE",
"272 750 OFFCURVE",
"226 750 CURVE SMOOTH",
"182 750 OFFCURVE",
"154 724 OFFCURVE",
"154 682 CURVE SMOOTH",
"154 639 OFFCURVE",
"182 613 OFFCURVE",
"226 613 CURVE SMOOTH"
);
},
{
closed = 1;
nodes = (
"470 660 LINE",
"364 463 LINE",
"314 359 LINE",
"263 463 LINE",
"157 660 LINE",
"10 660 LINE",
"244 247 LINE",
"244 0 LINE",
"382 0 LINE",
"382 247 LINE",
"616 660 LINE"
);
}
);
width = 626;
},
{
layerId = "4605B8F7-B96C-4225-97D4-41F6E85C553E";
paths = (
{
closed = 1;
nodes = (
"540 713 OFFCURVE",
"578 748 OFFCURVE",
"578 808 CURVE SMOOTH",
"578 869 OFFCURVE",
"540 904 OFFCURVE",
"473 904 CURVE SMOOTH",
"408 904 OFFCURVE",
"371 869 OFFCURVE",
"371 808 CURVE SMOOTH",
"371 748 OFFCURVE",
"408 713 OFFCURVE",
"473 713 CURVE SMOOTH"
);
},
{
closed = 1;
nodes = (
"303 713 OFFCURVE",
"341 748 OFFCURVE",
"341 808 CURVE SMOOTH",
"341 869 OFFCURVE",
"303 904 OFFCURVE",
"236 904 CURVE SMOOTH",
"171 904 OFFCURVE",
"134 869 OFFCURVE",
"134 808 CURVE SMOOTH",
"134 748 OFFCURVE",
"171 713 OFFCURVE",
"236 713 CURVE SMOOTH"
);
},
{
closed = 1;
nodes = (
"475 660 LINE",
"405 517 LINE",
"358 394 LINE",
"311 517 LINE",
"241 660 LINE",
"9 660 LINE",
"240 226 LINE",
"240 0 LINE",
"473 0 LINE",
"473 226 LINE",
"704 660 LINE"
);
}
);
width = 713;
},
{
layerId = "17687776-AAFA-4856-A5EB-4A2EB08551C8";
paths = (
{
closed = 1;
nodes = (
"467 656 OFFCURVE",
"498 686 OFFCURVE",
"498 736 CURVE SMOOTH",
"498 786 OFFCURVE",
"467 816 OFFCURVE",
"416 816 CURVE SMOOTH",
"367 816 OFFCURVE",
"336 786 OFFCURVE",
"336 736 CURVE SMOOTH",
"336 686 OFFCURVE",
"367 656 OFFCURVE",
"416 656 CURVE SMOOTH"
);
},
{
closed = 1;
nodes = (
"279 656 OFFCURVE",
"310 686 OFFCURVE",
"310 736 CURVE SMOOTH",
"310 786 OFFCURVE",
"279 816 OFFCURVE",
"228 816 CURVE SMOOTH",
"179 816 OFFCURVE",
"149 786 OFFCURVE",
"149 736 CURVE SMOOTH",
"149 686 OFFCURVE",
"179 656 OFFCURVE",
"228 656 CURVE SMOOTH"
);
},
{
closed = 1;
nodes = (
"472 660 LINE",
"374 486 LINE",
"325 374 LINE",
"275 486 LINE",
"178 660 LINE",
"10 660 LINE",
"243 238 LINE",
"243 0 LINE",
"405 0 LINE",
"405 238 LINE",
"638 660 LINE"
);
}
);
width = 647;
}
);
leftKerningGroup = Y;
rightKerningGroup = Y;
},
{
color = 5;
glyphname = a;
layers = (
{
anchors = (
{
name = bottom;
position = "{262, 0}";
},
{
name = ogonek;
position = "{512, 1}";
},
{
name = top;
position = "{262, 500}";
}
);
color = 9;
layerId = "4A17B37A-CBFD-40E5-9E02-2080A0E1F76C";
paths = (
{
closed = 1;
nodes = (
"371 178 LINE SMOOTH",
"371 89 OFFCURVE",
"294 60 OFFCURVE",
"231 60 CURVE SMOOTH",
"152 60 OFFCURVE",
"121 100 OFFCURVE",
"121 150 CURVE SMOOTH",
"121 201 OFFCURVE",
"155 234 OFFCURVE",
"237 234 CURVE SMOOTH",
"401 234 LINE",
"401 299 LINE",
"224 299 LINE SMOOTH",
"108 299 OFFCURVE",
"39 239 OFFCURVE",
"39 146 CURVE SMOOTH",
"39 48 OFFCURVE",
"107 -10 OFFCURVE",
"213 -10 CURVE SMOOTH",
"293 -10 OFFCURVE",
"372 24 OFFCURVE",
"395 103 CURVE",
"369 104 LINE",
"369 94 LINE",
"369 26 OFFCURVE",
"412 -7 OFFCURVE",
"470 -7 CURVE SMOOTH",
"488 -7 OFFCURVE",
"502 -4 OFFCURVE",
"512 1 CURVE",
"516 63 LINE",
"508 61 OFFCURVE",
"497 61 OFFCURVE",
"489 61 CURVE SMOOTH",
"464 61 OFFCURVE",
"451 73 OFFCURVE",
"451 97 CURVE SMOOTH",
"451 347 LINE SMOOTH",
"451 464 OFFCURVE",
"355 510 OFFCURVE",
"247 510 CURVE SMOOTH",
"136 510 OFFCURVE",
"69 460 OFFCURVE",
"37 382 CURVE",
"110 351 LINE",
"137 409 OFFCURVE",
"171 440 OFFCURVE",
"250 440 CURVE SMOOTH",
"317 440 OFFCURVE",
"371 405 OFFCURVE",
"371 331 CURVE SMOOTH"
);
}
);
width = 524;
},
{
anchors = (
{
name = bottom;
position = "{235, 0}";
},
{
name = ogonek;
position = "{509, 3}";
},
{
name = top;
position = "{235, 500}";
}
);
color = 9;
layerId = "1C7CD022-87C7-4E11-B656-E47B18819458";
paths = (
{
closed = 1;
nodes = (
"400 165 LINE SMOOTH",
"400 51 OFFCURVE",
"295 4 OFFCURVE",
"206 4 CURVE SMOOTH",
"97 4 OFFCURVE",
"52 72 OFFCURVE",
"52 143 CURVE SMOOTH",
"52 224 OFFCURVE",
"118 275 OFFCURVE",
"226 275 CURVE SMOOTH",
"403 275 LINE",
"403 289 LINE",
"224 289 LINE SMOOTH",
"104 289 OFFCURVE",
"36 230 OFFCURVE",
"36 143 CURVE SMOOTH",
"36 65 OFFCURVE",
"87 -10 OFFCURVE",
"205 -10 CURVE SMOOTH",
"299 -10 OFFCURVE",
"395 37 OFFCURVE",
"409 136 CURVE",
"400 130 LINE",
"400 77 LINE SMOOTH",
"400 9 OFFCURVE",
"439 -5 OFFCURVE",
"469 -5 CURVE SMOOTH",
"483 -5 OFFCURVE",
"499 -1 OFFCURVE",
"509 6 CURVE",
"505 18 LINE",
"495 12 OFFCURVE",
"482 9 OFFCURVE",
"472 9 CURVE SMOOTH",
"435 9 OFFCURVE",
"416 32 OFFCURVE",
"416 81 CURVE SMOOTH",
"416 336 LINE SMOOTH",
"416 446 OFFCURVE",
"356 510 OFFCURVE",
"236 510 CURVE SMOOTH",
"139 510 OFFCURVE",
"68 471 OFFCURVE",
"35 384 CURVE",
"50 378 LINE",
"79 459 OFFCURVE",
"148 496 OFFCURVE",
"236 496 CURVE SMOOTH",
"346 496 OFFCURVE",
"400 434 OFFCURVE",
"400 336 CURVE SMOOTH"
);
}
);
width = 490;
},
{
anchors = (
{
name = bottom;
position = "{285, 0}";
},
{
name = ogonek;
position = "{585, 9}";
},
{
name = top;
position = "{278, 500}";
}
);
layerId = "4605B8F7-B96C-4225-97D4-41F6E85C553E";
paths = (
{
closed = 1;
nodes = (
"311 168 LINE SMOOTH",
"311 132 OFFCURVE",
"288 125 OFFCURVE",
"266 125 CURVE SMOOTH",
"244 125 OFFCURVE",
"228 143 OFFCURVE",
"228 163 CURVE SMOOTH",
"228 182 OFFCURVE",
"241 197 OFFCURVE",
"282 197 CURVE SMOOTH",
"326 197 LINE",
"335 285 LINE",
"188 285 LINE SMOOTH",
"73 285 OFFCURVE",
"9 219 OFFCURVE",
"9 139 CURVE SMOOTH",
"9 58 OFFCURVE",
"64 -10 OFFCURVE",
"178 -10 CURVE SMOOTH",
"309 -10 OFFCURVE",
"354 52 OFFCURVE",
"357 128 CURVE",
"335 127 LINE",
"335 117 LINE SMOOTH",
"335 29 OFFCURVE",
"401 -10 OFFCURVE",
"496 -10 CURVE SMOOTH",
"531 -10 OFFCURVE",
"560 -4 OFFCURVE",
"585 9 CURVE",
"592 132 LINE",
"589 131 OFFCURVE",
"584 130 OFFCURVE",
"578 130 CURVE SMOOTH",
"551 130 OFFCURVE",
"539 141 OFFCURVE",
"539 169 CURVE SMOOTH",
"539 316 LINE SMOOTH",
"539 430 OFFCURVE",
"453 510 OFFCURVE",
"280 510 CURVE SMOOTH",
"116 510 OFFCURVE",
"35 449 OFFCURVE",
"8 338 CURVE",
"212 300 LINE",
"215 339 OFFCURVE",
"234 355 OFFCURVE",
"265 355 CURVE SMOOTH",
"296 355 OFFCURVE",
"311 336 OFFCURVE",
"311 310 CURVE SMOOTH"
);
}
);
width = 589;
},
{
anchors = (
{
name = bottom;
position = "{281, 0}";
},
{
name = ogonek;
position = "{554, 2}";
},
{
name = top;
position = "{269, 500}";
}
);
layerId = "17687776-AAFA-4856-A5EB-4A2EB08551C8";
paths = (
{
closed = 1;
nodes = (
"345 184 LINE SMOOTH",
"345 121 OFFCURVE",
"291 99 OFFCURVE",
"247 99 CURVE SMOOTH",
"200 99 OFFCURVE",
"182 121 OFFCURVE",
"182 154 CURVE SMOOTH",
"182 191 OFFCURVE",
"213 206 OFFCURVE",
"256 206 CURVE SMOOTH",
"366 206 LINE",
"374 301 LINE",
"215 301 LINE SMOOTH",
"104 301 OFFCURVE",
"29 243 OFFCURVE",
"29 146 CURVE SMOOTH",
"29 52 OFFCURVE",
"94 -10 OFFCURVE",
"207 -10 CURVE SMOOTH",
"313 -10 OFFCURVE",
"377 34 OFFCURVE",
"391 118 CURVE",
"357 118 LINE",
"357 108 LINE SMOOTH",
"357 28 OFFCURVE",
"412 -9 OFFCURVE",
"490 -9 CURVE SMOOTH",
"516 -9 OFFCURVE",
"537 -6 OFFCURVE",
"554 2 CURVE",
"561 106 LINE",
"556 105 OFFCURVE",
"549 104 OFFCURVE",
"543 104 CURVE SMOOTH",
"517 104 OFFCURVE",
"504 117 OFFCURVE",
"504 143 CURVE SMOOTH",
"504 331 LINE SMOOTH",
"504 446 OFFCURVE",
"410 510 OFFCURVE",
"279 510 CURVE SMOOTH",
"139 510 OFFCURVE",
"49 455 OFFCURVE",
"31 356 CURVE",
"175 330 LINE",
"183 376 OFFCURVE",
"220 391 OFFCURVE",
"267 391 CURVE SMOOTH",
"321 391 OFFCURVE",
"345 367 OFFCURVE",
"345 319 CURVE SMOOTH"
);
}
);
width = 566;
},
{
anchors = (
{
name = bottom;
position = "{275, 0}";
},
{
name = ogonek;
position = "{540, 2}";
},
{
name = top;
position = "{267, 500}";
}
);
associatedMasterId = "17687776-AAFA-4856-A5EB-4A2EB08551C8";
background = {
paths = (
{
closed = 1;
nodes = (
"353 182 LINE SMOOTH",
"353 111 OFFCURVE",
"292 86 OFFCURVE",
"242 86 CURVE SMOOTH",
"184 86 OFFCURVE",
"162 114 OFFCURVE",
"162 153 CURVE SMOOTH",
"162 194 OFFCURVE",
"194 215 OFFCURVE",
"250 215 CURVE SMOOTH",
"377 215 LINE",
"383 300 LINE",
"218 300 LINE SMOOTH",
"105 300 OFFCURVE",
"32 242 OFFCURVE",
"32 146 CURVE SMOOTH",
"32 51 OFFCURVE",
"98 -10 OFFCURVE",
"209 -10 CURVE SMOOTH",
"307 -10 OFFCURVE",
"375 31 OFFCURVE",
"392 113 CURVE",
"361 113 LINE",
"361 103 LINE SMOOTH",
"361 27 OFFCURVE",
"412 -8 OFFCURVE",
"484 -8 CURVE SMOOTH",
"507 -8 OFFCURVE",
"526 -5 OFFCURVE",
"540 2 CURVE",
"546 92 LINE",
"540 91 OFFCURVE",
"532 90 OFFCURVE",
"525 90 CURVE SMOOTH",
"500 90 OFFCURVE",
"487 103 OFFCURVE",
"487 128 CURVE SMOOTH",
"487 336 LINE SMOOTH",
"487 452 OFFCURVE",
"392 510 OFFCURVE",
"269 510 CURVE SMOOTH",
"138 510 OFFCURVE",
"56 457 OFFCURVE",
"33 364 CURVE",
"154 337 LINE",
"168 387 OFFCURVE",
"204 407 OFFCURVE",
"261 407 CURVE SMOOTH",
"320 407 OFFCURVE",
"353 379 OFFCURVE",
"353 323 CURVE SMOOTH"
);
}
);
};
layerId = "60C96A7F-9935-4498-82D2-EF28FDA3F70E";
name = "{134}";
paths = (
{
closed = 1;
nodes = (
"353 182 LINE SMOOTH",
"353 111 OFFCURVE",
"292 86 OFFCURVE",
"242 86 CURVE SMOOTH",
"184 86 OFFCURVE",
"162 114 OFFCURVE",
"162 153 CURVE SMOOTH",
"162 189 OFFCURVE",
"194 206 OFFCURVE",
"250 206 CURVE SMOOTH",
"377 206 LINE",
"383 300 LINE",
"218 300 LINE SMOOTH",
"105 300 OFFCURVE",
"32 242 OFFCURVE",
"32 146 CURVE SMOOTH",
"32 51 OFFCURVE",
"92 -10 OFFCURVE",
"213 -10 CURVE SMOOTH",
"301 -10 OFFCURVE",
"375 31 OFFCURVE",
"392 113 CURVE",
"361 113 LINE",
"361 103 LINE SMOOTH",
"361 27 OFFCURVE",
"412 -8 OFFCURVE",
"484 -8 CURVE SMOOTH",
"507 -8 OFFCURVE",
"526 -5 OFFCURVE",
"540 2 CURVE",
"546 92 LINE",
"540 91 OFFCURVE",
"532 90 OFFCURVE",
"525 90 CURVE SMOOTH",
"500 90 OFFCURVE",
"487 103 OFFCURVE",
"487 128 CURVE SMOOTH",
"487 336 LINE SMOOTH",
"487 452 OFFCURVE",
"394 510 OFFCURVE",
"271 510 CURVE SMOOTH",
"133 510 OFFCURVE",
"56 457 OFFCURVE",
"33 364 CURVE",
"154 337 LINE",
"168 387 OFFCURVE",
"203 407 OFFCURVE",
"260 407 CURVE SMOOTH",
"319 407 OFFCURVE",
"353 379 OFFCURVE",
"353 323 CURVE SMOOTH"
);
}
);
width = 552;
}
);
leftKerningGroup = a;
rightKerningGroup = a;
unicode = 0061;
},
{
color = 5;
glyphname = ae;
layers = (
{
anchors = (
{
name = bottom;
position = "{418, 0}";
},
{
name = ogonek;
position = "{683, 0}";
},
{
name = top;
position = "{434, 500}";
}
);
color = 9;
layerId = "4A17B37A-CBFD-40E5-9E02-2080A0E1F76C";
leftMetricsKey = "=a";
paths = (
{
closed = 1;
nodes = (
"347 -10 OFFCURVE",
"413 57 OFFCURVE",
"423 138 CURVE",
"399 130 LINE",
"433 38 OFFCURVE",
"513 -10 OFFCURVE",
"613 -10 CURVE SMOOTH",
"703 -10 OFFCURVE",
"774 33 OFFCURVE",
"812 101 CURVE",
"749 138 LINE",
"721 90 OFFCURVE",
"677 60 OFFCURVE",
"611 60 CURVE SMOOTH",
"523 60 OFFCURVE",
"459 122 OFFCURVE",
"452 227 CURVE",
"452 227 LINE",
"818 227 LINE",
"820 241 OFFCURVE",
"822 260 OFFCURVE",
"822 283 CURVE SMOOTH",
"822 411 OFFCURVE",
"741 510 OFFCURVE",
"608 510 CURVE SMOOTH",
"521 510 OFFCURVE",
"449 468 OFFCURVE",
"411 397 CURVE",
"435 394 LINE",
"417 475 OFFCURVE",
"341 510 OFFCURVE",
"253 510 CURVE SMOOTH",
"149 510 OFFCURVE",
"75 468 OFFCURVE",
"40 382 CURVE",
"110 350 LINE",
"142 419 OFFCURVE",
"187 440 OFFCURVE",
"254 440 CURVE SMOOTH",
"332 440 OFFCURVE",
"371 394 OFFCURVE",
"371 331 CURVE SMOOTH",
"371 299 LINE",
"218 299 LINE SMOOTH",
"122 299 OFFCURVE",
"37 256 OFFCURVE",
"37 143 CURVE SMOOTH",
"37 49 OFFCURVE",
"113 -10 OFFCURVE",
"219 -10 CURVE SMOOTH"
);
},
{
closed = 1;
nodes = (
"157 60 OFFCURVE",
"119 101 OFFCURVE",
"119 149 CURVE SMOOTH",
"119 197 OFFCURVE",
"148 234 OFFCURVE",
"231 234 CURVE SMOOTH",
"371 234 LINE",
"371 180 LINE SMOOTH",
"371 104 OFFCURVE",
"311 60 OFFCURVE",
"234 60 CURVE SMOOTH"
);
},
{
closed = 1;
nodes = (
"469 388 OFFCURVE",
"525 440 OFFCURVE",
"606 440 CURVE SMOOTH",
"683 440 OFFCURVE",
"739 389 OFFCURVE",
"742 298 CURVE",
"455 298 LINE"
);
}
);
width = 856;
},
{
anchors = (
{
name = bottom;
position = "{415, 0}";
},
{
name = ogonek;
position = "{694, 0}";
},
{
name = top;
position = "{421, 500}";
}
);
color = 9;
layerId = "1C7CD022-87C7-4E11-B656-E47B18819458";
leftMetricsKey = "=a";
paths = (
{
closed = 1;
nodes = (
"297 -10 OFFCURVE",
"411 36 OFFCURVE",
"414 168 CURVE",
"412 167 LINE",
"430 58 OFFCURVE",
"513 -10 OFFCURVE",
"626 -10 CURVE SMOOTH",
"708 -10 OFFCURVE",
"784 35 OFFCURVE",
"819 109 CURVE",
"806 116 LINE",
"773 46 OFFCURVE",
"701 4 OFFCURVE",
"626 4 CURVE SMOOTH",
"490 4 OFFCURVE",
"416 96 OFFCURVE",
"416 250 CURVE SMOOTH",
"416 271 LINE",
"818 271 LINE",
"818 273 OFFCURVE",
"818 276 OFFCURVE",
"818 278 CURVE SMOOTH",
"818 416 OFFCURVE",
"744 510 OFFCURVE",
"618 510 CURVE SMOOTH",
"520 510 OFFCURVE",
"433 442 OFFCURVE",
"413 335 CURVE",
"416 332 LINE",
"419 447 OFFCURVE",
"346 510 OFFCURVE",
"237 510 CURVE SMOOTH",
"137 510 OFFCURVE",
"70 469 OFFCURVE",
"38 384 CURVE",
"53 378 LINE",
"83 463 OFFCURVE",
"149 496 OFFCURVE",
"237 496 CURVE SMOOTH",
"339 496 OFFCURVE",
"401 434 OFFCURVE",
"401 336 CURVE SMOOTH",
"401 286 LINE",
"210 286 LINE SMOOTH",
"104 286 OFFCURVE",
"35 228 OFFCURVE",
"35 144 CURVE SMOOTH",
"35 56 OFFCURVE",
"94 -10 OFFCURVE",
"207 -10 CURVE SMOOTH"
);
},
{
closed = 1;
nodes = (
"102 4 OFFCURVE",
"51 65 OFFCURVE",
"51 146 CURVE SMOOTH",
"51 214 OFFCURVE",
"107 271 OFFCURVE",
"210 271 CURVE SMOOTH",
"401 271 LINE",
"401 169 LINE SMOOTH",
"401 51 OFFCURVE",
"298 4 OFFCURVE",
"209 4 CURVE SMOOTH"
);
},
{
closed = 1;
nodes = (
"430 418 OFFCURVE",
"510 496 OFFCURVE",
"618 496 CURVE SMOOTH",
"737 496 OFFCURVE",
"801 404 OFFCURVE",
"804 286 CURVE",
"418 286 LINE"
);
}
);
width = 852;
},
{
anchors = (
{
name = bottom;
position = "{420, 0}";
},
{
name = ogonek;
position = "{718, 11}";
},
{
name = top;
position = "{420, 500}";
}
);
layerId = "4605B8F7-B96C-4225-97D4-41F6E85C553E";
paths = (
{
closed = 1;
nodes = (
"352 -10 OFFCURVE",
"405 66 OFFCURVE",
"425 147 CURVE",
"382 163 LINE",
"406 50 OFFCURVE",
"484 -10 OFFCURVE",
"611 -10 CURVE SMOOTH",
"721 -10 OFFCURVE",
"821 37 OFFCURVE",
"844 140 CURVE",
"659 191 LINE",
"652 167 OFFCURVE",
"643 152 OFFCURVE",
"609 152 CURVE SMOOTH",
"570 152 OFFCURVE",
"540 157 OFFCURVE",
"531 206 CURVE",
"531 206 LINE",
"848 206 LINE",
"851 217 OFFCURVE",
"853 242 OFFCURVE",
"853 264 CURVE SMOOTH",
"853 412 OFFCURVE",
"768 510 OFFCURVE",
"606 510 CURVE SMOOTH",
"516 510 OFFCURVE",
"445 469 OFFCURVE",
"404 396 CURVE",
"479 403 LINE",
"446 470 OFFCURVE",
"377 510 OFFCURVE",
"270 510 CURVE SMOOTH",
"123 510 OFFCURVE",
"32 446 OFFCURVE",
"9 338 CURVE",
"212 300 LINE",
"216 345 OFFCURVE",
"239 355 OFFCURVE",
"265 355 CURVE SMOOTH",
"297 355 OFFCURVE",
"311 338 OFFCURVE",
"311 308 CURVE SMOOTH",
"311 285 LINE",
"184 285 LINE SMOOTH",
"81 285 OFFCURVE",
"9 228 OFFCURVE",
"9 138 CURVE SMOOTH",
"9 61 OFFCURVE",
"71 -10 OFFCURVE",
"202 -10 CURVE SMOOTH"
);
},
{
closed = 1;
nodes = (
"245 125 OFFCURVE",
"228 140 OFFCURVE",
"228 161 CURVE SMOOTH",
"228 188 OFFCURVE",
"251 197 OFFCURVE",
"278 197 CURVE SMOOTH",
"311 197 LINE",
"311 167 LINE SMOOTH",
"311 133 OFFCURVE",
"290 125 OFFCURVE",
"268 125 CURVE SMOOTH"
);
},
{
closed = 1;
nodes = (
"536 336 OFFCURVE",
"554 349 OFFCURVE",
"588 349 CURVE SMOOTH",
"621 349 OFFCURVE",
"634 329 OFFCURVE",
"638 289 CURVE",
"530 289 LINE"
);
}
);
width = 870;
},
{
anchors = (
{
name = bottom;
position = "{425, 0}";
},
{
name = ogonek;
position = "{708, 6}";
},
{
name = top;
position = "{433, 500}";
}
);
layerId = "17687776-AAFA-4856-A5EB-4A2EB08551C8";
paths = (
{
closed = 1;
nodes = (
"355 -10 OFFCURVE",
"431 52 OFFCURVE",
"446 142 CURVE",
"402 138 LINE",
"430 35 OFFCURVE",
"504 -10 OFFCURVE",
"619 -10 CURVE SMOOTH",
"719 -10 OFFCURVE",
"805 35 OFFCURVE",
"835 122 CURVE",
"707 167 LINE",
"691 131 OFFCURVE",
"666 109 OFFCURVE",
"617 109 CURVE SMOOTH",
"554 109 OFFCURVE",
"511 140 OFFCURVE",
"503 216 CURVE",
"503 216 LINE",
"840 216 LINE",
"843 228 OFFCURVE",
"845 251 OFFCURVE",
"845 273 CURVE SMOOTH",
"845 411 OFFCURVE",
"762 510 OFFCURVE",
"614 510 CURVE SMOOTH",
"525 510 OFFCURVE",
"454 468 OFFCURVE",
"414 397 CURVE",
"465 399 LINE",
"438 473 OFFCURVE",
"367 510 OFFCURVE",
"264 510 CURVE SMOOTH",
"142 510 OFFCURVE",
"48 459 OFFCURVE",
"31 356 CURVE",
"175 330 LINE",
"183 379 OFFCURVE",
"224 391 OFFCURVE",
"268 391 CURVE SMOOTH",
"324 391 OFFCURVE",
"345 364 OFFCURVE",
"345 319 CURVE SMOOTH",
"345 301 LINE",
"212 301 LINE SMOOTH",
"109 301 OFFCURVE",
"29 247 OFFCURVE",
"29 144 CURVE SMOOTH",
"29 57 OFFCURVE",
"95 -10 OFFCURVE",
"215 -10 CURVE SMOOTH"
);
},
{
closed = 1;
nodes = (
"199 99 OFFCURVE",
"182 123 OFFCURVE",
"182 155 CURVE SMOOTH",
"182 193 OFFCURVE",
"216 206 OFFCURVE",
"257 206 CURVE SMOOTH",
"345 206 LINE",
"345 181 LINE SMOOTH",
"345 128 OFFCURVE",
"298 99 OFFCURVE",
"247 99 CURVE SMOOTH"
);
},
{
closed = 1;
nodes = (
"514 361 OFFCURVE",
"547 392 OFFCURVE",
"603 392 CURVE SMOOTH",
"657 392 OFFCURVE",
"689 357 OFFCURVE",
"693 301 CURVE",
"504 301 LINE"
);
}
);
width = 881;
}
);
leftKerningGroup = a;
rightKerningGroup = e;
rightMetricsKey = "=e";
unicode = 00E6;
},
{
color = 5;
glyphname = b;
layers = (
{
anchors = (
{
name = bottom;
position = "{302, 0}";
},
{
name = ogonek;
position = "{425, 17}";
},
{
name = top;
position = "{113, 674}";
}
);
color = 9;
layerId = "4A17B37A-CBFD-40E5-9E02-2080A0E1F76C";
paths = (
{
closed = 1;
nodes = (
"446 -10 OFFCURVE",
"549 87 OFFCURVE",
"549 250 CURVE SMOOTH",
"549 413 OFFCURVE",
"453 510 OFFCURVE",
"328 510 CURVE SMOOTH",
"246 510 OFFCURVE",
"170 465 OFFCURVE",
"143 402 CURVE",
"153 387 LINE",
"153 704 LINE",
"73 704 LINE",
"73 0 LINE",
"143 0 LINE",
"150 122 LINE",
"139 108 LINE",
"164 39 OFFCURVE",
"236 -10 OFFCURVE",
"321 -10 CURVE SMOOTH"
);
},
{
closed = 1;
nodes = (
"216 60 OFFCURVE",
"153 133 OFFCURVE",
"153 248 CURVE SMOOTH",
"153 363 OFFCURVE",
"217 440 OFFCURVE",
"311 440 CURVE SMOOTH",
"410 440 OFFCURVE",
"467 365 OFFCURVE",
"467 250 CURVE SMOOTH",
"467 135 OFFCURVE",
"409 60 OFFCURVE",
"310 60 CURVE SMOOTH"
);
}
);
width = 589;
},
{
anchors = (
{
name = bottom;
position = "{287, 0}";
},
{
name = ogonek;
position = "{407, 21}";
},
{
name = top;
position = "{78, 654}";
}
);
color = 9;
layerId = "1C7CD022-87C7-4E11-B656-E47B18819458";
paths = (
{
closed = 1;
nodes = (
"430 -10 OFFCURVE",
"519 87 OFFCURVE",
"519 250 CURVE SMOOTH",
"519 413 OFFCURVE",
"430 510 OFFCURVE",
"293 510 CURVE SMOOTH",
"191 510 OFFCURVE",
"110 450 OFFCURVE",
"85 345 CURVE",
"86 343 LINE",
"86 704 LINE",
"70 704 LINE",
"70 0 LINE",
"86 0 LINE",
"86 159 LINE",
"85 157 LINE",
"108 51 OFFCURVE",
"190 -10 OFFCURVE",
"293 -10 CURVE SMOOTH"
);
},
{
closed = 1;
nodes = (
"174 4 OFFCURVE",
"86 99 OFFCURVE",
"86 250 CURVE SMOOTH",
"86 401 OFFCURVE",
"173 496 OFFCURVE",
"290 496 CURVE SMOOTH",
"419 496 OFFCURVE",
"503 405 OFFCURVE",
"503 250 CURVE SMOOTH",
"503 95 OFFCURVE",
"419 4 OFFCURVE",
"290 4 CURVE SMOOTH"
);
}
);
width = 555;
},
{
anchors = (
{
name = bottom;
position = "{317, 0}";
},
{
name = ogonek;
position = "{493, 9}";
},
{
name = top;
position = "{154, 707}";
}
);
layerId = "4605B8F7-B96C-4225-97D4-41F6E85C553E";
paths = (
{
closed = 1;
nodes = (
"527 -10 OFFCURVE",
"602 84 OFFCURVE",
"602 247 CURVE SMOOTH",
"602 422 OFFCURVE",
"531 510 OFFCURVE",
"419 510 CURVE SMOOTH",
"312 510 OFFCURVE",
"262 437 OFFCURVE",
"249 336 CURVE",
"269 305 LINE",
"269 704 LINE",
"39 704 LINE",
"39 0 LINE",
"241 0 LINE",
"252 231 LINE",
"233 204 LINE",
"239 83 OFFCURVE",
"297 -10 OFFCURVE",
"409 -10 CURVE SMOOTH"
);
},
{
closed = 1;
nodes = (
"289 162 OFFCURVE",
"269 187 OFFCURVE",
"269 251 CURVE SMOOTH",
"269 309 OFFCURVE",
"288 339 OFFCURVE",
"321 339 CURVE SMOOTH",
"351 339 OFFCURVE",
"370 323 OFFCURVE",
"370 251 CURVE SMOOTH",
"370 179 OFFCURVE",
"349 162 OFFCURVE",
"319 162 CURVE SMOOTH"
);
}
);
width = 624;
},
{
anchors = (
{
name = bottom;
position = "{320, 0}";
},
{
name = ogonek;
position = "{470, 13}";
},
{
name = top;
position = "{144, 695}";
}
);
layerId = "17687776-AAFA-4856-A5EB-4A2EB08551C8";
paths = (
{
closed = 1;
nodes = (
"491 -10 OFFCURVE",
"585 81 OFFCURVE",
"585 248 CURVE SMOOTH",
"585 417 OFFCURVE",
"501 510 OFFCURVE",
"374 510 CURVE SMOOTH",
"271 510 OFFCURVE",
"208 444 OFFCURVE",
"194 361 CURVE",
"224 336 LINE",
"224 704 LINE",
"64 704 LINE",
"64 0 LINE",
"204 0 LINE",
"214 190 LINE",
"192 167 LINE",
"204 57 OFFCURVE",
"263 -10 OFFCURVE",
"370 -10 CURVE SMOOTH"
);
},
{
closed = 1;
nodes = (
"266 124 OFFCURVE",
"224 166 OFFCURVE",
"224 249 CURVE SMOOTH",
"224 329 OFFCURVE",
"265 377 OFFCURVE",
"327 377 CURVE SMOOTH",
"390 377 OFFCURVE",
"424 337 OFFCURVE",
"424 250 CURVE SMOOTH",
"424 163 OFFCURVE",
"389 124 OFFCURVE",
"326 124 CURVE SMOOTH"
);
}
);
width = 621;
}
);
leftKerningGroup = h;
leftMetricsKey = n;
rightKerningGroup = o;
rightMetricsKey = p;
unicode = 0062;
},
{
color = 5;
glyphname = c;
layers = (
{
anchors = (
{
name = bottom;
position = "{281, 0}";
},
{
name = ogonek;
position = "{395, 17}";
},
{
name = top;
position = "{274, 500}";
}
);
color = 9;
layerId = "4A17B37A-CBFD-40E5-9E02-2080A0E1F76C";
paths = (
{
closed = 1;
nodes = (
"140 510 OFFCURVE",
"38 412 OFFCURVE",
"38 250 CURVE SMOOTH",
"38 88 OFFCURVE",
"140 -10 OFFCURVE",
"282 -10 CURVE SMOOTH",
"388 -10 OFFCURVE",
"460 45 OFFCURVE",
"494 137 CURVE",
"416 163 LINE",
"395 98 OFFCURVE",
"358 60 OFFCURVE",
"280 60 CURVE SMOOTH",
"180 60 OFFCURVE",
"120 131 OFFCURVE",
"120 250 CURVE SMOOTH",
"120 369 OFFCURVE",
"180 440 OFFCURVE",
"280 440 CURVE SMOOTH",
"349 440 OFFCURVE",
"392 406 OFFCURVE",
"413 342 CURVE",
"489 377 LINE",
"452 459 OFFCURVE",
"385 510 OFFCURVE",
"282 510 CURVE SMOOTH"
);
}
);
width = 514;
},
{
anchors = (
{
name = bottom;
position = "{262, 0}";
},
{
name = ogonek;
position = "{381, 21}";
},
{
name = top;
position = "{260, 500}";
}
);
color = 9;
layerId = "1C7CD022-87C7-4E11-B656-E47B18819458";
paths = (
{
closed = 1;
nodes = (
"134 510 OFFCURVE",
"36 412 OFFCURVE",
"36 250 CURVE SMOOTH",
"36 88 OFFCURVE",
"131 -10 OFFCURVE",
"263 -10 CURVE SMOOTH",
"364 -10 OFFCURVE",
"450 47 OFFCURVE",
"467 137 CURVE",
"453 142 LINE",
"439 57 OFFCURVE",
"356 4 OFFCURVE",
"263 4 CURVE SMOOTH",
"141 4 OFFCURVE",
"52 97 OFFCURVE",
"52 250 CURVE SMOOTH",
"52 403 OFFCURVE",
"144 496 OFFCURVE",
"266 496 CURVE SMOOTH",
"360 496 OFFCURVE",
"427 449 OFFCURVE",
"449 366 CURVE",
"463 373 LINE",
"439 461 OFFCURVE",
"365 510 OFFCURVE",
"266 510 CURVE SMOOTH"
);
}
);
width = 497;
},
{
anchors = (
{
name = bottom;
position = "{295, 0}";
},
{
name = ogonek;
position = "{422, 9}";
},
{
name = top;
position = "{297, 500}";
}
);
layerId = "4605B8F7-B96C-4225-97D4-41F6E85C553E";
paths = (
{
closed = 1;
nodes = (
"131 510 OFFCURVE",
"20 416 OFFCURVE",
"20 250 CURVE SMOOTH",
"20 84 OFFCURVE",
"118 -10 OFFCURVE",
"301 -10 CURVE SMOOTH",
"461 -10 OFFCURVE",
"556 65 OFFCURVE",
"569 158 CURVE",
"353 216 LINE",
"350 176 OFFCURVE",
"338 155 OFFCURVE",
"306 155 CURVE SMOOTH",
"276 155 OFFCURVE",
"251 166 OFFCURVE",
"251 247 CURVE SMOOTH",
"251 326 OFFCURVE",
"269 345 OFFCURVE",
"304 345 CURVE SMOOTH",
"337 345 OFFCURVE",
"349 323 OFFCURVE",
"349 271 CURVE",
"561 336 LINE",
"559 415 OFFCURVE",
"481 510 OFFCURVE",
"297 510 CURVE SMOOTH"
);
}
);
width = 568;
},
{
anchors = (
{
name = bottom;
position = "{294, 0}";
},
{
name = ogonek;
position = "{415, 13}";
},
{
name = top;
position = "{291, 500}";
}
);
layerId = "17687776-AAFA-4856-A5EB-4A2EB08551C8";
paths = (
{
closed = 1;
nodes = (
"147 510 OFFCURVE",
"35 415 OFFCURVE",
"35 250 CURVE SMOOTH",
"35 85 OFFCURVE",
"136 -10 OFFCURVE",
"296 -10 CURVE SMOOTH",
"430 -10 OFFCURVE",
"516 54 OFFCURVE",
"542 148 CURVE",
"393 199 LINE",
"379 149 OFFCURVE",
"352 118 OFFCURVE",
"302 118 CURVE SMOOTH",
"237 118 OFFCURVE",
"196 152 OFFCURVE",
"196 249 CURVE SMOOTH",
"196 342 OFFCURVE",
"235 382 OFFCURVE",
"301 382 CURVE SMOOTH",
"348 382 OFFCURVE",
"372 354 OFFCURVE",
"387 299 CURVE",
"537 354 LINE",
"511 447 OFFCURVE",
"432 510 OFFCURVE",
"304 510 CURVE SMOOTH"
);
}
);
width = 558;
}
);
leftKerningGroup = o;
leftMetricsKey = o;
rightKerningGroup = c;
unicode = 0063;
},
{
color = 5;
glyphname = d;
layers = (
{
anchors = (
{
name = bottom;
position = "{287, 0}";
},
{
name = center;
position = "{302, 250}";
},
{
name = ogonek;
position = "{372, 17}";
},
{
name = top;
position = "{476, 674}";
},
{
name = topright;
position = "{593, 704}";
}
);
color = 9;
layerId = "4A17B37A-CBFD-40E5-9E02-2080A0E1F76C";
paths = (
{
closed = 1;
nodes = (
"352 -10 OFFCURVE",
"435 39 OFFCURVE",
"450 127 CURVE",
"439 121 LINE",
"446 0 LINE",
"516 0 LINE",
"516 704 LINE",
"436 704 LINE",
"436 386 LINE",
"446 393 LINE",
"426 463 OFFCURVE",
"357 510 OFFCURVE",
"274 510 CURVE SMOOTH",
"148 510 OFFCURVE",
"40 416 OFFCURVE",
"40 250 CURVE SMOOTH",
"40 87 OFFCURVE",
"138 -10 OFFCURVE",
"266 -10 CURVE SMOOTH"
);
},
{
closed = 1;
nodes = (
"179 60 OFFCURVE",
"122 135 OFFCURVE",
"122 250 CURVE SMOOTH",
"122 365 OFFCURVE",
"181 440 OFFCURVE",
"282 440 CURVE SMOOTH",
"373 440 OFFCURVE",
"436 371 OFFCURVE",
"436 257 CURVE SMOOTH",
"436 136 OFFCURVE",
"373 60 OFFCURVE",
"278 60 CURVE SMOOTH"
);
}
);
width = 589;
},
{
anchors = (
{
name = bottom;
position = "{268, 0}";
},
{
name = center;
position = "{286, 281}";
},
{
name = ogonek;
position = "{379, 21}";
},
{
name = top;
position = "{477, 654}";
},
{
name = topright;
position = "{576, 704}";
}
);
color = 9;
layerId = "1C7CD022-87C7-4E11-B656-E47B18819458";
paths = (
{
closed = 1;
nodes = (
"368 -10 OFFCURVE",
"447 51 OFFCURVE",
"470 157 CURVE",
"469 159 LINE",
"469 0 LINE",
"485 0 LINE",
"485 704 LINE",
"469 704 LINE",
"469 343 LINE",
"470 345 LINE",
"445 450 OFFCURVE",
"367 510 OFFCURVE",
"265 510 CURVE SMOOTH",
"128 510 OFFCURVE",
"36 413 OFFCURVE",
"36 250 CURVE SMOOTH",
"36 87 OFFCURVE",
"128 -10 OFFCURVE",
"265 -10 CURVE SMOOTH"
);
},
{
closed = 1;
nodes = (
"139 4 OFFCURVE",
"52 95 OFFCURVE",
"52 250 CURVE SMOOTH",
"52 405 OFFCURVE",
"139 496 OFFCURVE",
"268 496 CURVE SMOOTH",
"385 496 OFFCURVE",
"469 401 OFFCURVE",
"469 250 CURVE SMOOTH",
"469 99 OFFCURVE",
"384 4 OFFCURVE",
"268 4 CURVE SMOOTH"
);
}
);
width = 555;
},
{
anchors = (
{
name = bottom;
position = "{307, 0}";
},
{
name = center;
position = "{307, 250}";
},
{
name = ogonek;
position = "{285, 9}";
},
{
name = top;
position = "{470, 707}";
},
{
name = topright;
position = "{640, 704}";
}
);
layerId = "4605B8F7-B96C-4225-97D4-41F6E85C553E";
paths = (
{
closed = 1;
nodes = (
"315 -10 OFFCURVE",
"377 70 OFFCURVE",
"390 178 CURVE",
"364 211 LINE",
"378 0 LINE",
"585 0 LINE",
"585 704 LINE",
"355 704 LINE",
"355 305 LINE",
"375 337 LINE",
"362 436 OFFCURVE",
"317 510 OFFCURVE",
"214 510 CURVE SMOOTH",
"92 510 OFFCURVE",
"22 415 OFFCURVE",
"22 247 CURVE SMOOTH",
"22 83 OFFCURVE",
"90 -10 OFFCURVE",
"213 -10 CURVE SMOOTH"
);
},
{
closed = 1;
nodes = (
"273 162 OFFCURVE",
"254 179 OFFCURVE",
"254 251 CURVE SMOOTH",
"254 323 OFFCURVE",
"274 339 OFFCURVE",
"306 339 CURVE SMOOTH",
"340 339 OFFCURVE",
"355 309 OFFCURVE",
"355 250 CURVE SMOOTH",
"355 187 OFFCURVE",
"336 162 OFFCURVE",
"305 162 CURVE SMOOTH"
);
}
);
width = 624;
},
{
anchors = (
{
name = bottom;
position = "{301, 0}";
},
{
name = center;
position = "{308, 250}";
},
{
name = ogonek;
position = "{329, 13}";
},
{
name = top;
position = "{477, 695}";
},
{
name = topright;
position = "{622, 704}";
}
);
layerId = "17687776-AAFA-4856-A5EB-4A2EB08551C8";
paths = (
{
closed = 1;
nodes = (
"352 -10 OFFCURVE",
"419 59 OFFCURVE",
"433 159 CURVE",
"403 177 LINE",
"414 0 LINE",
"557 0 LINE",
"557 704 LINE",
"397 704 LINE",
"397 336 LINE",
"423 358 LINE",
"406 447 OFFCURVE",
"357 510 OFFCURVE",
"257 510 CURVE SMOOTH",
"122 510 OFFCURVE",
"36 407 OFFCURVE",
"36 248 CURVE SMOOTH",
"36 93 OFFCURVE",
"122 -10 OFFCURVE",
"252 -10 CURVE SMOOTH"
);
},
{
closed = 1;
nodes = (
"233 124 OFFCURVE",
"197 164 OFFCURVE",
"197 250 CURVE SMOOTH",
"197 336 OFFCURVE",
"234 377 OFFCURVE",
"299 377 CURVE SMOOTH",
"360 377 OFFCURVE",
"397 332 OFFCURVE",
"397 253 CURVE SMOOTH",
"397 168 OFFCURVE",
"358 124 OFFCURVE",
"297 124 CURVE SMOOTH"
);
}
);
width = 621;
}
);
leftKerningGroup = o;
rightKerningGroup = d;
rightMetricsKey = "=|n";
unicode = 0064;
},
{
color = 5;
glyphname = eth;
layers = (
{
anchors = (
{
name = bottom;
position = "{284, 0}";
},
{
name = ogonek;
position = "{396, 17}";
},
{
name = top;
position = "{284, 730}";
}
);
color = 9;
layerId = "4A17B37A-CBFD-40E5-9E02-2080A0E1F76C";
paths = (
{
closed = 1;
nodes = (
"447 -10 OFFCURVE",
"526 114 OFFCURVE",
"526 288 CURVE SMOOTH",
"526 479 OFFCURVE",
"452 617 OFFCURVE",
"296 704 CURVE",
"185 704 LINE",
"327 628 OFFCURVE",
"413 533 OFFCURVE",
"445 398 CURVE",
"453 405 LINE",
"417 456 OFFCURVE",
"359 485 OFFCURVE",
"276 485 CURVE SMOOTH",
"143 485 OFFCURVE",
"42 392 OFFCURVE",
"42 238 CURVE SMOOTH",
"42 83 OFFCURVE",
"133 -10 OFFCURVE",
"278 -10 CURVE SMOOTH"
);
},
{
closed = 1;
nodes = (
"186 60 OFFCURVE",
"125 126 OFFCURVE",
"125 238 CURVE SMOOTH",
"125 348 OFFCURVE",
"186 415 OFFCURVE",
"287 415 CURVE SMOOTH",
"387 415 OFFCURVE",
"448 348 OFFCURVE",
"448 238 CURVE SMOOTH",
"448 144 OFFCURVE",
"387 60 OFFCURVE",
"282 60 CURVE SMOOTH"
);
},
{
closed = 1;
nodes = (
"408 590 LINE",
"372 638 LINE",
"172 594 LINE",
"187 533 LINE"
);
},
{
closed = 1;
nodes = (
"532 619 LINE",
"515 678 LINE",
"372 638 LINE",
"408 590 LINE"
);
}
);
width = 567;
},
{
anchors = (
{
name = bottom;
position = "{266, 0}";
},
{
name = ogonek;
position = "{379, 21}";
},
{
name = top;
position = "{266, 704}";
}
);
color = 9;
layerId = "1C7CD022-87C7-4E11-B656-E47B18819458";
paths = (
{
closed = 1;
nodes = (
"410 -10 OFFCURVE",
"496 85 OFFCURVE",
"496 283 CURVE SMOOTH",
"496 534 OFFCURVE",
"383 649 OFFCURVE",
"255 704 CURVE",
"224 704 LINE",
"365 653 OFFCURVE",
"481 522 OFFCURVE",
"482 294 CURVE",
"487 304 LINE",
"472 414 OFFCURVE",
"390 485 OFFCURVE",
"264 485 CURVE SMOOTH",
"127 485 OFFCURVE",
"36 388 OFFCURVE",
"36 237 CURVE SMOOTH",
"36 88 OFFCURVE",
"126 -10 OFFCURVE",
"272 -10 CURVE SMOOTH"
);
},
{
closed = 1;
nodes = (
"135 4 OFFCURVE",
"52 95 OFFCURVE",
"52 237 CURVE SMOOTH",
"52 379 OFFCURVE",
"136 471 OFFCURVE",
"264 471 CURVE SMOOTH",
"385 471 OFFCURVE",
"480 391 OFFCURVE",
"480 259 CURVE SMOOTH",
"480 117 OFFCURVE",
"413 4 OFFCURVE",
"272 4 CURVE SMOOTH"
);
},
{
closed = 1;
nodes = (
"399 613 LINE",
"391 625 LINE",
"209 587 LINE",
"213 574 LINE"
);
},
{
closed = 1;
nodes = (
"515 638 LINE",
"511 651 LINE",
"391 625 LINE",
"399 613 LINE"
);
}
);
width = 537;
},
{
anchors = (
{
name = bottom;
position = "{293, 0}";
},
{
name = ogonek;
position = "{399, 9}";
},
{
name = top;
position = "{293, 697}";
}
);
layerId = "4605B8F7-B96C-4225-97D4-41F6E85C553E";
paths = (
{
closed = 1;
nodes = (
"473 -10 OFFCURVE",
"565 93 OFFCURVE",
"565 316 CURVE SMOOTH",
"565 542 OFFCURVE",
"428 664 OFFCURVE",
"364 704 CURVE",
"149 704 LINE",
"292 598 OFFCURVE",
"360 540 OFFCURVE",
"371 389 CURVE",
"413 406 LINE",
"403 464 OFFCURVE",
"359 504 OFFCURVE",
"261 504 CURVE SMOOTH",
"119 504 OFFCURVE",
"20 411 OFFCURVE",
"20 247 CURVE SMOOTH",
"20 83 OFFCURVE",
"119 -10 OFFCURVE",
"291 -10 CURVE SMOOTH"
);
},
{
closed = 1;
nodes = (
"262 155 OFFCURVE",
"251 176 OFFCURVE",
"251 247 CURVE SMOOTH",
"251 334 OFFCURVE",
"262 356 OFFCURVE",
"299 356 CURVE SMOOTH",
"338 356 OFFCURVE",
"350 334 OFFCURVE",
"350 247 CURVE SMOOTH",
"350 172 OFFCURVE",
"338 155 OFFCURVE",
"299 155 CURVE SMOOTH"
);
},
{
closed = 1;
nodes = (
"347 571 LINE",
"326 630 LINE",
"165 605 LINE",
"175 544 LINE"
);
},
{
closed = 1;
nodes = (
"572 611 LINE",
"560 669 LINE",
"391 641 LINE",
"406 583 LINE"
);
}
);
width = 583;
},
{
anchors = (
{
name = bottom;
position = "{296, 0}";
},
{
name = ogonek;
position = "{404, 13}";
},
{
name = top;
position = "{296, 713}";
}
);
layerId = "17687776-AAFA-4856-A5EB-4A2EB08551C8";
paths = (
{
closed = 1;
nodes = (
"468 -10 OFFCURVE",
"554 103 OFFCURVE",
"554 303 CURVE SMOOTH",
"554 512 OFFCURVE",
"447 642 OFFCURVE",
"340 704 CURVE",
"173 704 LINE",
"320 612 OFFCURVE",
"392 537 OFFCURVE",
"412 393 CURVE",
"439 405 LINE",
"416 461 OFFCURVE",
"366 495 OFFCURVE",
"275 495 CURVE SMOOTH",
"138 495 OFFCURVE",
"38 402 OFFCURVE",
"38 243 CURVE SMOOTH",
"38 83 OFFCURVE",
"132 -10 OFFCURVE",
"292 -10 CURVE SMOOTH"
);
},
{
closed = 1;
nodes = (
"233 110 OFFCURVE",
"200 152 OFFCURVE",
"200 243 CURVE SMOOTH",
"200 340 OFFCURVE",
"233 383 OFFCURVE",
"301 383 CURVE SMOOTH",
"368 383 OFFCURVE",
"403 340 OFFCURVE",
"403 243 CURVE SMOOTH",
"403 159 OFFCURVE",
"368 110 OFFCURVE",
"298 110 CURVE SMOOTH"
);
},
{
closed = 1;
nodes = (
"382 580 LINE",
"354 634 LINE",
"176 600 LINE",
"187 539 LINE"
);
},
{
closed = 1;
nodes = (
"561 615 LINE",
"546 673 LINE",
"389 639 LINE",
"414 587 LINE"
);
}
);
width = 599;
}
);
unicode = 00F0;
},
{
color = 5;
glyphname = dcroat;
layers = (
{
components = (
{
name = d;
}
);
layerId = "4A17B37A-CBFD-40E5-9E02-2080A0E1F76C";
paths = (
{
closed = 1;
nodes = (
"594 562 LINE",
"594 627 LINE",
"280 627 LINE",
"280 562 LINE"
);
}
);
width = 589;
},
{
color = 0;
components = (
{
alignment = -1;
name = d;
}
);
layerId = "1C7CD022-87C7-4E11-B656-E47B18819458";
paths = (
{
closed = 1;
nodes = (
"582 592 LINE",
"582 606 LINE",
"287 606 LINE",
"287 592 LINE"
);
}
);
width = 555;
},
{
components = (
{
name = d;
}
);
layerId = "4605B8F7-B96C-4225-97D4-41F6E85C553E";
paths = (
{
closed = 1;
nodes = (
"653 530 LINE",
"653 657 LINE",
"227 657 LINE",
"227 530 LINE"
);
}
);
width = 627;
},
{
components = (
{
alignment = -1;
name = d;
}
);
layerId = "17687776-AAFA-4856-A5EB-4A2EB08551C8";
paths = (
{
closed = 1;
nodes = (
"635 549 LINE",
"635 647 LINE",
"261 647 LINE",
"261 549 LINE"
);
}
);
width = 628;
}
);
leftKerningGroup = o;
leftMetricsKey = d;
rightKerningGroup = d;
unicode = 0111;
},
{
color = 5;
glyphname = e;
layers = (
{
anchors = (
{
name = bottom;
position = "{282, 0}";
},
{
name = ogonek;
position = "{380, 7}";
},
{
name = top;
position = "{273, 500}";
}
);
color = 9;
layerId = "4A17B37A-CBFD-40E5-9E02-2080A0E1F76C";
paths = (
{
closed = 1;
nodes = (
"381 -10 OFFCURVE",
"452 33 OFFCURVE",
"490 101 CURVE",
"427 138 LINE",
"399 90 OFFCURVE",
"355 60 OFFCURVE",
"282 60 CURVE SMOOTH",
"179 60 OFFCURVE",
"118 134 OFFCURVE",
"118 249 CURVE",
"85 230 LINE",
"498 230 LINE",
"500 244 OFFCURVE",
"502 263 OFFCURVE",
"502 286 CURVE SMOOTH",
"502 414 OFFCURVE",
"419 510 OFFCURVE",
"279 510 CURVE SMOOTH",
"139 510 OFFCURVE",
"38 412 OFFCURVE",
"38 250 CURVE SMOOTH",
"38 88 OFFCURVE",
"140 -10 OFFCURVE",
"284 -10 CURVE SMOOTH"
);
},
{
closed = 1;
nodes = (
"137 389 OFFCURVE",
"194 440 OFFCURVE",
"277 440 CURVE SMOOTH",
"360 440 OFFCURVE",
"414 392 OFFCURVE",
"417 301 CURVE",
"122 301 LINE"
);
}
);
width = 536;
},
{
anchors = (
{
name = bottom;
position = "{269, 0}";
},
{
name = ogonek;
position = "{352, 5}";
},
{
name = top;
position = "{256, 500}";
}
);
color = 9;
layerId = "1C7CD022-87C7-4E11-B656-E47B18819458";
paths = (
{
closed = 1;
nodes = (
"356 -10 OFFCURVE",
"432 35 OFFCURVE",
"467 109 CURVE",
"454 116 LINE",
"421 46 OFFCURVE",
"349 4 OFFCURVE",
"268 4 CURVE SMOOTH",
"144 4 OFFCURVE",
"52 96 OFFCURVE",
"52 250 CURVE SMOOTH",
"52 255 LINE",
"471 255 LINE",
"471 257 OFFCURVE",
"471 260 OFFCURVE",
"471 262 CURVE SMOOTH",
"471 416 OFFCURVE",
"392 510 OFFCURVE",
"260 510 CURVE SMOOTH",
"134 510 OFFCURVE",
"36 413 OFFCURVE",
"36 250 CURVE SMOOTH",
"36 87 OFFCURVE",
"135 -10 OFFCURVE",
"268 -10 CURVE SMOOTH"
);
},
{
closed = 1;
nodes = (
"60 412 OFFCURVE",
"148 496 OFFCURVE",
"260 496 CURVE SMOOTH",
"385 496 OFFCURVE",
"454 404 OFFCURVE",
"457 270 CURVE",
"53 270 LINE"
);
}
);
width = 504;
},
{
anchors = (
{
name = bottom;
position = "{296, 0}";
},
{
name = ogonek;
position = "{418, 7}";
},
{
name = top;
position = "{296, 500}";
}
);
layerId = "4605B8F7-B96C-4225-97D4-41F6E85C553E";
paths = (
{
closed = 1;
nodes = (
"415 -10 OFFCURVE",
"531 41 OFFCURVE",
"554 147 CURVE",
"369 197 LINE",
"362 173 OFFCURVE",
"346 153 OFFCURVE",
"308 153 CURVE SMOOTH",
"270 153 OFFCURVE",
"237 168 OFFCURVE",
"237 220 CURVE",
"137 211 LINE",
"558 211 LINE",
"561 223 OFFCURVE",
"563 249 OFFCURVE",
"563 271 CURVE SMOOTH",
"563 417 OFFCURVE",
"467 510 OFFCURVE",
"297 510 CURVE SMOOTH",
"131 510 OFFCURVE",
"20 417 OFFCURVE",
"20 251 CURVE SMOOTH",
"20 84 OFFCURVE",
"122 -10 OFFCURVE",
"303 -10 CURVE SMOOTH"
);
},
{
closed = 1;
nodes = (
"241 332 OFFCURVE",
"262 352 OFFCURVE",
"295 352 CURVE SMOOTH",
"326 352 OFFCURVE",
"346 335 OFFCURVE",
"347 296 CURVE",
"241 296 LINE"
);
}
);
width = 580;
},
{
anchors = (
{
name = bottom;
position = "{294, 0}";
},
{
name = ogonek;
position = "{405, 7}";
},
{
name = top;
position = "{290, 500}";
}
);
layerId = "17687776-AAFA-4856-A5EB-4A2EB08551C8";
paths = (
{
closed = 1;
nodes = (
"404 -10 OFFCURVE",
"501 38 OFFCURVE",
"532 126 CURVE",
"399 179 LINE",
"383 145 OFFCURVE",
"358 115 OFFCURVE",
"302 115 CURVE SMOOTH",
"229 115 OFFCURVE",
"190 159 OFFCURVE",
"190 234 CURVE",
"122 208 LINE",
"535 208 LINE",
"537 226 OFFCURVE",
"538 248 OFFCURVE",
"538 273 CURVE SMOOTH",
"538 405 OFFCURVE",
"449 510 OFFCURVE",
"293 510 CURVE SMOOTH",
"140 510 OFFCURVE",
"35 414 OFFCURVE",
"35 246 CURVE SMOOTH",
"35 85 OFFCURVE",
"137 -10 OFFCURVE",
"296 -10 CURVE SMOOTH"
);
},
{
closed = 1;
nodes = (
"201 362 OFFCURVE",
"239 388 OFFCURVE",
"292 388 CURVE SMOOTH",
"347 388 OFFCURVE",
"380 356 OFFCURVE",
"382 301 CURVE",
"193 301 LINE"
);
}
);
width = 574;
}
);
leftKerningGroup = o;
leftMetricsKey = o;
rightKerningGroup = e;
unicode = 0065;
},
{
color = 5;
glyphname = f;
layers = (
{
anchors = (
{
name = bottom;
position = "{159, 0}";
},
{
name = ogonek;
position = "{199, 0}";
},
{
name = top;
position = "{244, 704}";
}
);
color = 9;
guideLines = (
{
angle = 90;
position = "{363, 500}";
}
);
layerId = "4A17B37A-CBFD-40E5-9E02-2080A0E1F76C";
paths = (
{
closed = 1;
nodes = (
"175 709 OFFCURVE",
"119 647 OFFCURVE",
"119 548 CURVE SMOOTH",
"119 0 LINE",
"199 0 LINE",
"199 474 LINE",
"199 500 LINE",
"199 550 LINE SMOOTH",
"199 610 OFFCURVE",
"232 636 OFFCURVE",
"290 636 CURVE SMOOTH",
"310 636 OFFCURVE",
"331 630 OFFCURVE",
"348 621 CURVE",
"374 690 LINE",
"351 702 OFFCURVE",
"319 709 OFFCURVE",
"288 709 CURVE SMOOTH"
);
},
{
closed = 1;
nodes = (
"19 500 LINE",
"19 431 LINE",
"366 431 LINE",
"366 500 LINE"
);
}
);
width = 371;
},
{
anchors = (
{
name = bottom;
position = "{108, 0}";
},
{
name = ogonek;
position = "{116, 0}";
},
{
name = top;
position = "{205, 707}";
}
);
color = 9;
layerId = "1C7CD022-87C7-4E11-B656-E47B18819458";
paths = (
{
closed = 1;
nodes = (
"150 712 OFFCURVE",
"100 655 OFFCURVE",
"100 560 CURVE SMOOTH",
"100 0 LINE",
"116 0 LINE",
"116 491 LINE",
"116 500 LINE",
"116 560 LINE SMOOTH",
"116 646 OFFCURVE",
"160 698 OFFCURVE",
"233 698 CURVE SMOOTH",
"268 698 OFFCURVE",
"286 688 OFFCURVE",
"302 675 CURVE",
"310 687 LINE",
"295 699 OFFCURVE",
"272 712 OFFCURVE",
"233 712 CURVE SMOOTH"
);
},
{
closed = 1;
nodes = (
"0 500 LINE",
"0 486 LINE",
"302 486 LINE",
"302 500 LINE"
);
}
);
width = 304;
},
{
anchors = (
{
name = bottom;
position = "{210, 0}";
},
{
name = ogonek;
position = "{325, 0}";
},
{
name = top;
position = "{277, 697}";
}
);
layerId = "4605B8F7-B96C-4225-97D4-41F6E85C553E";
paths = (
{
closed = 1;
nodes = (
"180 716 OFFCURVE",
"95 637 OFFCURVE",
"95 512 CURVE SMOOTH",
"95 0 LINE",
"325 0 LINE",
"325 415 LINE",
"319 444 LINE",
"319 494 LINE SMOOTH",
"319 530 OFFCURVE",
"343 546 OFFCURVE",
"387 546 CURVE SMOOTH",
"404 546 OFFCURVE",
"427 542 OFFCURVE",
"440 537 CURVE",
"468 694 LINE",
"446 703 OFFCURVE",
"407 716 OFFCURVE",
"340 716 CURVE SMOOTH"
);
},
{
closed = 1;
nodes = (
"8 500 LINE",
"8 335 LINE",
"451 335 LINE",
"451 500 LINE"
);
}
);
width = 459;
},
{
anchors = (
{
name = bottom;
position = "{188, 0}";
},
{
name = ogonek;
position = "{268, 0}";
},
{
name = top;
position = "{263, 709}";
}
);
layerId = "17687776-AAFA-4856-A5EB-4A2EB08551C8";
paths = (
{
closed = 1;
nodes = (
"192 714 OFFCURVE",
"109 645 OFFCURVE",
"109 520 CURVE SMOOTH",
"109 0 LINE",
"268 0 LINE",
"268 437 LINE",
"267 465 LINE",
"267 512 LINE SMOOTH",
"267 559 OFFCURVE",
"297 578 OFFCURVE",
"345 578 CURVE SMOOTH",
"366 578 OFFCURVE",
"387 572 OFFCURVE",
"399 567 CURVE",
"431 691 LINE",
"400 708 OFFCURVE",
"363 714 OFFCURVE",
"316 714 CURVE SMOOTH"
);
},
{
closed = 1;
nodes = (
"19 500 LINE",
"19 372 LINE",
"413 372 LINE",
"413 500 LINE"
);
}
);
width = 421;
}
);
leftKerningGroup = f;
rightKerningGroup = f;
unicode = 0066;
},
{
color = 5;
glyphname = g;
layers = (
{
anchors = (
{
name = bottom;
position = "{288, -194}";
},
{
name = ogonek;
position = "{387, -177}";
},
{
name = top;
position = "{267, 500}";
}
);
color = 9;
layerId = "4A17B37A-CBFD-40E5-9E02-2080A0E1F76C";
paths = (
{
closed = 1;
nodes = (
"439 -203 OFFCURVE",
"517 -116 OFFCURVE",
"517 56 CURVE SMOOTH",
"517 500 LINE",
"447 500 LINE",
"442 414 LINE",
"414 474 OFFCURVE",
"345 510 OFFCURVE",
"274 510 CURVE SMOOTH",
"148 510 OFFCURVE",
"41 416 OFFCURVE",
"41 250 CURVE SMOOTH",
"41 87 OFFCURVE",
"141 -10 OFFCURVE",
"266 -10 CURVE SMOOTH",
"336 -10 OFFCURVE",
"405 23 OFFCURVE",
"436 82 CURVE",
"436 37 LINE SMOOTH",
"436 -61 OFFCURVE",
"393 -135 OFFCURVE",
"286 -135 CURVE SMOOTH",
"191 -135 OFFCURVE",
"140 -95 OFFCURVE",
"121 -25 CURVE",
"40 -48 LINE",
"68 -156 OFFCURVE",
"164 -203 OFFCURVE",
"276 -203 CURVE SMOOTH"
);
},
{
closed = 1;
nodes = (
"180 60 OFFCURVE",
"123 135 OFFCURVE",
"123 250 CURVE SMOOTH",
"123 365 OFFCURVE",
"182 440 OFFCURVE",
"281 440 CURVE SMOOTH",
"375 440 OFFCURVE",
"437 373 OFFCURVE",
"437 253 CURVE SMOOTH",
"437 135 OFFCURVE",
"373 60 OFFCURVE",
"279 60 CURVE SMOOTH"
);
}
);
width = 590;
},
{
anchors = (
{
name = bottom;
position = "{269, -194}";
},
{
name = ogonek;
position = "{377, -173}";
},
{
name = top;
position = "{267, 500}";
}
);
color = 9;
layerId = "1C7CD022-87C7-4E11-B656-E47B18819458";
paths = (
{
closed = 1;
nodes = (
"399 -199 OFFCURVE",
"485 -125 OFFCURVE",
"485 25 CURVE SMOOTH",
"485 500 LINE",
"469 500 LINE",
"469 349 LINE",
"443 452 OFFCURVE",
"366 510 OFFCURVE",
"265 510 CURVE SMOOTH",
"128 510 OFFCURVE",
"36 413 OFFCURVE",
"36 250 CURVE SMOOTH",
"36 87 OFFCURVE",
"128 -10 OFFCURVE",
"265 -10 CURVE SMOOTH",
"367 -10 OFFCURVE",
"445 49 OFFCURVE",
"469 153 CURVE",
"469 24 LINE SMOOTH",
"469 -116 OFFCURVE",
"389 -185 OFFCURVE",
"255 -185 CURVE SMOOTH",
"144 -185 OFFCURVE",
"69 -135 OFFCURVE",
"55 -55 CURVE",
"39 -62 LINE",
"56 -146 OFFCURVE",
"139 -199 OFFCURVE",
"255 -199 CURVE SMOOTH"
);
},
{
closed = 1;
nodes = (
"139 4 OFFCURVE",
"52 95 OFFCURVE",
"52 250 CURVE SMOOTH",
"52 405 OFFCURVE",
"139 496 OFFCURVE",
"268 496 CURVE SMOOTH",
"385 496 OFFCURVE",
"469 401 OFFCURVE",
"469 250 CURVE SMOOTH",
"469 99 OFFCURVE",
"384 4 OFFCURVE",
"268 4 CURVE SMOOTH"
);
}
);
width = 555;
},
{
anchors = (
{
name = bottom;
position = "{311, -194}";
},
{
name = ogonek;
position = "{415, -185}";
},
{
name = top;
position = "{322, 500}";
}
);
layerId = "4605B8F7-B96C-4225-97D4-41F6E85C553E";
paths = (
{
closed = 1;
nodes = (
"487 -209 OFFCURVE",
"585 -129 OFFCURVE",
"585 64 CURVE SMOOTH",
"585 500 LINE",
"376 500 LINE",
"371 396 LINE",
"344 465 OFFCURVE",
"291 510 OFFCURVE",
"213 510 CURVE SMOOTH",
"93 510 OFFCURVE",
"22 416 OFFCURVE",
"22 253 CURVE SMOOTH",
"22 82 OFFCURVE",
"92 -4 OFFCURVE",
"214 -4 CURVE SMOOTH",
"284 -4 OFFCURVE",
"330 31 OFFCURVE",
"355 89 CURVE",
"355 7 LINE SMOOTH",
"355 -28 OFFCURVE",
"340 -50 OFFCURVE",
"296 -50 CURVE SMOOTH",
"269 -50 OFFCURVE",
"248 -42 OFFCURVE",
"245 -22 CURVE",
"13 -51 LINE",
"42 -154 OFFCURVE",
"131 -209 OFFCURVE",
"290 -209 CURVE SMOOTH"
);
},
{
closed = 1;
nodes = (
"273 168 OFFCURVE",
"254 184 OFFCURVE",
"254 251 CURVE SMOOTH",
"254 323 OFFCURVE",
"274 339 OFFCURVE",
"304 339 CURVE SMOOTH",
"337 339 OFFCURVE",
"355 317 OFFCURVE",
"355 251 CURVE SMOOTH",
"355 194 OFFCURVE",
"337 168 OFFCURVE",
"303 168 CURVE SMOOTH"
);
}
);
width = 624;
},
{
anchors = (
{
name = bottom;
position = "{304, -194}";
},
{
name = ogonek;
position = "{406, -181}";
},
{
name = top;
position = "{300, 500}";
}
);
layerId = "17687776-AAFA-4856-A5EB-4A2EB08551C8";
paths = (
{
closed = 1;
nodes = (
"465 -207 OFFCURVE",
"557 -103 OFFCURVE",
"557 75 CURVE SMOOTH",
"557 500 LINE",
"412 500 LINE",
"408 424 LINE",
"381 479 OFFCURVE",
"331 510 OFFCURVE",
"259 510 CURVE SMOOTH",
"129 510 OFFCURVE",
"36 416 OFFCURVE",
"36 255 CURVE SMOOTH",
"36 94 OFFCURVE",
"128 0 OFFCURVE",
"249 0 CURVE SMOOTH",
"316 0 OFFCURVE",
"366 30 OFFCURVE",
"397 77 CURVE",
"397 29 LINE SMOOTH",
"397 -48 OFFCURVE",
"360 -87 OFFCURVE",
"294 -87 CURVE SMOOTH",
"230 -87 OFFCURVE",
"204 -65 OFFCURVE",
"192 -28 CURVE",
"19 -57 LINE",
"41 -142 OFFCURVE",
"126 -207 OFFCURVE",
"286 -207 CURVE SMOOTH"
);
},
{
closed = 1;
nodes = (
"233 134 OFFCURVE",
"197 170 OFFCURVE",
"197 253 CURVE SMOOTH",
"197 340 OFFCURVE",
"234 377 OFFCURVE",
"298 377 CURVE SMOOTH",
"359 377 OFFCURVE",
"397 335 OFFCURVE",
"397 258 CURVE SMOOTH",
"397 178 OFFCURVE",
"359 134 OFFCURVE",
"297 134 CURVE SMOOTH"
);
}
);
width = 621;
},
{
anchors = (
{
name = bottom;
position = "{299, -194}";
},
{
name = ogonek;
position = "{400, -180}";
},
{
name = top;
position = "{289, 500}";
}
);
associatedMasterId = "17687776-AAFA-4856-A5EB-4A2EB08551C8";
background = {
anchors = (
{
name = bottom;
position = "{299, -194}";
},
{
name = ogonek;
position = "{400, -180}";
},
{
name = top;
position = "{289, 500}";
}
);
paths = (
{
closed = 1;
nodes = (
"457 -206 OFFCURVE",
"544 -107 OFFCURVE",
"544 69 CURVE SMOOTH",
"544 500 LINE",
"423 500 LINE",
"419 421 LINE",
"392 477 OFFCURVE",
"336 510 OFFCURVE",
"264 510 CURVE SMOOTH",
"135 510 OFFCURVE",
"38 416 OFFCURVE",
"38 253 CURVE SMOOTH",
"38 92 OFFCURVE",
"132 -3 OFFCURVE",
"255 -3 CURVE SMOOTH",
"323 -3 OFFCURVE",
"379 28 OFFCURVE",
"410 79 CURVE",
"410 32 LINE SMOOTH",
"410 -52 OFFCURVE",
"371 -103 OFFCURVE",
"291 -103 CURVE SMOOTH",
"217 -103 OFFCURVE",
"183 -75 OFFCURVE",
"169 -27 CURVE",
"26 -54 LINE",
"50 -147 OFFCURVE",
"138 -206 OFFCURVE",
"283 -206 CURVE SMOOTH"
);
},
{
closed = 1;
nodes = (
"216 110 OFFCURVE",
"173 159 OFFCURVE",
"173 252 CURVE SMOOTH",
"173 348 OFFCURVE",
"217 397 OFFCURVE",
"292 397 CURVE SMOOTH",
"364 397 OFFCURVE",
"410 347 OFFCURVE",
"410 256 CURVE SMOOTH",
"410 164 OFFCURVE",
"364 110 OFFCURVE",
"291 110 CURVE SMOOTH"
);
}
);
};
layerId = "EFDEEC0A-21FB-4C1E-A499-CCB96CC89903";
name = "{134}";
paths = (
{
closed = 1;
nodes = (
"456 -206 OFFCURVE",
"544 -107 OFFCURVE",
"544 69 CURVE SMOOTH",
"544 500 LINE",
"423 500 LINE",
"419 421 LINE",
"392 477 OFFCURVE",
"336 510 OFFCURVE",
"264 510 CURVE SMOOTH",
"135 510 OFFCURVE",
"38 416 OFFCURVE",
"38 253 CURVE SMOOTH",
"38 92 OFFCURVE",
"132 -3 OFFCURVE",
"255 -3 CURVE SMOOTH",
"323 -3 OFFCURVE",
"379 28 OFFCURVE",
"410 79 CURVE",
"410 32 LINE SMOOTH",
"410 -52 OFFCURVE",
"371 -101 OFFCURVE",
"291 -101 CURVE SMOOTH",
"221 -101 OFFCURVE",
"179 -79 OFFCURVE",
"163 -28 CURVE",
"26 -54 LINE",
"50 -145 OFFCURVE",
"141 -206 OFFCURVE",
"286 -206 CURVE SMOOTH"
);
},
{
closed = 1;
nodes = (
"216 110 OFFCURVE",
"173 159 OFFCURVE",
"173 252 CURVE SMOOTH",
"173 348 OFFCURVE",
"217 397 OFFCURVE",
"292 397 CURVE SMOOTH",
"364 397 OFFCURVE",
"410 347 OFFCURVE",
"410 256 CURVE SMOOTH",
"410 164 OFFCURVE",
"364 110 OFFCURVE",
"291 110 CURVE SMOOTH"
);
}
);
width = 611;
}
);
leftKerningGroup = g.ss01;
rightKerningGroup = g.ss01;
rightMetricsKey = u;
unicode = 0067;
},
{
color = 5;
glyphname = h;
layers = (
{
anchors = (
{
name = bottom;
position = "{322, 0}";
},
{
name = ogonek;
position = "{511, 0}";
},
{
name = top;
position = "{113, 684}";
}
);
color = 9;
layerId = "4A17B37A-CBFD-40E5-9E02-2080A0E1F76C";
paths = (
{
closed = 1;
nodes = (
"153 0 LINE",
"153 265 LINE SMOOTH",
"153 393 OFFCURVE",
"235 440 OFFCURVE",
"308 440 CURVE SMOOTH",
"377 440 OFFCURVE",
"431 403 OFFCURVE",
"431 292 CURVE SMOOTH",
"431 0 LINE",
"511 0 LINE",
"511 320 LINE SMOOTH",
"511 449 OFFCURVE",
"423 510 OFFCURVE",
"316 510 CURVE SMOOTH",
"248 510 OFFCURVE",
"188 485 OFFCURVE",
"153 425 CURVE",
"153 704 LINE",
"73 704 LINE",
"73 0 LINE"
);
}
);
width = 579;
},
{
anchors = (
{
name = bottom;
position = "{308, 0}";
},
{
name = ogonek;
position = "{480, 0}";
},
{
name = top;
position = "{78, 654}";
}
);
color = 9;
layerId = "1C7CD022-87C7-4E11-B656-E47B18819458";
paths = (
{
closed = 1;
nodes = (
"86 0 LINE",
"86 302 LINE SMOOTH",
"86 406 OFFCURVE",
"174 497 OFFCURVE",
"291 497 CURVE SMOOTH",
"397 497 OFFCURVE",
"464 435 OFFCURVE",
"464 328 CURVE SMOOTH",
"464 1 LINE",
"480 1 LINE",
"480 330 LINE SMOOTH",
"480 445 OFFCURVE",
"409 511 OFFCURVE",
"294 511 CURVE SMOOTH",
"189 511 OFFCURVE",
"109 450 OFFCURVE",
"86 368 CURVE",
"86 704 LINE",
"70 704 LINE",
"70 0 LINE"
);
}
);
width = 544;
},
{
anchors = (
{
name = bottom;
position = "{303, 0}";
},
{
name = ogonek;
position = "{582, 0}";
},
{
name = top;
position = "{154, 704}";
}
);
layerId = "4605B8F7-B96C-4225-97D4-41F6E85C553E";
paths = (
{
closed = 1;
nodes = (
"269 0 LINE",
"269 262 LINE SMOOTH",
"269 307 OFFCURVE",
"284 330 OFFCURVE",
"317 330 CURVE SMOOTH",
"341 330 OFFCURVE",
"352 318 OFFCURVE",
"352 281 CURVE SMOOTH",
"352 0 LINE",
"582 0 LINE",
"582 344 LINE SMOOTH",
"582 449 OFFCURVE",
"524 510 OFFCURVE",
"425 510 CURVE SMOOTH",
"349 510 OFFCURVE",
"296 468 OFFCURVE",
"269 395 CURVE",
"269 704 LINE",
"39 704 LINE",
"39 0 LINE"
);
}
);
width = 620;
},
{
anchors = (
{
name = bottom;
position = "{321, 0}";
},
{
name = ogonek;
position = "{558, 0}";
},
{
name = top;
position = "{144, 698}";
}
);
layerId = "17687776-AAFA-4856-A5EB-4A2EB08551C8";
paths = (
{
closed = 1;
nodes = (
"224 0 LINE",
"224 263 LINE SMOOTH",
"224 339 OFFCURVE",
"271 371 OFFCURVE",
"322 371 CURVE SMOOTH",
"367 371 OFFCURVE",
"398 350 OFFCURVE",
"398 285 CURVE SMOOTH",
"398 0 LINE",
"558 0 LINE",
"558 335 LINE SMOOTH",
"558 449 OFFCURVE",
"486 510 OFFCURVE",
"384 510 CURVE SMOOTH",
"311 510 OFFCURVE",
"255 475 OFFCURVE",
"224 406 CURVE",
"224 704 LINE",
"64 704 LINE",
"64 0 LINE"
);
}
);
width = 619;
}
);
leftKerningGroup = h;
rightKerningGroup = n;
unicode = 0068;
},
{
color = 5;
glyphname = idotless;
layers = (
{
anchors = (
{
name = bottom;
position = "{113, 0}";
},
{
name = ogonek;
position = "{153, 0}";
},
{
name = top;
position = "{113, 500}";
}
);
color = 9;
layerId = "4A17B37A-CBFD-40E5-9E02-2080A0E1F76C";
paths = (
{
closed = 1;
nodes = (
"73 500 LINE",
"73 0 LINE",
"153 0 LINE",
"153 500 LINE"
);
}
);
width = 226;
},
{
anchors = (
{
name = bottom;
position = "{78, 0}";
},
{
name = ogonek;
position = "{86, 0}";
},
{
name = top;
position = "{78, 500}";
}
);
color = 9;
layerId = "1C7CD022-87C7-4E11-B656-E47B18819458";
paths = (
{
closed = 1;
nodes = (
"70 500 LINE",
"70 0 LINE",
"86 0 LINE",
"86 500 LINE"
);
}
);
width = 156;
},
{
anchors = (
{
name = bottom;
position = "{154, 0}";
},
{
name = ogonek;
position = "{269, 0}";
},
{
name = top;
position = "{154, 500}";
}
);
layerId = "4605B8F7-B96C-4225-97D4-41F6E85C553E";
paths = (
{
closed = 1;
nodes = (
"39 500 LINE",
"39 0 LINE",
"269 0 LINE",
"269 500 LINE"
);
}
);
width = 308;
},
{
anchors = (
{
name = bottom;
position = "{144, 0}";
},
{
name = ogonek;
position = "{224, 0}";
},
{
name = top;
position = "{144, 500}";
}
);
layerId = "17687776-AAFA-4856-A5EB-4A2EB08551C8";
paths = (
{
closed = 1;
nodes = (
"64 500 LINE",
"64 0 LINE",
"224 0 LINE",
"224 500 LINE"
);
}
);
width = 288;
}
);
leftKerningGroup = i;
rightKerningGroup = i;
unicode = 0131;
},
{
color = 5;
glyphname = jdotless;
layers = (
{
anchors = (
{
name = bottom;
position = "{-16, -194}";
},
{
name = ogonek;
position = "{8, -188}";
},
{
name = top;
position = "{78, 500}";
}
);
color = 9;
layerId = "1C7CD022-87C7-4E11-B656-E47B18819458";
paths = (
{
closed = 1;
nodes = (
"70 500 LINE",
"70 -48 LINE SMOOTH",
"70 -131 OFFCURVE",
"24 -185 OFFCURVE",
"-46 -185 CURVE SMOOTH",
"-70 -185 OFFCURVE",
"-96 -178 OFFCURVE",
"-112 -163 CURVE",
"-117 -177 LINE",
"-101 -191 OFFCURVE",
"-74 -199 OFFCURVE",
"-46 -199 CURVE SMOOTH",
"34 -199 OFFCURVE",
"86 -140 OFFCURVE",
"86 -48 CURVE SMOOTH",
"86 500 LINE"
);
}
);
width = 156;
},
{
anchors = (
{
name = bottom;
position = "{27, -194}";
},
{
name = ogonek;
position = "{59, -188}";
},
{
name = top;
position = "{113, 500}";
}
);
color = 9;
layerId = "4A17B37A-CBFD-40E5-9E02-2080A0E1F76C";
paths = (
{
closed = 1;
nodes = (
"73 500 LINE",
"73 -27 LINE SMOOTH",
"73 -97 OFFCURVE",
"43 -121 OFFCURVE",
"0 -121 CURVE SMOOTH",
"-29 -121 OFFCURVE",
"-50 -115 OFFCURVE",
"-67 -108 CURVE",
"-84 -184 LINE",
"-64 -192 OFFCURVE",
"-34 -199 OFFCURVE",
"1 -199 CURVE SMOOTH",
"69 -199 OFFCURVE",
"153 -160 OFFCURVE",
"153 -35 CURVE SMOOTH",
"153 500 LINE"
);
}
);
width = 226;
},
{
anchors = (
{
name = bottom;
position = "{83, -194}";
},
{
name = ogonek;
position = "{146, -188}";
},
{
name = top;
position = "{154, 500}";
}
);
layerId = "4605B8F7-B96C-4225-97D4-41F6E85C553E";
paths = (
{
closed = 1;
nodes = (
"39 500 LINE",
"39 37 LINE SMOOTH",
"39 -12 OFFCURVE",
"19 -29 OFFCURVE",
"-14 -29 CURVE SMOOTH",
"-32 -29 OFFCURVE",
"-45 -26 OFFCURVE",
"-53 -23 CURVE",
"-71 -181 LINE",
"-40 -194 OFFCURVE",
"-2 -199 OFFCURVE",
"48 -199 CURVE SMOOTH",
"203 -199 OFFCURVE",
"269 -137 OFFCURVE",
"269 7 CURVE SMOOTH",
"269 500 LINE"
);
}
);
width = 308;
},
{
anchors = (
{
name = bottom;
position = "{66, -194}";
},
{
name = ogonek;
position = "{115, -188}";
},
{
name = top;
position = "{144, 500}";
}
);
layerId = "17687776-AAFA-4856-A5EB-4A2EB08551C8";
paths = (
{
closed = 1;
nodes = (
"64 500 LINE",
"64 9 LINE SMOOTH",
"64 -48 OFFCURVE",
"38 -68 OFFCURVE",
"-3 -68 CURVE SMOOTH",
"-19 -68 OFFCURVE",
"-31 -66 OFFCURVE",
"-41 -63 CURVE",
"-58 -186 LINE",
"-35 -194 OFFCURVE",
"-6 -199 OFFCURVE",
"35 -199 CURVE SMOOTH",
"149 -199 OFFCURVE",
"224 -146 OFFCURVE",
"224 -9 CURVE SMOOTH",
"224 500 LINE"
);
}
);
width = 288;
}
);
leftKerningGroup = n;
rightKerningGroup = u;
rightMetricsKey = "=idotless";
unicode = 0237;
},
{
color = 5;
glyphname = k;
layers = (
{
anchors = (
{
name = bottom;
position = "{295, 0}";
},
{
name = top;
position = "{113, 674}";
}
);
color = 9;
layerId = "4A17B37A-CBFD-40E5-9E02-2080A0E1F76C";
paths = (
{
closed = 1;
nodes = (
"411 500 LINE",
"113 201 LINE",
"113 101 LINE",
"277 265 LINE",
"296 284 LINE",
"512 500 LINE"
);
},
{
closed = 1;
nodes = (
"73 704 LINE",
"73 0 LINE",
"153 0 LINE",
"153 704 LINE"
);
},
{
closed = 1;
nodes = (
"236 280 LINE",
"427 0 LINE",
"524 0 LINE",
"303 325 LINE"
);
}
);
width = 524;
},
{
anchors = (
{
name = bottom;
position = "{295, 0}";
},
{
name = top;
position = "{78, 654}";
}
);
color = 9;
layerId = "1C7CD022-87C7-4E11-B656-E47B18819458";
paths = (
{
closed = 1;
nodes = (
"428 500 LINE",
"79 177 LINE",
"78 157 LINE",
"223 291 LINE",
"226 292 LINE",
"450 500 LINE"
);
},
{
closed = 1;
nodes = (
"70 704 LINE",
"70 0 LINE",
"86 0 LINE",
"86 704 LINE"
);
},
{
closed = 1;
nodes = (
"212 291 LINE",
"434 0 LINE",
"455 0 LINE",
"225 302 LINE"
);
}
);
width = 462;
},
{
anchors = (
{
name = bottom;
position = "{337, 0}";
},
{
name = top;
position = "{154, 707}";
}
);
layerId = "4605B8F7-B96C-4225-97D4-41F6E85C553E";
paths = (
{
closed = 1;
nodes = (
"425 500 LINE",
"234 290 LINE",
"237 62 LINE",
"363 209 LINE",
"403 210 LINE",
"662 500 LINE"
);
},
{
closed = 1;
nodes = (
"39 704 LINE",
"39 0 LINE",
"269 0 LINE",
"269 704 LINE"
);
},
{
closed = 1;
nodes = (
"281 220 LINE",
"418 0 LINE",
"681 0 LINE",
"447 368 LINE"
);
}
);
width = 660;
},
{
anchors = (
{
name = bottom;
position = "{327, 0}";
},
{
name = top;
position = "{144, 695}";
}
);
layerId = "17687776-AAFA-4856-A5EB-4A2EB08551C8";
paths = (
{
closed = 1;
nodes = (
"417 500 LINE",
"183 255 LINE",
"191 80 LINE",
"336 234 LINE",
"364 247 LINE",
"602 500 LINE"
);
},
{
closed = 1;
nodes = (
"64 704 LINE",
"64 0 LINE",
"224 0 LINE",
"224 704 LINE"
);
},
{
closed = 1;
nodes = (
"264 241 LINE",
"423 0 LINE",
"614 0 LINE",
"381 352 LINE"
);
}
);
width = 609;
}
);
leftKerningGroup = h;
leftMetricsKey = n;
rightKerningGroup = k;
unicode = 006B;
},
{
color = 5;
glyphname = l;
layers = (
{
anchors = (
{
name = bottom;
position = "{179, 0}";
},
{
name = center;
position = "{249, 366}";
},
{
name = ogonek;
position = "{246, 0}";
},
{
name = top;
position = "{109, 704}";
},
{
name = topright;
position = "{226, 704}";
}
);
color = 9;
layerId = "4A17B37A-CBFD-40E5-9E02-2080A0E1F76C";
paths = (
{
closed = 1;
nodes = (
"69 704 LINE",
"69 120 LINE SMOOTH",
"69 33 OFFCURVE",
"112 -10 OFFCURVE",
"194 -10 CURVE SMOOTH",
"225 -10 OFFCURVE",
"254 -3 OFFCURVE",
"280 10 CURVE",
"261 80 LINE",
"245 70 OFFCURVE",
"227 64 OFFCURVE",
"203 64 CURVE SMOOTH",
"171 64 OFFCURVE",
"149 80 OFFCURVE",
"149 131 CURVE SMOOTH",
"149 704 LINE"
);
}
);
width = 266;
},
{
anchors = (
{
name = bottom;
position = "{144, 0}";
},
{
name = center;
position = "{201, 360}";
},
{
name = ogonek;
position = "{206, 0}";
},
{
name = top;
position = "{74, 704}";
},
{
name = topright;
position = "{173, 704}";
}
);
color = 9;
layerId = "1C7CD022-87C7-4E11-B656-E47B18819458";
paths = (
{
closed = 1;
nodes = (
"66 704 LINE",
"66 107 LINE SMOOTH",
"66 25 OFFCURVE",
"96 -10 OFFCURVE",
"155 -10 CURVE SMOOTH",
"181 -10 OFFCURVE",
"200 -5 OFFCURVE",
"213 2 CURVE",
"213 16 LINE",
"197 8 OFFCURVE",
"184 4 OFFCURVE",
"155 4 CURVE SMOOTH",
"106 4 OFFCURVE",
"82 34 OFFCURVE",
"82 107 CURVE SMOOTH",
"82 704 LINE"
);
}
);
width = 202;
},
{
anchors = (
{
name = bottom;
position = "{190, 0}";
},
{
name = center;
position = "{309, 350}";
},
{
name = ogonek;
position = "{276, 0}";
},
{
name = top;
position = "{142, 704}";
},
{
name = topright;
position = "{315, 704}";
}
);
layerId = "4605B8F7-B96C-4225-97D4-41F6E85C553E";
paths = (
{
closed = 1;
nodes = (
"37 704 LINE",
"37 168 LINE SMOOTH",
"37 38 OFFCURVE",
"86 -10 OFFCURVE",
"210 -10 CURVE SMOOTH",
"259 -10 OFFCURVE",
"317 4 OFFCURVE",
"344 24 CURVE",
"339 183 LINE",
"330 181 OFFCURVE",
"321 180 OFFCURVE",
"308 180 CURVE SMOOTH",
"277 180 OFFCURVE",
"267 198 OFFCURVE",
"267 237 CURVE SMOOTH",
"267 704 LINE"
);
}
);
width = 345;
},
{
anchors = (
{
name = bottom;
position = "{196, 0}";
},
{
name = center;
position = "{292, 356}";
},
{
name = ogonek;
position = "{273, 0}";
},
{
name = top;
position = "{137, 704}";
},
{
name = topright;
position = "{284, 704}";
}
);
layerId = "17687776-AAFA-4856-A5EB-4A2EB08551C8";
paths = (
{
closed = 1;
nodes = (
"63 704 LINE",
"63 154 LINE SMOOTH",
"63 44 OFFCURVE",
"116 -10 OFFCURVE",
"222 -10 CURVE SMOOTH",
"267 -10 OFFCURVE",
"305 0 OFFCURVE",
"335 14 CURVE",
"316 137 LINE",
"303 133 OFFCURVE",
"293 129 OFFCURVE",
"269 129 CURVE SMOOTH",
"238 129 OFFCURVE",
"223 145 OFFCURVE",
"223 187 CURVE SMOOTH",
"223 704 LINE"
);
}
);
width = 329;
}
);
leftKerningGroup = l;
rightKerningGroup = l;
unicode = 006C;
},
{
color = 5;
glyphname = lslash;
layers = (
{
components = (
{
name = l;
transform = "{1, 0, 0, 1, 45, 0}";
}
);
layerId = "4A17B37A-CBFD-40E5-9E02-2080A0E1F76C";
paths = (
{
closed = 1;
nodes = (
"157 402 LINE",
"130 387 LINE",
"13 312 LINE",
"13 229 LINE",
"148 316 LINE",
"175 331 LINE",
"309 417 LINE",
"309 500 LINE"
);
}
);
width = 326;
},
{
color = 0;
components = (
{
alignment = -1;
name = l;
transform = "{1, 0, 0, 1, 30, 0}";
}
);
layerId = "1C7CD022-87C7-4E11-B656-E47B18819458";
paths = (
{
closed = 1;
nodes = (
"103 357 LINE",
"100 356 LINE",
"-1 284 LINE",
"-1 267 LINE",
"104 342 LINE",
"106 343 LINE",
"237 438 LINE",
"237 455 LINE"
);
}
);
width = 248;
},
{
components = (
{
alignment = -1;
name = l;
transform = "{1, 0, 0, 1, 58, 0}";
}
);
layerId = "4605B8F7-B96C-4225-97D4-41F6E85C553E";
paths = (
{
closed = 1;
nodes = (
"217 413 LINE",
"178 385 LINE",
"10 295 LINE",
"10 146 LINE",
"214 255 LINE",
"248 280 LINE",
"414 367 LINE",
"414 517 LINE"
);
}
);
width = 431;
},
{
components = (
{
alignment = -1;
name = l;
transform = "{1, 0, 0, 1, 52, 0}";
}
);
layerId = "17687776-AAFA-4856-A5EB-4A2EB08551C8";
paths = (
{
closed = 1;
nodes = (
"204 410 LINE",
"164 382 LINE",
"23 302 LINE",
"23 178 LINE",
"183 269 LINE",
"227 299 LINE",
"377 386 LINE",
"377 511 LINE"
);
}
);
width = 403;
}
);
unicode = 0142;
},
{
color = 5;
glyphname = m;
layers = (
{
anchors = (
{
name = bottom;
position = "{459, 0}";
},
{
name = ogonek;
position = "{845, 0}";
},
{
name = top;
position = "{459, 500}";
}
);
color = 9;
guideLines = (
{
position = "{170, 423}";
}
);
layerId = "4A17B37A-CBFD-40E5-9E02-2080A0E1F76C";
paths = (
{
closed = 1;
nodes = (
"153 0 LINE",
"153 267 LINE SMOOTH",
"153 391 OFFCURVE",
"235 440 OFFCURVE",
"301 440 CURVE SMOOTH",
"367 440 OFFCURVE",
"419 403 OFFCURVE",
"419 312 CURVE SMOOTH",
"419 0 LINE",
"499 0 LINE",
"499 274 LINE SMOOTH",
"499 381 OFFCURVE",
"569 440 OFFCURVE",
"647 440 CURVE SMOOTH",
"713 440 OFFCURVE",
"765 403 OFFCURVE",
"765 312 CURVE SMOOTH",
"765 0 LINE",
"845 0 LINE",
"845 320 LINE SMOOTH",
"845 452 OFFCURVE",
"750 510 OFFCURVE",
"654 510 CURVE SMOOTH",
"591 510 OFFCURVE",
"511 480 OFFCURVE",
"480 412 CURVE",
"447 479 OFFCURVE",
"378 510 OFFCURVE",
"308 510 CURVE SMOOTH",
"246 510 OFFCURVE",
"184 483 OFFCURVE",
"148 422 CURVE",
"143 500 LINE",
"73 500 LINE",
"73 0 LINE"
);
}
);
width = 913;
},
{
anchors = (
{
name = bottom;
position = "{472, 0}";
},
{
name = ogonek;
position = "{874, 2}";
},
{
name = top;
position = "{472, 500}";
}
);
color = 9;
layerId = "1C7CD022-87C7-4E11-B656-E47B18819458";
paths = (
{
closed = 1;
nodes = (
"86 0 LINE",
"86 301 LINE SMOOTH",
"86 405 OFFCURVE",
"174 496 OFFCURVE",
"291 496 CURVE SMOOTH",
"397 496 OFFCURVE",
"464 434 OFFCURVE",
"464 327 CURVE SMOOTH",
"464 0 LINE",
"480 0 LINE",
"480 303 LINE SMOOTH",
"480 407 OFFCURVE",
"568 498 OFFCURVE",
"685 498 CURVE SMOOTH",
"791 498 OFFCURVE",
"858 436 OFFCURVE",
"858 329 CURVE SMOOTH",
"858 2 LINE",
"874 2 LINE",
"874 331 LINE SMOOTH",
"874 446 OFFCURVE",
"803 512 OFFCURVE",
"688 512 CURVE SMOOTH",
"580 512 OFFCURVE",
"498 447 OFFCURVE",
"478 361 CURVE",
"466 456 OFFCURVE",
"398 510 OFFCURVE",
"294 510 CURVE SMOOTH",
"189 510 OFFCURVE",
"109 449 OFFCURVE",
"86 367 CURVE",
"86 500 LINE",
"70 500 LINE",
"70 0 LINE"
);
}
);
width = 938;
},
{
anchors = (
{
name = bottom;
position = "{467, 0}";
},
{
name = ogonek;
position = "{891, 0}";
},
{
name = top;
position = "{467, 500}";
}
);
layerId = "4605B8F7-B96C-4225-97D4-41F6E85C553E";
paths = (
{
closed = 1;
nodes = (
"269 0 LINE",
"269 261 LINE SMOOTH",
"269 308 OFFCURVE",
"284 329 OFFCURVE",
"317 329 CURVE SMOOTH",
"341 329 OFFCURVE",
"352 318 OFFCURVE",
"352 279 CURVE SMOOTH",
"352 0 LINE",
"582 0 LINE",
"582 261 LINE SMOOTH",
"582 309 OFFCURVE",
"597 329 OFFCURVE",
"630 329 CURVE SMOOTH",
"654 329 OFFCURVE",
"665 318 OFFCURVE",
"665 279 CURVE SMOOTH",
"665 0 LINE",
"895 0 LINE",
"895 344 LINE SMOOTH",
"895 449 OFFCURVE",
"837 510 OFFCURVE",
"738 510 CURVE SMOOTH",
"660 510 OFFCURVE",
"604 473 OFFCURVE",
"573 409 CURVE",
"552 473 OFFCURVE",
"501 510 OFFCURVE",
"425 510 CURVE SMOOTH",
"339 510 OFFCURVE",
"280 464 OFFCURVE",
"251 385 CURVE",
"246 500 LINE",
"39 500 LINE",
"39 0 LINE"
);
}
);
width = 933;
},
{
anchors = (
{
name = bottom;
position = "{472, 0}";
},
{
name = ogonek;
position = "{879, 0}";
},
{
name = top;
position = "{472, 500}";
}
);
layerId = "17687776-AAFA-4856-A5EB-4A2EB08551C8";
paths = (
{
closed = 1;
nodes = (
"224 0 LINE",
"224 264 LINE SMOOTH",
"224 340 OFFCURVE",
"271 371 OFFCURVE",
"319 371 CURVE SMOOTH",
"363 371 OFFCURVE",
"392 350 OFFCURVE",
"392 291 CURVE SMOOTH",
"392 0 LINE",
"552 0 LINE",
"552 265 LINE SMOOTH",
"552 336 OFFCURVE",
"594 371 OFFCURVE",
"648 371 CURVE SMOOTH",
"691 371 OFFCURVE",
"721 350 OFFCURVE",
"721 291 CURVE SMOOTH",
"721 0 LINE",
"881 0 LINE",
"881 335 LINE SMOOTH",
"881 450 OFFCURVE",
"806 510 OFFCURVE",
"708 510 CURVE SMOOTH",
"636 510 OFFCURVE",
"571 479 OFFCURVE",
"538 413 CURVE",
"512 476 OFFCURVE",
"452 510 OFFCURVE",
"380 510 CURVE SMOOTH",
"305 510 OFFCURVE",
"248 480 OFFCURVE",
"212 415 CURVE",
"208 500 LINE",
"64 500 LINE",
"64 0 LINE"
);
}
);
width = 941;
}
);
leftKerningGroup = n;
leftMetricsKey = n;
rightKerningGroup = n;
unicode = 006D;
},
{
color = 5;
glyphname = n;
layers = (
{
anchors = (
{
name = bottom;
position = "{322, 0}";
},
{
name = ogonek;
position = "{511, 0}";
},
{
name = top;
position = "{298, 500}";
}
);
color = 9;
layerId = "4A17B37A-CBFD-40E5-9E02-2080A0E1F76C";
paths = (
{
closed = 1;
nodes = (
"153 0 LINE",
"153 266 LINE SMOOTH",
"153 394 OFFCURVE",
"235 440 OFFCURVE",
"308 440 CURVE SMOOTH",
"377 440 OFFCURVE",
"431 403 OFFCURVE",
"431 292 CURVE SMOOTH",
"431 0 LINE",
"511 0 LINE",
"511 320 LINE SMOOTH",
"511 449 OFFCURVE",
"423 510 OFFCURVE",
"316 510 CURVE SMOOTH",
"239 510 OFFCURVE",
"168 479 OFFCURVE",
"137 399 CURVE",
"150 388 LINE",
"143 500 LINE",
"73 500 LINE",
"73 0 LINE"
);
}
);
width = 579;
},
{
anchors = (
{
name = bottom;
position = "{308, 0}";
},
{
name = ogonek;
position = "{480, 0}";
},
{
name = top;
position = "{278, 500}";
}
);
color = 9;
layerId = "1C7CD022-87C7-4E11-B656-E47B18819458";
paths = (
{
closed = 1;
nodes = (
"86 0 LINE",
"86 301 LINE SMOOTH",
"86 405 OFFCURVE",
"174 496 OFFCURVE",
"291 496 CURVE SMOOTH",
"397 496 OFFCURVE",
"464 434 OFFCURVE",
"464 327 CURVE SMOOTH",
"464 0 LINE",
"480 0 LINE",
"480 329 LINE SMOOTH",
"480 444 OFFCURVE",
"409 510 OFFCURVE",
"294 510 CURVE SMOOTH",
"187 510 OFFCURVE",
"106 447 OFFCURVE",
"85 363 CURVE",
"86 360 LINE",
"86 500 LINE",
"70 500 LINE",
"70 0 LINE"
);
}
);
width = 544;
},
{
anchors = (
{
name = bottom;
position = "{303, 0}";
},
{
name = ogonek;
position = "{582, 0}";
},
{
name = top;
position = "{309, 500}";
}
);
layerId = "4605B8F7-B96C-4225-97D4-41F6E85C553E";
paths = (
{
closed = 1;
nodes = (
"269 0 LINE",
"269 264 LINE SMOOTH",
"269 309 OFFCURVE",
"283 329 OFFCURVE",
"316 329 CURVE SMOOTH",
"340 329 OFFCURVE",
"352 318 OFFCURVE",
"352 284 CURVE SMOOTH",
"352 0 LINE",
"582 0 LINE",
"582 346 LINE SMOOTH",
"582 449 OFFCURVE",
"524 510 OFFCURVE",
"425 510 CURVE SMOOTH",
"313 510 OFFCURVE",
"247 432 OFFCURVE",
"233 303 CURVE",
"256 277 LINE",
"246 500 LINE",
"39 500 LINE",
"39 0 LINE"
);
}
);
width = 620;
},
{
anchors = (
{
name = bottom;
position = "{321, 0}";
},
{
name = ogonek;
position = "{558, 0}";
},
{
name = top;
position = "{313, 500}";
}
);
layerId = "17687776-AAFA-4856-A5EB-4A2EB08551C8";
paths = (
{
closed = 1;
nodes = (
"224 0 LINE",
"224 265 LINE SMOOTH",
"224 341 OFFCURVE",
"270 371 OFFCURVE",
"321 371 CURVE SMOOTH",
"366 371 OFFCURVE",
"398 350 OFFCURVE",
"398 288 CURVE SMOOTH",
"398 0 LINE",
"558 0 LINE",
"558 327 LINE SMOOTH",
"558 449 OFFCURVE",
"483 510 OFFCURVE",
"376 510 CURVE SMOOTH",
"275 510 OFFCURVE",
"209 450 OFFCURVE",
"186 340 CURVE",
"216 319 LINE",
"208 500 LINE",
"64 500 LINE",
"64 0 LINE"
);
}
);
width = 618;
}
);
leftKerningGroup = n;
rightKerningGroup = n;
unicode = 006E;
},
{
color = 5;
glyphname = o;
layers = (
{
anchors = (
{
name = bottom;
position = "{270, 0}";
},
{
name = center;
position = "{270, 250}";
},
{
name = ogonek;
position = "{366, 9}";
},
{
name = top;
position = "{270, 496}";
},
{
name = topright;
position = "{403, 500}";
}
);
color = 9;
layerId = "1C7CD022-87C7-4E11-B656-E47B18819458";
paths = (
{
closed = 1;
nodes = (
"132 510 OFFCURVE",
"36 412 OFFCURVE",
"36 250 CURVE SMOOTH",
"36 88 OFFCURVE",
"132 -10 OFFCURVE",
"270 -10 CURVE SMOOTH",
"408 -10 OFFCURVE",
"503 88 OFFCURVE",
"503 250 CURVE SMOOTH",
"503 412 OFFCURVE",
"408 510 OFFCURVE",
"270 510 CURVE SMOOTH"
);
},
{
closed = 1;
nodes = (
"398 496 OFFCURVE",
"487 403 OFFCURVE",
"487 250 CURVE SMOOTH",
"487 97 OFFCURVE",
"398 4 OFFCURVE",
"270 4 CURVE SMOOTH",
"142 4 OFFCURVE",
"52 97 OFFCURVE",
"52 250 CURVE SMOOTH",
"52 403 OFFCURVE",
"142 496 OFFCURVE",
"270 496 CURVE SMOOTH"
);
}
);
width = 539;
},
{
anchors = (
{
name = bottom;
position = "{282, 0}";
},
{
name = center;
position = "{282, 250}";
},
{
name = ogonek;
position = "{392, 13}";
},
{
name = top;
position = "{282, 500}";
},
{
name = topright;
position = "{430, 500}";
}
);
color = 9;
layerId = "4A17B37A-CBFD-40E5-9E02-2080A0E1F76C";
paths = (
{
closed = 1;
nodes = (
"140 510 OFFCURVE",
"38 412 OFFCURVE",
"38 250 CURVE SMOOTH",
"38 88 OFFCURVE",
"140 -10 OFFCURVE",
"282 -10 CURVE SMOOTH",
"424 -10 OFFCURVE",
"526 88 OFFCURVE",
"526 250 CURVE SMOOTH",
"526 412 OFFCURVE",
"424 510 OFFCURVE",
"282 510 CURVE SMOOTH"
);
},
{
closed = 1;
nodes = (
"383 441 OFFCURVE",
"444 369 OFFCURVE",
"444 250 CURVE SMOOTH",
"444 131 OFFCURVE",
"383 59 OFFCURVE",
"282 59 CURVE SMOOTH",
"181 59 OFFCURVE",
"120 131 OFFCURVE",
"120 250 CURVE SMOOTH",
"120 369 OFFCURVE",
"181 441 OFFCURVE",
"282 441 CURVE SMOOTH"
);
}
);
width = 564;
},
{
anchors = (
{
name = bottom;
position = "{299, 0}";
},
{
name = center;
position = "{299, 250}";
},
{
name = ogonek;
position = "{426, 12}";
},
{
name = top;
position = "{299, 500}";
},
{
name = topright;
position = "{479, 500}";
}
);
layerId = "4605B8F7-B96C-4225-97D4-41F6E85C553E";
paths = (
{
closed = 1;
nodes = (
"132 510 OFFCURVE",
"20 415 OFFCURVE",
"20 250 CURVE SMOOTH",
"20 85 OFFCURVE",
"132 -10 OFFCURVE",
"299 -10 CURVE SMOOTH",
"466 -10 OFFCURVE",
"578 85 OFFCURVE",
"578 250 CURVE SMOOTH",
"578 415 OFFCURVE",
"466 510 OFFCURVE",
"299 510 CURVE SMOOTH"
);
},
{
closed = 1;
nodes = (
"330 345 OFFCURVE",
"347 331 OFFCURVE",
"347 250 CURVE SMOOTH",
"347 169 OFFCURVE",
"330 155 OFFCURVE",
"299 155 CURVE SMOOTH",
"268 155 OFFCURVE",
"251 169 OFFCURVE",
"251 250 CURVE SMOOTH",
"251 331 OFFCURVE",
"268 345 OFFCURVE",
"299 345 CURVE SMOOTH"
);
}
);
width = 598;
},
{
anchors = (
{
name = bottom;
position = "{297, 0}";
},
{
name = center;
position = "{297, 250}";
},
{
name = ogonek;
position = "{415, 12}";
},
{
name = top;
position = "{297, 500}";
},
{
name = topright;
position = "{461, 500}";
}
);
layerId = "17687776-AAFA-4856-A5EB-4A2EB08551C8";
paths = (
{
closed = 1;
nodes = (
"141 510 OFFCURVE",
"35 414 OFFCURVE",
"35 250 CURVE SMOOTH",
"35 86 OFFCURVE",
"141 -10 OFFCURVE",
"297 -10 CURVE SMOOTH",
"452 -10 OFFCURVE",
"558 86 OFFCURVE",
"558 250 CURVE SMOOTH",
"558 414 OFFCURVE",
"452 510 OFFCURVE",
"297 510 CURVE SMOOTH"
);
},
{
closed = 1;
nodes = (
"360 382 OFFCURVE",
"397 341 OFFCURVE",
"397 250 CURVE SMOOTH",
"397 159 OFFCURVE",
"360 118 OFFCURVE",
"297 118 CURVE SMOOTH",
"233 118 OFFCURVE",
"196 159 OFFCURVE",
"196 250 CURVE SMOOTH",
"196 341 OFFCURVE",
"233 382 OFFCURVE",
"297 382 CURVE SMOOTH"
);
}
);
width = 593;
}
);
leftKerningGroup = o;
rightKerningGroup = o;
unicode = 006F;
},
